solid PULLEY SPACER 1 long
   facet normal -9.983119e-001 -5.807913e-002 1.222580e-016
      outer loop
         vertex 7.375000e+000 5.250000e+000 0.000000e+000
         vertex 7.375000e+000 5.250000e+000 1.400000e+001
         vertex 7.342717e+000 5.619002e+000 3.953592e-018
      endloop
   endfacet
   facet normal -9.932307e-001 -1.161583e-001 1.216357e-016
      outer loop
         vertex 7.342717e+000 5.619002e+000 3.953592e-018
         vertex 7.375000e+000 5.250000e+000 1.400000e+001
         vertex 7.342717e+000 5.619002e+000 1.400000e+001
      endloop
   endfacet
   facet normal -9.730600e-001 -2.305519e-001 1.191655e-016
      outer loop
         vertex 7.342717e+000 5.619002e+000 3.953592e-018
         vertex 7.342717e+000 5.619002e+000 1.400000e+001
         vertex 7.246847e+000 5.976793e+000 1.569424e-017
      endloop
   endfacet
   facet normal -9.579706e-001 -2.868663e-001 1.173176e-016
      outer loop
         vertex 7.246847e+000 5.976793e+000 1.569424e-017
         vertex 7.342717e+000 5.619002e+000 1.400000e+001
         vertex 7.246847e+000 5.976793e+000 1.400000e+001
      endloop
   endfacet
   facet normal -9.182422e-001 -3.960194e-001 1.124522e-016
      outer loop
         vertex 7.246847e+000 5.976793e+000 1.569424e-017
         vertex 7.246847e+000 5.976793e+000 1.400000e+001
         vertex 7.090304e+000 6.312500e+000 3.486521e-017
      endloop
   endfacet
   facet normal -8.936031e-001 -4.488580e-001 1.094348e-016
      outer loop
         vertex 7.090304e+000 6.312500e+000 3.486521e-017
         vertex 7.246847e+000 5.976793e+000 1.400000e+001
         vertex 7.090304e+000 6.312500e+000 1.400000e+001
      endloop
   endfacet
   facet normal -8.355240e-001 -5.494540e-001 1.023222e-016
      outer loop
         vertex 7.090304e+000 6.312500e+000 3.486521e-017
         vertex 7.090304e+000 6.312500e+000 1.400000e+001
         vertex 6.877844e+000 6.615924e+000 6.088399e-017
      endloop
   endfacet
   facet normal -8.020838e-001 -5.972114e-001 9.822694e-017
      outer loop
         vertex 6.877844e+000 6.615924e+000 6.088399e-017
         vertex 7.090304e+000 6.312500e+000 1.400000e+001
         vertex 6.877844e+000 6.615924e+000 1.400000e+001
      endloop
   endfacet
   facet normal -7.274188e-001 -6.861938e-001 8.908310e-017
      outer loop
         vertex 6.877844e+000 6.615924e+000 6.088399e-017
         vertex 6.877844e+000 6.615924e+000 1.400000e+001
         vertex 6.615924e+000 6.877844e+000 9.296004e-017
      endloop
   endfacet
   facet normal -6.861938e-001 -7.274188e-001 8.403449e-017
      outer loop
         vertex 6.615924e+000 6.877844e+000 9.296004e-017
         vertex 6.877844e+000 6.615924e+000 1.400000e+001
         vertex 6.615924e+000 6.877844e+000 1.400000e+001
      endloop
   endfacet
   facet normal -5.972114e-001 -8.020838e-001 7.313730e-017
      outer loop
         vertex 6.615924e+000 6.877844e+000 9.296004e-017
         vertex 6.615924e+000 6.877844e+000 1.400000e+001
         vertex 6.312500e+000 7.090304e+000 1.301187e-016
      endloop
   endfacet
   facet normal -5.494540e-001 -8.355240e-001 6.728871e-017
      outer loop
         vertex 6.312500e+000 7.090304e+000 1.301187e-016
         vertex 6.615924e+000 6.877844e+000 1.400000e+001
         vertex 6.312500e+000 7.090304e+000 1.400000e+001
      endloop
   endfacet
   facet normal -4.488580e-001 -8.936031e-001 5.496925e-017
      outer loop
         vertex 6.312500e+000 7.090304e+000 1.301187e-016
         vertex 6.312500e+000 7.090304e+000 1.400000e+001
         vertex 5.976793e+000 7.246847e+000 1.712310e-016
      endloop
   endfacet
   facet normal -3.960194e-001 -9.182422e-001 4.849839e-017
      outer loop
         vertex 5.976793e+000 7.246847e+000 1.712310e-016
         vertex 6.312500e+000 7.090304e+000 1.400000e+001
         vertex 5.976793e+000 7.246847e+000 1.400000e+001
      endloop
   endfacet
   facet normal -2.868663e-001 -9.579706e-001 3.513099e-017
      outer loop
         vertex 5.976793e+000 7.246847e+000 1.712310e-016
         vertex 5.976793e+000 7.246847e+000 1.400000e+001
         vertex 5.619002e+000 7.342717e+000 2.150477e-016
      endloop
   endfacet
   facet normal -2.305519e-001 -9.730600e-001 2.823446e-017
      outer loop
         vertex 5.619002e+000 7.342717e+000 2.150477e-016
         vertex 5.976793e+000 7.246847e+000 1.400000e+001
         vertex 5.619002e+000 7.342717e+000 1.400000e+001
      endloop
   endfacet
   facet normal -1.161583e-001 -9.932307e-001 1.422529e-017
      outer loop
         vertex 5.619002e+000 7.342717e+000 2.150477e-016
         vertex 5.619002e+000 7.342717e+000 1.400000e+001
         vertex 5.250000e+000 7.375000e+000 2.602375e-016
      endloop
   endfacet
   facet normal -5.807913e-002 -9.983119e-001 7.112642e-018
      outer loop
         vertex 5.250000e+000 7.375000e+000 2.602375e-016
         vertex 5.619002e+000 7.342717e+000 1.400000e+001
         vertex 5.250000e+000 7.375000e+000 1.400000e+001
      endloop
   endfacet
   facet normal 5.807913e-002 -9.983119e-001 -7.112642e-018
      outer loop
         vertex 5.250000e+000 7.375000e+000 2.602375e-016
         vertex 5.250000e+000 7.375000e+000 1.400000e+001
         vertex 4.880997e+000 7.342717e+000 3.054272e-016
      endloop
   endfacet
   facet normal 1.161583e-001 -9.932307e-001 -1.422529e-017
      outer loop
         vertex 4.880997e+000 7.342717e+000 3.054272e-016
         vertex 5.250000e+000 7.375000e+000 1.400000e+001
         vertex 4.880997e+000 7.342717e+000 1.400000e+001
      endloop
   endfacet
   facet normal 2.305519e-001 -9.730600e-001 -2.823446e-017
      outer loop
         vertex 4.880997e+000 7.342717e+000 3.054272e-016
         vertex 4.880997e+000 7.342717e+000 1.400000e+001
         vertex 4.523207e+000 7.246847e+000 3.492439e-016
      endloop
   endfacet
   facet normal 2.868663e-001 -9.579706e-001 -3.513099e-017
      outer loop
         vertex 4.523207e+000 7.246847e+000 3.492439e-016
         vertex 4.880997e+000 7.342717e+000 1.400000e+001
         vertex 4.523207e+000 7.246847e+000 1.400000e+001
      endloop
   endfacet
   facet normal 3.960194e-001 -9.182422e-001 -4.849838e-017
      outer loop
         vertex 4.523207e+000 7.246847e+000 3.492439e-016
         vertex 4.523207e+000 7.246847e+000 1.400000e+001
         vertex 4.187500e+000 7.090304e+000 3.903562e-016
      endloop
   endfacet
   facet normal 4.488580e-001 -8.936031e-001 -5.496925e-017
      outer loop
         vertex 4.187500e+000 7.090304e+000 3.903562e-016
         vertex 4.523207e+000 7.246847e+000 1.400000e+001
         vertex 4.187500e+000 7.090304e+000 1.400000e+001
      endloop
   endfacet
   facet normal 5.494540e-001 -8.355240e-001 -6.728871e-017
      outer loop
         vertex 4.187500e+000 7.090304e+000 3.903562e-016
         vertex 4.187500e+000 7.090304e+000 1.400000e+001
         vertex 3.884076e+000 6.877844e+000 4.275149e-016
      endloop
   endfacet
   facet normal 5.972114e-001 -8.020838e-001 -7.313730e-017
      outer loop
         vertex 3.884076e+000 6.877844e+000 4.275149e-016
         vertex 4.187500e+000 7.090304e+000 1.400000e+001
         vertex 3.884076e+000 6.877844e+000 1.400000e+001
      endloop
   endfacet
   facet normal 6.861938e-001 -7.274188e-001 -8.403449e-017
      outer loop
         vertex 3.884076e+000 6.877844e+000 4.275149e-016
         vertex 3.884076e+000 6.877844e+000 1.400000e+001
         vertex 3.622156e+000 6.615924e+000 4.595909e-016
      endloop
   endfacet
   facet normal 7.274188e-001 -6.861938e-001 -8.908310e-017
      outer loop
         vertex 3.622156e+000 6.615924e+000 4.595909e-016
         vertex 3.884076e+000 6.877844e+000 1.400000e+001
         vertex 3.622156e+000 6.615924e+000 1.400000e+001
      endloop
   endfacet
   facet normal 8.020838e-001 -5.972114e-001 -9.822694e-017
      outer loop
         vertex 3.622156e+000 6.615924e+000 4.595909e-016
         vertex 3.622156e+000 6.615924e+000 1.400000e+001
         vertex 3.409696e+000 6.312500e+000 4.856097e-016
      endloop
   endfacet
   facet normal 8.355240e-001 -5.494540e-001 -1.023222e-016
      outer loop
         vertex 3.409696e+000 6.312500e+000 4.856097e-016
         vertex 3.622156e+000 6.615924e+000 1.400000e+001
         vertex 3.409696e+000 6.312500e+000 1.400000e+001
      endloop
   endfacet
   facet normal 8.936031e-001 -4.488580e-001 -1.094348e-016
      outer loop
         vertex 3.409696e+000 6.312500e+000 4.856097e-016
         vertex 3.409696e+000 6.312500e+000 1.400000e+001
         vertex 3.253153e+000 5.976793e+000 5.047807e-016
      endloop
   endfacet
   facet normal 9.182422e-001 -3.960194e-001 -1.124522e-016
      outer loop
         vertex 3.253153e+000 5.976793e+000 5.047807e-016
         vertex 3.409696e+000 6.312500e+000 1.400000e+001
         vertex 3.253153e+000 5.976793e+000 1.400000e+001
      endloop
   endfacet
   facet normal 9.579706e-001 -2.868663e-001 -1.173176e-016
      outer loop
         vertex 3.253153e+000 5.976793e+000 5.047807e-016
         vertex 3.253153e+000 5.976793e+000 1.400000e+001
         vertex 3.157283e+000 5.619002e+000 5.165213e-016
      endloop
   endfacet
   facet normal 9.730600e-001 -2.305519e-001 -1.191655e-016
      outer loop
         vertex 3.157283e+000 5.619002e+000 5.165213e-016
         vertex 3.253153e+000 5.976793e+000 1.400000e+001
         vertex 3.157283e+000 5.619002e+000 1.400000e+001
      endloop
   endfacet
   facet normal 9.932307e-001 -1.161583e-001 -1.216357e-016
      outer loop
         vertex 3.157283e+000 5.619002e+000 5.165213e-016
         vertex 3.157283e+000 5.619002e+000 1.400000e+001
         vertex 3.125000e+000 5.250000e+000 5.204749e-016
      endloop
   endfacet
   facet normal 9.983119e-001 -5.807913e-002 -1.222580e-016
      outer loop
         vertex 3.125000e+000 5.250000e+000 5.204749e-016
         vertex 3.157283e+000 5.619002e+000 1.400000e+001
         vertex 3.125000e+000 5.250000e+000 1.400000e+001
      endloop
   endfacet
   facet normal 9.983119e-001 5.807913e-002 -1.222580e-016
      outer loop
         vertex 3.125000e+000 5.250000e+000 5.204749e-016
         vertex 3.125000e+000 5.250000e+000 1.400000e+001
         vertex 3.157283e+000 4.880997e+000 5.165213e-016
      endloop
   endfacet
   facet normal 9.932307e-001 1.161583e-001 -1.216357e-016
      outer loop
         vertex 3.157283e+000 4.880997e+000 5.165213e-016
         vertex 3.125000e+000 5.250000e+000 1.400000e+001
         vertex 3.157283e+000 4.880997e+000 1.400000e+001
      endloop
   endfacet
   facet normal 9.730600e-001 2.305519e-001 -1.191655e-016
      outer loop
         vertex 3.157283e+000 4.880997e+000 5.165213e-016
         vertex 3.157283e+000 4.880997e+000 1.400000e+001
         vertex 3.253153e+000 4.523207e+000 5.047807e-016
      endloop
   endfacet
   facet normal 9.579706e-001 2.868663e-001 -1.173176e-016
      outer loop
         vertex 3.253153e+000 4.523207e+000 5.047807e-016
         vertex 3.157283e+000 4.880997e+000 1.400000e+001
         vertex 3.253153e+000 4.523207e+000 1.400000e+001
      endloop
   endfacet
   facet normal 9.182422e-001 3.960194e-001 -1.124522e-016
      outer loop
         vertex 3.253153e+000 4.523207e+000 5.047807e-016
         vertex 3.253153e+000 4.523207e+000 1.400000e+001
         vertex 3.409696e+000 4.187500e+000 4.856097e-016
      endloop
   endfacet
   facet normal 8.936031e-001 4.488580e-001 -1.094348e-016
      outer loop
         vertex 3.409696e+000 4.187500e+000 4.856097e-016
         vertex 3.253153e+000 4.523207e+000 1.400000e+001
         vertex 3.409696e+000 4.187500e+000 1.400000e+001
      endloop
   endfacet
   facet normal 8.355240e-001 5.494540e-001 -1.023222e-016
      outer loop
         vertex 3.409696e+000 4.187500e+000 4.856097e-016
         vertex 3.409696e+000 4.187500e+000 1.400000e+001
         vertex 3.622156e+000 3.884076e+000 4.595909e-016
      endloop
   endfacet
   facet normal 8.020838e-001 5.972114e-001 -9.822694e-017
      outer loop
         vertex 3.622156e+000 3.884076e+000 4.595909e-016
         vertex 3.409696e+000 4.187500e+000 1.400000e+001
         vertex 3.622156e+000 3.884076e+000 1.400000e+001
      endloop
   endfacet
   facet normal 7.274188e-001 6.861938e-001 -8.908310e-017
      outer loop
         vertex 3.622156e+000 3.884076e+000 4.595909e-016
         vertex 3.622156e+000 3.884076e+000 1.400000e+001
         vertex 3.884076e+000 3.622156e+000 4.275149e-016
      endloop
   endfacet
   facet normal 6.861938e-001 7.274188e-001 -8.403449e-017
      outer loop
         vertex 3.884076e+000 3.622156e+000 4.275149e-016
         vertex 3.622156e+000 3.884076e+000 1.400000e+001
         vertex 3.884076e+000 3.622156e+000 1.400000e+001
      endloop
   endfacet
   facet normal 5.972114e-001 8.020838e-001 -7.313730e-017
      outer loop
         vertex 3.884076e+000 3.622156e+000 4.275149e-016
         vertex 3.884076e+000 3.622156e+000 1.400000e+001
         vertex 4.187500e+000 3.409696e+000 3.903562e-016
      endloop
   endfacet
   facet normal 5.494540e-001 8.355240e-001 -6.728871e-017
      outer loop
         vertex 4.187500e+000 3.409696e+000 3.903562e-016
         vertex 3.884076e+000 3.622156e+000 1.400000e+001
         vertex 4.187500e+000 3.409696e+000 1.400000e+001
      endloop
   endfacet
   facet normal 4.488580e-001 8.936031e-001 -5.496925e-017
      outer loop
         vertex 4.187500e+000 3.409696e+000 3.903562e-016
         vertex 4.187500e+000 3.409696e+000 1.400000e+001
         vertex 4.523207e+000 3.253153e+000 3.492439e-016
      endloop
   endfacet
   facet normal 3.960194e-001 9.182422e-001 -4.849839e-017
      outer loop
         vertex 4.523207e+000 3.253153e+000 3.492439e-016
         vertex 4.187500e+000 3.409696e+000 1.400000e+001
         vertex 4.523207e+000 3.253153e+000 1.400000e+001
      endloop
   endfacet
   facet normal 2.868663e-001 9.579706e-001 -3.513099e-017
      outer loop
         vertex 4.523207e+000 3.253153e+000 3.492439e-016
         vertex 4.523207e+000 3.253153e+000 1.400000e+001
         vertex 4.880997e+000 3.157283e+000 3.054272e-016
      endloop
   endfacet
   facet normal 2.305519e-001 9.730600e-001 -2.823446e-017
      outer loop
         vertex 4.880997e+000 3.157283e+000 3.054272e-016
         vertex 4.523207e+000 3.253153e+000 1.400000e+001
         vertex 4.880997e+000 3.157283e+000 1.400000e+001
      endloop
   endfacet
   facet normal 1.161583e-001 9.932307e-001 -1.422529e-017
      outer loop
         vertex 4.880997e+000 3.157283e+000 3.054272e-016
         vertex 4.880997e+000 3.157283e+000 1.400000e+001
         vertex 5.250000e+000 3.125000e+000 2.602375e-016
      endloop
   endfacet
   facet normal 5.807913e-002 9.983119e-001 -7.112642e-018
      outer loop
         vertex 5.250000e+000 3.125000e+000 2.602375e-016
         vertex 4.880997e+000 3.157283e+000 1.400000e+001
         vertex 5.250000e+000 3.125000e+000 1.400000e+001
      endloop
   endfacet
   facet normal -5.807913e-002 9.983119e-001 7.112642e-018
      outer loop
         vertex 5.250000e+000 3.125000e+000 2.602375e-016
         vertex 5.250000e+000 3.125000e+000 1.400000e+001
         vertex 5.619002e+000 3.157283e+000 2.150477e-016
      endloop
   endfacet
   facet normal -1.161583e-001 9.932307e-001 1.422529e-017
      outer loop
         vertex 5.619002e+000 3.157283e+000 2.150477e-016
         vertex 5.250000e+000 3.125000e+000 1.400000e+001
         vertex 5.619002e+000 3.157283e+000 1.400000e+001
      endloop
   endfacet
   facet normal -2.305519e-001 9.730600e-001 2.823446e-017
      outer loop
         vertex 5.619002e+000 3.157283e+000 2.150477e-016
         vertex 5.619002e+000 3.157283e+000 1.400000e+001
         vertex 5.976793e+000 3.253153e+000 1.712310e-016
      endloop
   endfacet
   facet normal -2.868663e-001 9.579706e-001 3.513099e-017
      outer loop
         vertex 5.976793e+000 3.253153e+000 1.712310e-016
         vertex 5.619002e+000 3.157283e+000 1.400000e+001
         vertex 5.976793e+000 3.253153e+000 1.400000e+001
      endloop
   endfacet
   facet normal -3.960194e-001 9.182422e-001 4.849838e-017
      outer loop
         vertex 5.976793e+000 3.253153e+000 1.712310e-016
         vertex 5.976793e+000 3.253153e+000 1.400000e+001
         vertex 6.312500e+000 3.409696e+000 1.301187e-016
      endloop
   endfacet
   facet normal -4.488580e-001 8.936031e-001 5.496925e-017
      outer loop
         vertex 6.312500e+000 3.409696e+000 1.301187e-016
         vertex 5.976793e+000 3.253153e+000 1.400000e+001
         vertex 6.312500e+000 3.409696e+000 1.400000e+001
      endloop
   endfacet
   facet normal -5.494540e-001 8.355240e-001 6.728871e-017
      outer loop
         vertex 6.312500e+000 3.409696e+000 1.301187e-016
         vertex 6.312500e+000 3.409696e+000 1.400000e+001
         vertex 6.615924e+000 3.622156e+000 9.296004e-017
      endloop
   endfacet
   facet normal -5.972114e-001 8.020838e-001 7.313730e-017
      outer loop
         vertex 6.615924e+000 3.622156e+000 9.296004e-017
         vertex 6.312500e+000 3.409696e+000 1.400000e+001
         vertex 6.615924e+000 3.622156e+000 1.400000e+001
      endloop
   endfacet
   facet normal -6.861938e-001 7.274188e-001 8.403449e-017
      outer loop
         vertex 6.615924e+000 3.622156e+000 9.296004e-017
         vertex 6.615924e+000 3.622156e+000 1.400000e+001
         vertex 6.877844e+000 3.884076e+000 6.088399e-017
      endloop
   endfacet
   facet normal -7.274188e-001 6.861938e-001 8.908310e-017
      outer loop
         vertex 6.877844e+000 3.884076e+000 6.088399e-017
         vertex 6.615924e+000 3.622156e+000 1.400000e+001
         vertex 6.877844e+000 3.884076e+000 1.400000e+001
      endloop
   endfacet
   facet normal -8.020838e-001 5.972114e-001 9.822694e-017
      outer loop
         vertex 6.877844e+000 3.884076e+000 6.088399e-017
         vertex 6.877844e+000 3.884076e+000 1.400000e+001
         vertex 7.090304e+000 4.187500e+000 3.486521e-017
      endloop
   endfacet
   facet normal -8.355240e-001 5.494540e-001 1.023222e-016
      outer loop
         vertex 7.090304e+000 4.187500e+000 3.486521e-017
         vertex 6.877844e+000 3.884076e+000 1.400000e+001
         vertex 7.090304e+000 4.187500e+000 1.400000e+001
      endloop
   endfacet
   facet normal -8.936031e-001 4.488580e-001 1.094348e-016
      outer loop
         vertex 7.090304e+000 4.187500e+000 3.486521e-017
         vertex 7.090304e+000 4.187500e+000 1.400000e+001
         vertex 7.246847e+000 4.523207e+000 1.569424e-017
      endloop
   endfacet
   facet normal -9.182422e-001 3.960194e-001 1.124522e-016
      outer loop
         vertex 7.246847e+000 4.523207e+000 1.569424e-017
         vertex 7.090304e+000 4.187500e+000 1.400000e+001
         vertex 7.246847e+000 4.523207e+000 1.400000e+001
      endloop
   endfacet
   facet normal -9.579706e-001 2.868663e-001 1.173176e-016
      outer loop
         vertex 7.246847e+000 4.523207e+000 1.569424e-017
         vertex 7.246847e+000 4.523207e+000 1.400000e+001
         vertex 7.342717e+000 4.880997e+000 3.953592e-018
      endloop
   endfacet
   facet normal -9.730600e-001 2.305519e-001 1.191655e-016
      outer loop
         vertex 7.342717e+000 4.880997e+000 3.953592e-018
         vertex 7.246847e+000 4.523207e+000 1.400000e+001
         vertex 7.342717e+000 4.880997e+000 1.400000e+001
      endloop
   endfacet
   facet normal -9.932307e-001 1.161583e-001 1.216357e-016
      outer loop
         vertex 7.342717e+000 4.880997e+000 3.953592e-018
         vertex 7.342717e+000 4.880997e+000 1.400000e+001
         vertex 7.375000e+000 5.250000e+000 0.000000e+000
      endloop
   endfacet
   facet normal -9.983119e-001 5.807913e-002 1.222580e-016
      outer loop
         vertex 7.375000e+000 5.250000e+000 0.000000e+000
         vertex 7.342717e+000 4.880997e+000 1.400000e+001
         vertex 7.375000e+000 5.250000e+000 1.400000e+001
      endloop
   endfacet
   facet normal 9.968768e-001 7.897206e-002 -1.220822e-016
      outer loop
         vertex 1.050000e+001 5.250000e+000 1.400000e+001
         vertex 1.046315e+001 5.870934e+000 4.512731e-018
         vertex 1.046315e+001 5.870934e+000 1.400000e+001
      endloop
   endfacet
   facet normal 9.875365e-001 1.573898e-001 -1.209383e-016
      outer loop
         vertex 1.046315e+001 5.870934e+000 1.400000e+001
         vertex 1.046315e+001 5.870934e+000 4.512731e-018
         vertex 1.035312e+001 6.483151e+000 1.798758e-017
      endloop
   endfacet
   facet normal 9.805396e-001 1.963215e-001 -1.200815e-016
      outer loop
         vertex 1.046315e+001 5.870934e+000 1.400000e+001
         vertex 1.035312e+001 6.483151e+000 1.798758e-017
         vertex 1.035312e+001 6.483151e+000 1.400000e+001
      endloop
   endfacet
   facet normal 9.619902e-001 2.730842e-001 -1.178098e-016
      outer loop
         vertex 1.035312e+001 6.483151e+000 1.400000e+001
         vertex 1.035312e+001 6.483151e+000 1.798758e-017
         vertex 1.017145e+001 7.078059e+000 4.023538e-017
      endloop
   endfacet
   facet normal 9.504377e-001 3.109151e-001 -1.163950e-016
      outer loop
         vertex 1.035312e+001 6.483151e+000 1.400000e+001
         vertex 1.017145e+001 7.078059e+000 4.023538e-017
         vertex 1.017145e+001 7.078059e+000 1.400000e+001
      endloop
   endfacet
   facet normal 9.229395e-001 3.849451e-001 -1.130275e-016
      outer loop
         vertex 1.017145e+001 7.078059e+000 1.400000e+001
         vertex 1.017145e+001 7.078059e+000 4.023538e-017
         vertex 9.920699e+000 7.647304e+000 7.094383e-017
      endloop
   endfacet
   facet normal 9.069937e-001 4.211441e-001 -1.110747e-016
      outer loop
         vertex 1.017145e+001 7.078059e+000 1.400000e+001
         vertex 9.920699e+000 7.647304e+000 7.094383e-017
         vertex 9.920699e+000 7.647304e+000 1.400000e+001
      endloop
   endfacet
   facet normal 8.709328e-001 4.914021e-001 -1.066585e-016
      outer loop
         vertex 9.920699e+000 7.647304e+000 1.400000e+001
         vertex 9.920699e+000 7.647304e+000 7.094383e-017
         vertex 9.604380e+000 8.182896e+000 1.096818e-016
      endloop
   endfacet
   facet normal 8.508176e-001 5.254611e-001 -1.041951e-016
      outer loop
         vertex 9.920699e+000 7.647304e+000 1.400000e+001
         vertex 9.604380e+000 8.182896e+000 1.096818e-016
         vertex 9.604380e+000 8.182896e+000 1.400000e+001
      endloop
   endfacet
   facet normal 8.067001e-001 5.909610e-001 -9.879227e-017
      outer loop
         vertex 9.604380e+000 8.182896e+000 1.400000e+001
         vertex 9.604380e+000 8.182896e+000 1.096818e-016
         vertex 9.226934e+000 8.677316e+000 1.559056e-016
      endloop
   endfacet
   facet normal 7.826978e-001 6.224019e-001 -9.585284e-017
      outer loop
         vertex 9.604380e+000 8.182896e+000 1.400000e+001
         vertex 9.226934e+000 8.677316e+000 1.559056e-016
         vertex 9.226934e+000 8.677316e+000 1.400000e+001
      endloop
   endfacet
   facet normal 7.311431e-001 6.822241e-001 -8.953920e-017
      outer loop
         vertex 9.226934e+000 8.677316e+000 1.400000e+001
         vertex 9.226934e+000 8.677316e+000 1.559056e-016
         vertex 8.793660e+000 9.123624e+000 2.089663e-016
      endloop
   endfacet
   facet normal 7.035907e-001 7.106054e-001 -8.616501e-017
      outer loop
         vertex 9.226934e+000 8.677316e+000 1.400000e+001
         vertex 8.793660e+000 9.123624e+000 2.089663e-016
         vertex 8.793660e+000 9.123624e+000 1.400000e+001
      endloop
   endfacet
   facet normal 6.453225e-001 7.639102e-001 -7.902921e-017
      outer loop
         vertex 8.793660e+000 9.123624e+000 1.400000e+001
         vertex 8.793660e+000 9.123624e+000 2.089663e-016
         vertex 8.310642e+000 9.515555e+000 2.681190e-016
      endloop
   endfacet
   facet normal 6.146067e-001 7.888337e-001 -7.526761e-017
      outer loop
         vertex 8.793660e+000 9.123624e+000 1.400000e+001
         vertex 8.310642e+000 9.515555e+000 2.681190e-016
         vertex 8.310642e+000 9.515555e+000 1.400000e+001
      endloop
   endfacet
   facet normal 5.504430e-001 8.348727e-001 -6.740982e-017
      outer loop
         vertex 8.310642e+000 9.515555e+000 1.400000e+001
         vertex 8.310642e+000 9.515555e+000 2.681190e-016
         vertex 7.784659e+000 9.847609e+000 3.325334e-016
      endloop
   endfacet
   facet normal 5.169950e-001 8.559884e-001 -6.331362e-017
      outer loop
         vertex 8.310642e+000 9.515555e+000 1.400000e+001
         vertex 7.784659e+000 9.847609e+000 3.325334e-016
         vertex 7.784659e+000 9.847609e+000 1.400000e+001
      endloop
   endfacet
   facet normal 4.478364e-001 8.941155e-001 -5.484414e-017
      outer loop
         vertex 7.784659e+000 9.847609e+000 1.400000e+001
         vertex 7.784659e+000 9.847609e+000 3.325334e-016
         vertex 7.223095e+000 1.011512e+001 4.013052e-016
      endloop
   endfacet
   facet normal 4.121258e-001 9.111270e-001 -5.047085e-017
      outer loop
         vertex 7.784659e+000 9.847609e+000 1.400000e+001
         vertex 7.223095e+000 1.011512e+001 4.013052e-016
         vertex 7.223095e+000 1.011512e+001 1.400000e+001
      endloop
   endfacet
   facet normal 3.389432e-001 9.408068e-001 -4.150857e-017
      outer loop
         vertex 7.223095e+000 1.011512e+001 1.400000e+001
         vertex 7.223095e+000 1.011512e+001 4.013052e-016
         vertex 6.633832e+000 1.031434e+001 4.734689e-016
      endloop
   endfacet
   facet normal 3.014712e-001 9.534753e-001 -3.691958e-017
      outer loop
         vertex 7.223095e+000 1.011512e+001 1.400000e+001
         vertex 6.633832e+000 1.031434e+001 4.734689e-016
         vertex 6.633832e+000 1.031434e+001 1.400000e+001
      endloop
   endfacet
   facet normal 2.252920e-001 9.742913e-001 -2.759031e-017
      outer loop
         vertex 6.633832e+000 1.031434e+001 1.400000e+001
         vertex 6.633832e+000 1.031434e+001 4.734689e-016
         vertex 6.025145e+000 1.044246e+001 5.480117e-016
      endloop
   endfacet
   facet normal 1.865847e-001 9.824389e-001 -2.285003e-017
      outer loop
         vertex 6.633832e+000 1.031434e+001 1.400000e+001
         vertex 6.025145e+000 1.044246e+001 5.480117e-016
         vertex 6.025145e+000 1.044246e+001 1.400000e+001
      endloop
   endfacet
   facet normal 1.084781e-001 9.940988e-001 -1.328474e-017
      outer loop
         vertex 6.025145e+000 1.044246e+001 1.400000e+001
         vertex 6.025145e+000 1.044246e+001 5.480117e-016
         vertex 5.405575e+000 1.049769e+001 6.238871e-016
      endloop
   endfacet
   facet normal 6.907891e-002 9.976112e-001 -8.459726e-018
      outer loop
         vertex 6.025145e+000 1.044246e+001 1.400000e+001
         vertex 5.405575e+000 1.049769e+001 6.238871e-016
         vertex 5.405575e+000 1.049769e+001 1.400000e+001
      endloop
   endfacet
   facet normal -9.858468e-003 9.999514e-001 1.207314e-018
      outer loop
         vertex 5.405575e+000 1.049769e+001 1.400000e+001
         vertex 5.405575e+000 1.049769e+001 6.238871e-016
         vertex 4.783821e+000 1.047926e+001 7.000300e-016
      endloop
   endfacet
   facet normal -4.939659e-002 9.987792e-001 6.049338e-018
      outer loop
         vertex 5.405575e+000 1.049769e+001 1.400000e+001
         vertex 4.783821e+000 1.047926e+001 7.000300e-016
         vertex 4.783821e+000 1.047926e+001 1.400000e+001
      endloop
   endfacet
   facet normal -1.280567e-001 9.917668e-001 1.568242e-017
      outer loop
         vertex 4.783821e+000 1.047926e+001 1.400000e+001
         vertex 4.783821e+000 1.047926e+001 7.000300e-016
         vertex 4.168612e+000 1.038742e+001 7.753714e-016
      endloop
   endfacet
   facet normal -1.671787e-001 9.859266e-001 2.047348e-017
      outer loop
         vertex 4.783821e+000 1.047926e+001 1.400000e+001
         vertex 4.168612e+000 1.038742e+001 7.753714e-016
         vertex 4.168612e+000 1.038742e+001 1.400000e+001
      endloop
   endfacet
   facet normal -2.444573e-001 9.696600e-001 2.993738e-017
      outer loop
         vertex 4.168612e+000 1.038742e+001 1.400000e+001
         vertex 4.168612e+000 1.038742e+001 7.753714e-016
         vertex 3.568583e+000 1.022346e+001 8.488538e-016
      endloop
   endfacet
   facet normal -2.826139e-001 9.592337e-001 3.461023e-017
      outer loop
         vertex 4.168612e+000 1.038742e+001 1.400000e+001
         vertex 3.568583e+000 1.022346e+001 8.488538e-016
         vertex 3.568583e+000 1.022346e+001 1.400000e+001
      endloop
   endfacet
   facet normal -3.574262e-001 9.339414e-001 4.377209e-017
      outer loop
         vertex 3.568583e+000 1.022346e+001 1.400000e+001
         vertex 3.568583e+000 1.022346e+001 8.488538e-016
         vertex 2.992158e+000 9.989688e+000 9.194455e-016
      endloop
   endfacet
   facet normal -3.940819e-001 9.190753e-001 4.826111e-017
      outer loop
         vertex 3.568583e+000 1.022346e+001 1.400000e+001
         vertex 2.992158e+000 9.989688e+000 9.194455e-016
         vertex 2.992158e+000 9.989688e+000 1.400000e+001
      endloop
   endfacet
   facet normal -4.653777e-001 8.851122e-001 5.699233e-017
      outer loop
         vertex 2.992158e+000 9.989688e+000 1.400000e+001
         vertex 2.992158e+000 9.989688e+000 9.194455e-016
         vertex 2.447427e+000 9.689380e+000 9.861558e-016
      endloop
   endfacet
   facet normal -5.000178e-001 8.660151e-001 6.123453e-017
      outer loop
         vertex 2.992158e+000 9.989688e+000 1.400000e+001
         vertex 2.447427e+000 9.689380e+000 9.861558e-016
         vertex 2.447427e+000 9.689380e+000 1.400000e+001
      endloop
   endfacet
   facet normal -5.667962e-001 8.238580e-001 6.941252e-017
      outer loop
         vertex 2.447427e+000 9.689380e+000 1.400000e+001
         vertex 2.447427e+000 9.689380e+000 9.861558e-016
         vertex 1.942039e+000 9.326751e+000 1.048048e-015
      endloop
   endfacet
   facet normal -5.989346e-001 8.007979e-001 7.334833e-017
      outer loop
         vertex 2.447427e+000 9.689380e+000 1.400000e+001
         vertex 1.942039e+000 9.326751e+000 1.048048e-015
         vertex 1.942039e+000 9.326751e+000 1.400000e+001
      endloop
   endfacet
   facet normal -6.602583e-001 7.510386e-001 8.085832e-017
      outer loop
         vertex 1.942039e+000 9.326751e+000 1.400000e+001
         vertex 1.942039e+000 9.326751e+000 1.048048e-015
         vertex 1.483087e+000 8.906893e+000 1.104253e-015
      endloop
   endfacet
   facet normal -6.894436e-001 7.243394e-001 8.443250e-017
      outer loop
         vertex 1.942039e+000 9.326751e+000 1.400000e+001
         vertex 1.483087e+000 8.906893e+000 1.104253e-015
         vertex 1.483087e+000 8.906893e+000 1.400000e+001
      endloop
   endfacet
   facet normal -7.444517e-001 6.676763e-001 9.116904e-017
      outer loop
         vertex 1.483087e+000 8.906893e+000 1.400000e+001
         vertex 1.483087e+000 8.906893e+000 1.104253e-015
         vertex 1.077014e+000 8.435701e+000 1.153983e-015
      endloop
   endfacet
   facet normal -7.702744e-001 6.377125e-001 9.433141e-017
      outer loop
         vertex 1.483087e+000 8.906893e+000 1.400000e+001
         vertex 1.077014e+000 8.435701e+000 1.153983e-015
         vertex 1.077014e+000 8.435701e+000 1.400000e+001
      endloop
   endfacet
   facet normal -8.181947e-001 5.749413e-001 1.001999e-016
      outer loop
         vertex 1.077014e+000 8.435701e+000 1.400000e+001
         vertex 1.077014e+000 8.435701e+000 1.153983e-015
         vertex 7.295208e-001 7.919788e+000 1.196539e-015
      endloop
   endfacet
   facet normal -8.402923e-001 5.421336e-001 1.029061e-016
      outer loop
         vertex 1.077014e+000 8.435701e+000 1.400000e+001
         vertex 7.295208e-001 7.919788e+000 1.196539e-015
         vertex 7.295208e-001 7.919788e+000 1.400000e+001
      endloop
   endfacet
   facet normal -8.804520e-001 4.741353e-001 1.078243e-016
      outer loop
         vertex 7.295208e-001 7.919788e+000 1.400000e+001
         vertex 7.295208e-001 7.919788e+000 1.196539e-015
         vertex 4.454856e-001 7.366398e+000 1.231323e-015
      endloop
   endfacet
   facet normal -8.985142e-001 4.389445e-001 1.100362e-016
      outer loop
         vertex 7.295208e-001 7.919788e+000 1.400000e+001
         vertex 4.454856e-001 7.366398e+000 1.231323e-015
         vertex 4.454856e-001 7.366398e+000 1.400000e+001
      endloop
   endfacet
   facet normal -9.303496e-001 3.666736e-001 1.139350e-016
      outer loop
         vertex 4.454856e-001 7.366398e+000 1.400000e+001
         vertex 4.454856e-001 7.366398e+000 1.231323e-015
         vertex 2.288949e-001 6.783298e+000 1.257848e-015
      endloop
   endfacet
   facet normal -9.441230e-001 3.295935e-001 1.156217e-016
      outer loop
         vertex 4.454856e-001 7.366398e+000 1.400000e+001
         vertex 2.288949e-001 6.783298e+000 1.257848e-015
         vertex 2.288949e-001 6.783298e+000 1.400000e+001
      endloop
   endfacet
   facet normal -9.671873e-001 2.540645e-001 1.184463e-016
      outer loop
         vertex 2.288949e-001 6.783298e+000 1.400000e+001
         vertex 2.288949e-001 6.783298e+000 1.257848e-015
         vertex 8.278945e-002 6.178674e+000 1.275740e-015
      endloop
   endfacet
   facet normal -9.764783e-001 2.156157e-001 1.195841e-016
      outer loop
         vertex 2.288949e-001 6.783298e+000 1.400000e+001
         vertex 8.278945e-002 6.178674e+000 1.275740e-015
         vertex 8.278945e-002 6.178674e+000 1.400000e+001
      endloop
   endfacet
   facet normal -9.904477e-001 1.378890e-001 1.212949e-016
      outer loop
         vertex 8.278945e-002 6.178674e+000 1.400000e+001
         vertex 8.278945e-002 6.178674e+000 1.275740e-015
         vertex 9.220559e-003 5.561013e+000 1.284750e-015
      endloop
   endfacet
   facet normal -9.951260e-001 9.861110e-002 1.218678e-016
      outer loop
         vertex 8.278945e-002 6.178674e+000 1.400000e+001
         vertex 9.220559e-003 5.561013e+000 1.284750e-015
         vertex 9.220559e-003 5.561013e+000 1.400000e+001
      endloop
   endfacet
   facet normal -9.998044e-001 1.977775e-002 1.224407e-016
      outer loop
         vertex 9.220559e-003 5.561013e+000 1.400000e+001
         vertex 9.220559e-003 5.561013e+000 1.284750e-015
         vertex 9.220559e-003 4.938987e+000 1.284750e-015
      endloop
   endfacet
   facet normal -9.998044e-001 -1.977775e-002 1.224407e-016
      outer loop
         vertex 9.220559e-003 5.561013e+000 1.400000e+001
         vertex 9.220559e-003 4.938987e+000 1.284750e-015
         vertex 9.220559e-003 4.938987e+000 1.400000e+001
      endloop
   endfacet
   facet normal -9.951260e-001 -9.861110e-002 1.218678e-016
      outer loop
         vertex 9.220559e-003 4.938987e+000 1.400000e+001
         vertex 9.220559e-003 4.938987e+000 1.284750e-015
         vertex 8.278945e-002 4.321326e+000 1.275740e-015
      endloop
   endfacet
   facet normal -9.904477e-001 -1.378890e-001 1.212949e-016
      outer loop
         vertex 9.220559e-003 4.938987e+000 1.400000e+001
         vertex 8.278945e-002 4.321326e+000 1.275740e-015
         vertex 8.278945e-002 4.321326e+000 1.400000e+001
      endloop
   endfacet
   facet normal -9.764783e-001 -2.156157e-001 1.195841e-016
      outer loop
         vertex 8.278945e-002 4.321326e+000 1.400000e+001
         vertex 8.278945e-002 4.321326e+000 1.275740e-015
         vertex 2.288949e-001 3.716702e+000 1.257848e-015
      endloop
   endfacet
   facet normal -9.671873e-001 -2.540645e-001 1.184463e-016
      outer loop
         vertex 8.278945e-002 4.321326e+000 1.400000e+001
         vertex 2.288949e-001 3.716702e+000 1.257848e-015
         vertex 2.288949e-001 3.716702e+000 1.400000e+001
      endloop
   endfacet
   facet normal -9.441230e-001 -3.295935e-001 1.156217e-016
      outer loop
         vertex 2.288949e-001 3.716702e+000 1.400000e+001
         vertex 2.288949e-001 3.716702e+000 1.257848e-015
         vertex 4.454856e-001 3.133602e+000 1.231323e-015
      endloop
   endfacet
   facet normal -9.303496e-001 -3.666736e-001 1.139350e-016
      outer loop
         vertex 2.288949e-001 3.716702e+000 1.400000e+001
         vertex 4.454856e-001 3.133602e+000 1.231323e-015
         vertex 4.454856e-001 3.133602e+000 1.400000e+001
      endloop
   endfacet
   facet normal -8.985142e-001 -4.389445e-001 1.100362e-016
      outer loop
         vertex 4.454856e-001 3.133602e+000 1.400000e+001
         vertex 4.454856e-001 3.133602e+000 1.231323e-015
         vertex 7.295208e-001 2.580211e+000 1.196539e-015
      endloop
   endfacet
   facet normal -8.804520e-001 -4.741353e-001 1.078243e-016
      outer loop
         vertex 4.454856e-001 3.133602e+000 1.400000e+001
         vertex 7.295208e-001 2.580211e+000 1.196539e-015
         vertex 7.295208e-001 2.580211e+000 1.400000e+001
      endloop
   endfacet
   facet normal -8.402923e-001 -5.421336e-001 1.029061e-016
      outer loop
         vertex 7.295208e-001 2.580211e+000 1.400000e+001
         vertex 7.295208e-001 2.580211e+000 1.196539e-015
         vertex 1.077014e+000 2.064299e+000 1.153983e-015
      endloop
   endfacet
   facet normal -8.181947e-001 -5.749412e-001 1.001999e-016
      outer loop
         vertex 7.295208e-001 2.580211e+000 1.400000e+001
         vertex 1.077014e+000 2.064299e+000 1.153983e-015
         vertex 1.077014e+000 2.064299e+000 1.400000e+001
      endloop
   endfacet
   facet normal -7.702744e-001 -6.377125e-001 9.433141e-017
      outer loop
         vertex 1.077014e+000 2.064299e+000 1.400000e+001
         vertex 1.077014e+000 2.064299e+000 1.153983e-015
         vertex 1.483087e+000 1.593107e+000 1.104253e-015
      endloop
   endfacet
   facet normal -7.444517e-001 -6.676763e-001 9.116904e-017
      outer loop
         vertex 1.077014e+000 2.064299e+000 1.400000e+001
         vertex 1.483087e+000 1.593107e+000 1.104253e-015
         vertex 1.483087e+000 1.593107e+000 1.400000e+001
      endloop
   endfacet
   facet normal -6.894436e-001 -7.243394e-001 8.443250e-017
      outer loop
         vertex 1.483087e+000 1.593107e+000 1.400000e+001
         vertex 1.483087e+000 1.593107e+000 1.104253e-015
         vertex 1.942039e+000 1.173249e+000 1.048048e-015
      endloop
   endfacet
   facet normal -6.602583e-001 -7.510386e-001 8.085832e-017
      outer loop
         vertex 1.483087e+000 1.593107e+000 1.400000e+001
         vertex 1.942039e+000 1.173249e+000 1.048048e-015
         vertex 1.942039e+000 1.173249e+000 1.400000e+001
      endloop
   endfacet
   facet normal -5.989346e-001 -8.007979e-001 7.334833e-017
      outer loop
         vertex 1.942039e+000 1.173249e+000 1.400000e+001
         vertex 1.942039e+000 1.173249e+000 1.048048e-015
         vertex 2.447427e+000 8.106208e-001 9.861558e-016
      endloop
   endfacet
   facet normal -5.667962e-001 -8.238580e-001 6.941252e-017
      outer loop
         vertex 1.942039e+000 1.173249e+000 1.400000e+001
         vertex 2.447427e+000 8.106208e-001 9.861558e-016
         vertex 2.447427e+000 8.106208e-001 1.400000e+001
      endloop
   endfacet
   facet normal -5.000178e-001 -8.660151e-001 6.123452e-017
      outer loop
         vertex 2.447427e+000 8.106208e-001 1.400000e+001
         vertex 2.447427e+000 8.106208e-001 9.861558e-016
         vertex 2.992158e+000 5.103112e-001 9.194455e-016
      endloop
   endfacet
   facet normal -4.653777e-001 -8.851122e-001 5.699233e-017
      outer loop
         vertex 2.447427e+000 8.106208e-001 1.400000e+001
         vertex 2.992158e+000 5.103112e-001 9.194455e-016
         vertex 2.992158e+000 5.103112e-001 1.400000e+001
      endloop
   endfacet
   facet normal -3.940819e-001 -9.190753e-001 4.826111e-017
      outer loop
         vertex 2.992158e+000 5.103112e-001 1.400000e+001
         vertex 2.992158e+000 5.103112e-001 9.194455e-016
         vertex 3.568583e+000 2.765367e-001 8.488538e-016
      endloop
   endfacet
   facet normal -3.574262e-001 -9.339414e-001 4.377209e-017
      outer loop
         vertex 2.992158e+000 5.103112e-001 1.400000e+001
         vertex 3.568583e+000 2.765367e-001 8.488538e-016
         vertex 3.568583e+000 2.765367e-001 1.400000e+001
      endloop
   endfacet
   facet normal -2.826139e-001 -9.592337e-001 3.461022e-017
      outer loop
         vertex 3.568583e+000 2.765367e-001 1.400000e+001
         vertex 3.568583e+000 2.765367e-001 8.488538e-016
         vertex 4.168612e+000 1.125783e-001 7.753714e-016
      endloop
   endfacet
   facet normal -2.444573e-001 -9.696600e-001 2.993738e-017
      outer loop
         vertex 3.568583e+000 2.765367e-001 1.400000e+001
         vertex 4.168612e+000 1.125783e-001 7.753714e-016
         vertex 4.168612e+000 1.125783e-001 1.400000e+001
      endloop
   endfacet
   facet normal -1.671786e-001 -9.859266e-001 2.047348e-017
      outer loop
         vertex 4.168612e+000 1.125783e-001 1.400000e+001
         vertex 4.168612e+000 1.125783e-001 7.753714e-016
         vertex 4.783821e+000 2.073823e-002 7.000300e-016
      endloop
   endfacet
   facet normal -1.280567e-001 -9.917668e-001 1.568242e-017
      outer loop
         vertex 4.168612e+000 1.125783e-001 1.400000e+001
         vertex 4.783821e+000 2.073823e-002 7.000300e-016
         vertex 4.783821e+000 2.073823e-002 1.400000e+001
      endloop
   endfacet
   facet normal -4.939659e-002 -9.987792e-001 6.049338e-018
      outer loop
         vertex 4.783821e+000 2.073823e-002 1.400000e+001
         vertex 4.783821e+000 2.073823e-002 7.000300e-016
         vertex 5.405575e+000 2.305489e-003 6.238871e-016
      endloop
   endfacet
   facet normal -9.858468e-003 -9.999514e-001 1.207314e-018
      outer loop
         vertex 4.783821e+000 2.073823e-002 1.400000e+001
         vertex 5.405575e+000 2.305489e-003 6.238871e-016
         vertex 5.405575e+000 2.305489e-003 1.400000e+001
      endloop
   endfacet
   facet normal 6.907891e-002 -9.976112e-001 -8.459726e-018
      outer loop
         vertex 5.405575e+000 2.305489e-003 1.400000e+001
         vertex 5.405575e+000 2.305489e-003 6.238871e-016
         vertex 6.025145e+000 5.753897e-002 5.480117e-016
      endloop
   endfacet
   facet normal 1.084781e-001 -9.940988e-001 -1.328474e-017
      outer loop
         vertex 5.405575e+000 2.305489e-003 1.400000e+001
         vertex 6.025145e+000 5.753897e-002 5.480117e-016
         vertex 6.025145e+000 5.753897e-002 1.400000e+001
      endloop
   endfacet
   facet normal 1.865847e-001 -9.824389e-001 -2.285003e-017
      outer loop
         vertex 6.025145e+000 5.753897e-002 1.400000e+001
         vertex 6.025145e+000 5.753897e-002 5.480117e-016
         vertex 6.633832e+000 1.856633e-001 4.734689e-016
      endloop
   endfacet
   facet normal 2.252920e-001 -9.742913e-001 -2.759031e-017
      outer loop
         vertex 6.025145e+000 5.753897e-002 1.400000e+001
         vertex 6.633832e+000 1.856633e-001 4.734689e-016
         vertex 6.633832e+000 1.856633e-001 1.400000e+001
      endloop
   endfacet
   facet normal 3.014712e-001 -9.534753e-001 -3.691958e-017
      outer loop
         vertex 6.633832e+000 1.856633e-001 1.400000e+001
         vertex 6.633832e+000 1.856633e-001 4.734689e-016
         vertex 7.223095e+000 3.848793e-001 4.013052e-016
      endloop
   endfacet
   facet normal 3.389432e-001 -9.408068e-001 -4.150857e-017
      outer loop
         vertex 6.633832e+000 1.856633e-001 1.400000e+001
         vertex 7.223095e+000 3.848793e-001 4.013052e-016
         vertex 7.223095e+000 3.848793e-001 1.400000e+001
      endloop
   endfacet
   facet normal 4.121258e-001 -9.111270e-001 -5.047085e-017
      outer loop
         vertex 7.223095e+000 3.848793e-001 1.400000e+001
         vertex 7.223095e+000 3.848793e-001 4.013052e-016
         vertex 7.784659e+000 6.523914e-001 3.325334e-016
      endloop
   endfacet
   facet normal 4.478364e-001 -8.941155e-001 -5.484414e-017
      outer loop
         vertex 7.223095e+000 3.848793e-001 1.400000e+001
         vertex 7.784659e+000 6.523914e-001 3.325334e-016
         vertex 7.784659e+000 6.523914e-001 1.400000e+001
      endloop
   endfacet
   facet normal 5.169950e-001 -8.559884e-001 -6.331362e-017
      outer loop
         vertex 7.784659e+000 6.523914e-001 1.400000e+001
         vertex 7.784659e+000 6.523914e-001 3.325334e-016
         vertex 8.310642e+000 9.844438e-001 2.681190e-016
      endloop
   endfacet
   facet normal 5.504430e-001 -8.348727e-001 -6.740982e-017
      outer loop
         vertex 7.784659e+000 6.523914e-001 1.400000e+001
         vertex 8.310642e+000 9.844438e-001 2.681190e-016
         vertex 8.310642e+000 9.844438e-001 1.400000e+001
      endloop
   endfacet
   facet normal 6.146067e-001 -7.888337e-001 -7.526761e-017
      outer loop
         vertex 8.310642e+000 9.844438e-001 1.400000e+001
         vertex 8.310642e+000 9.844438e-001 2.681190e-016
         vertex 8.793660e+000 1.376375e+000 2.089663e-016
      endloop
   endfacet
   facet normal 6.453225e-001 -7.639102e-001 -7.902921e-017
      outer loop
         vertex 8.310642e+000 9.844438e-001 1.400000e+001
         vertex 8.793660e+000 1.376375e+000 2.089663e-016
         vertex 8.793660e+000 1.376375e+000 1.400000e+001
      endloop
   endfacet
   facet normal 7.035907e-001 -7.106054e-001 -8.616501e-017
      outer loop
         vertex 8.793660e+000 1.376375e+000 1.400000e+001
         vertex 8.793660e+000 1.376375e+000 2.089663e-016
         vertex 9.226934e+000 1.822684e+000 1.559056e-016
      endloop
   endfacet
   facet normal 7.311431e-001 -6.822241e-001 -8.953920e-017
      outer loop
         vertex 8.793660e+000 1.376375e+000 1.400000e+001
         vertex 9.226934e+000 1.822684e+000 1.559056e-016
         vertex 9.226934e+000 1.822684e+000 1.400000e+001
      endloop
   endfacet
   facet normal 7.826978e-001 -6.224019e-001 -9.585284e-017
      outer loop
         vertex 9.226934e+000 1.822684e+000 1.400000e+001
         vertex 9.226934e+000 1.822684e+000 1.559056e-016
         vertex 9.604380e+000 2.317105e+000 1.096818e-016
      endloop
   endfacet
   facet normal 8.067001e-001 -5.909610e-001 -9.879227e-017
      outer loop
         vertex 9.226934e+000 1.822684e+000 1.400000e+001
         vertex 9.604380e+000 2.317105e+000 1.096818e-016
         vertex 9.604380e+000 2.317105e+000 1.400000e+001
      endloop
   endfacet
   facet normal 8.508176e-001 -5.254611e-001 -1.041951e-016
      outer loop
         vertex 9.604380e+000 2.317105e+000 1.400000e+001
         vertex 9.604380e+000 2.317105e+000 1.096818e-016
         vertex 9.920699e+000 2.852696e+000 7.094383e-017
      endloop
   endfacet
   facet normal 8.709328e-001 -4.914021e-001 -1.066585e-016
      outer loop
         vertex 9.604380e+000 2.317105e+000 1.400000e+001
         vertex 9.920699e+000 2.852696e+000 7.094383e-017
         vertex 9.920699e+000 2.852696e+000 1.400000e+001
      endloop
   endfacet
   facet normal 9.069937e-001 -4.211441e-001 -1.110747e-016
      outer loop
         vertex 9.920699e+000 2.852696e+000 1.400000e+001
         vertex 9.920699e+000 2.852696e+000 7.094383e-017
         vertex 1.017145e+001 3.421941e+000 4.023538e-017
      endloop
   endfacet
   facet normal 9.229395e-001 -3.849451e-001 -1.130275e-016
      outer loop
         vertex 9.920699e+000 2.852696e+000 1.400000e+001
         vertex 1.017145e+001 3.421941e+000 4.023538e-017
         vertex 1.017145e+001 3.421941e+000 1.400000e+001
      endloop
   endfacet
   facet normal 9.504377e-001 -3.109151e-001 -1.163950e-016
      outer loop
         vertex 1.017145e+001 3.421941e+000 1.400000e+001
         vertex 1.017145e+001 3.421941e+000 4.023538e-017
         vertex 1.035312e+001 4.016848e+000 1.798758e-017
      endloop
   endfacet
   facet normal 9.619902e-001 -2.730842e-001 -1.178098e-016
      outer loop
         vertex 1.017145e+001 3.421941e+000 1.400000e+001
         vertex 1.035312e+001 4.016848e+000 1.798758e-017
         vertex 1.035312e+001 4.016848e+000 1.400000e+001
      endloop
   endfacet
   facet normal 9.805396e-001 -1.963215e-001 -1.200815e-016
      outer loop
         vertex 1.035312e+001 4.016848e+000 1.400000e+001
         vertex 1.035312e+001 4.016848e+000 1.798758e-017
         vertex 1.046315e+001 4.629066e+000 4.512731e-018
      endloop
   endfacet
   facet normal 9.875365e-001 -1.573898e-001 -1.209383e-016
      outer loop
         vertex 1.035312e+001 4.016848e+000 1.400000e+001
         vertex 1.046315e+001 4.629066e+000 4.512731e-018
         vertex 1.046315e+001 4.629066e+000 1.400000e+001
      endloop
   endfacet
   facet normal 9.968768e-001 -7.897206e-002 -1.220822e-016
      outer loop
         vertex 1.046315e+001 4.629066e+000 1.400000e+001
         vertex 1.046315e+001 4.629066e+000 4.512731e-018
         vertex 1.050000e+001 5.250000e+000 9.629650e-032
      endloop
   endfacet
   facet normal 9.992201e-001 -3.948603e-002 -1.223692e-016
      outer loop
         vertex 1.046315e+001 4.629066e+000 1.400000e+001
         vertex 1.050000e+001 5.250000e+000 9.629650e-032
         vertex 1.050000e+001 5.250000e+000 1.400000e+001
      endloop
   endfacet
   facet normal 9.992201e-001 3.948603e-002 -1.223692e-016
      outer loop
         vertex 1.050000e+001 5.250000e+000 1.400000e+001
         vertex 1.050000e+001 5.250000e+000 9.629650e-032
         vertex 1.046315e+001 5.870934e+000 4.512731e-018
      endloop
   endfacet
   facet normal -1.224647e-016 0.000000e+000 -1.000000e+000
      outer loop
         vertex 3.157283e+000 4.880997e+000 7.078724e-016
         vertex 9.220559e-003 4.938987e+000 1.093399e-015
         vertex 3.125000e+000 5.250000e+000 7.118259e-016
      endloop
   endfacet
   facet normal -1.224647e-016 0.000000e+000 -1.000000e+000
      outer loop
         vertex 3.125000e+000 5.250000e+000 7.118259e-016
         vertex 9.220559e-003 4.938987e+000 1.093399e-015
         vertex 9.220559e-003 5.561013e+000 1.093399e-015
      endloop
   endfacet
   facet normal -1.224647e-016 0.000000e+000 -1.000000e+000
      outer loop
         vertex 3.125000e+000 5.250000e+000 7.118259e-016
         vertex 9.220559e-003 5.561013e+000 1.093399e-015
         vertex 3.157283e+000 5.619002e+000 7.078724e-016
      endloop
   endfacet
   facet normal -1.224647e-016 0.000000e+000 -1.000000e+000
      outer loop
         vertex 3.157283e+000 5.619002e+000 7.078724e-016
         vertex 9.220559e-003 5.561013e+000 1.093399e-015
         vertex 8.278945e-002 6.178674e+000 1.084389e-015
      endloop
   endfacet
   facet normal -1.224647e-016 0.000000e+000 -1.000000e+000
      outer loop
         vertex 3.157283e+000 5.619002e+000 7.078724e-016
         vertex 8.278945e-002 6.178674e+000 1.084389e-015
         vertex 3.253153e+000 5.976793e+000 6.961318e-016
      endloop
   endfacet
   facet normal -1.224647e-016 0.000000e+000 -1.000000e+000
      outer loop
         vertex 4.523207e+000 3.253153e+000 5.405950e-016
         vertex 2.992158e+000 5.103112e-001 7.280944e-016
         vertex 4.187500e+000 3.409696e+000 5.817072e-016
      endloop
   endfacet
   facet normal -1.224647e-016 0.000000e+000 -1.000000e+000
      outer loop
         vertex 4.187500e+000 3.409696e+000 5.817072e-016
         vertex 2.992158e+000 5.103112e-001 7.280944e-016
         vertex 2.447427e+000 8.106208e-001 7.948047e-016
      endloop
   endfacet
   facet normal -1.224647e-016 0.000000e+000 -1.000000e+000
      outer loop
         vertex 4.187500e+000 3.409696e+000 5.817072e-016
         vertex 2.447427e+000 8.106208e-001 7.948047e-016
         vertex 3.884076e+000 3.622156e+000 6.188659e-016
      endloop
   endfacet
   facet normal -1.224647e-016 0.000000e+000 -1.000000e+000
      outer loop
         vertex 3.409696e+000 4.187500e+000 6.769607e-016
         vertex 4.454856e-001 3.133602e+000 1.039972e-015
         vertex 3.253153e+000 4.523207e+000 6.961318e-016
      endloop
   endfacet
   facet normal -1.224647e-016 0.000000e+000 -1.000000e+000
      outer loop
         vertex 3.253153e+000 4.523207e+000 6.961318e-016
         vertex 4.454856e-001 3.133602e+000 1.039972e-015
         vertex 2.288949e-001 3.716702e+000 1.066497e-015
      endloop
   endfacet
   facet normal -1.224647e-016 0.000000e+000 -1.000000e+000
      outer loop
         vertex 3.253153e+000 4.523207e+000 6.961318e-016
         vertex 2.288949e-001 3.716702e+000 1.066497e-015
         vertex 3.157283e+000 4.880997e+000 7.078724e-016
      endloop
   endfacet
   facet normal -1.224647e-016 0.000000e+000 -1.000000e+000
      outer loop
         vertex 3.157283e+000 4.880997e+000 7.078724e-016
         vertex 2.288949e-001 3.716702e+000 1.066497e-015
         vertex 8.278945e-002 4.321326e+000 1.084389e-015
      endloop
   endfacet
   facet normal -1.224647e-016 0.000000e+000 -1.000000e+000
      outer loop
         vertex 3.157283e+000 4.880997e+000 7.078724e-016
         vertex 8.278945e-002 4.321326e+000 1.084389e-015
         vertex 9.220559e-003 4.938987e+000 1.093399e-015
      endloop
   endfacet
   facet normal -1.224647e-016 0.000000e+000 -1.000000e+000
      outer loop
         vertex 2.447427e+000 8.106208e-001 7.948047e-016
         vertex 1.942039e+000 1.173249e+000 8.566969e-016
         vertex 3.884076e+000 3.622156e+000 6.188659e-016
      endloop
   endfacet
   facet normal -1.224647e-016 0.000000e+000 -1.000000e+000
      outer loop
         vertex 3.884076e+000 3.622156e+000 6.188659e-016
         vertex 1.942039e+000 1.173249e+000 8.566969e-016
         vertex 1.483087e+000 1.593107e+000 9.129023e-016
      endloop
   endfacet
   facet normal -1.224647e-016 0.000000e+000 -1.000000e+000
      outer loop
         vertex 3.884076e+000 3.622156e+000 6.188659e-016
         vertex 1.483087e+000 1.593107e+000 9.129023e-016
         vertex 3.622156e+000 3.884076e+000 6.509420e-016
      endloop
   endfacet
   facet normal -1.224647e-016 0.000000e+000 -1.000000e+000
      outer loop
         vertex 3.622156e+000 3.884076e+000 6.509420e-016
         vertex 1.483087e+000 1.593107e+000 9.129023e-016
         vertex 1.077014e+000 2.064299e+000 9.626319e-016
      endloop
   endfacet
   facet normal -1.224647e-016 0.000000e+000 -1.000000e+000
      outer loop
         vertex 3.622156e+000 3.884076e+000 6.509420e-016
         vertex 1.077014e+000 2.064299e+000 9.626319e-016
         vertex 3.409696e+000 4.187500e+000 6.769607e-016
      endloop
   endfacet
   facet normal -1.224647e-016 0.000000e+000 -1.000000e+000
      outer loop
         vertex 3.409696e+000 4.187500e+000 6.769607e-016
         vertex 1.077014e+000 2.064299e+000 9.626319e-016
         vertex 7.295208e-001 2.580211e+000 1.005188e-015
      endloop
   endfacet
   facet normal -1.224647e-016 0.000000e+000 -1.000000e+000
      outer loop
         vertex 3.409696e+000 4.187500e+000 6.769607e-016
         vertex 7.295208e-001 2.580211e+000 1.005188e-015
         vertex 4.454856e-001 3.133602e+000 1.039972e-015
      endloop
   endfacet
   facet normal -1.224647e-016 0.000000e+000 -1.000000e+000
      outer loop
         vertex 5.250000e+000 3.125000e+000 4.515885e-016
         vertex 4.783821e+000 2.073823e-002 5.086789e-016
         vertex 4.880997e+000 3.157283e+000 4.967783e-016
      endloop
   endfacet
   facet normal -1.224647e-016 0.000000e+000 -1.000000e+000
      outer loop
         vertex 4.880997e+000 3.157283e+000 4.967783e-016
         vertex 4.783821e+000 2.073823e-002 5.086789e-016
         vertex 4.168612e+000 1.125783e-001 5.840203e-016
      endloop
   endfacet
   facet normal -1.224647e-016 0.000000e+000 -1.000000e+000
      outer loop
         vertex 4.880997e+000 3.157283e+000 4.967783e-016
         vertex 4.168612e+000 1.125783e-001 5.840203e-016
         vertex 4.523207e+000 3.253153e+000 5.405950e-016
      endloop
   endfacet
   facet normal -1.224647e-016 0.000000e+000 -1.000000e+000
      outer loop
         vertex 4.523207e+000 3.253153e+000 5.405950e-016
         vertex 4.168612e+000 1.125783e-001 5.840203e-016
         vertex 3.568583e+000 2.765367e-001 6.575027e-016
      endloop
   endfacet
   facet normal -1.224647e-016 0.000000e+000 -1.000000e+000
      outer loop
         vertex 4.523207e+000 3.253153e+000 5.405950e-016
         vertex 3.568583e+000 2.765367e-001 6.575027e-016
         vertex 2.992158e+000 5.103112e-001 7.280944e-016
      endloop
   endfacet
   facet normal -1.224647e-016 0.000000e+000 -1.000000e+000
      outer loop
         vertex 5.976793e+000 3.253153e+000 3.625821e-016
         vertex 6.633832e+000 1.856633e-001 2.821179e-016
         vertex 5.619002e+000 3.157283e+000 4.063988e-016
      endloop
   endfacet
   facet normal -1.224647e-016 0.000000e+000 -1.000000e+000
      outer loop
         vertex 5.619002e+000 3.157283e+000 4.063988e-016
         vertex 6.633832e+000 1.856633e-001 2.821179e-016
         vertex 6.025145e+000 5.753897e-002 3.566607e-016
      endloop
   endfacet
   facet normal -1.224647e-016 0.000000e+000 -1.000000e+000
      outer loop
         vertex 5.619002e+000 3.157283e+000 4.063988e-016
         vertex 6.025145e+000 5.753897e-002 3.566607e-016
         vertex 5.250000e+000 3.125000e+000 4.515885e-016
      endloop
   endfacet
   facet normal -1.224647e-016 0.000000e+000 -1.000000e+000
      outer loop
         vertex 5.250000e+000 3.125000e+000 4.515885e-016
         vertex 6.025145e+000 5.753897e-002 3.566607e-016
         vertex 5.405575e+000 2.305489e-003 4.325361e-016
      endloop
   endfacet
   facet normal -1.224647e-016 0.000000e+000 -1.000000e+000
      outer loop
         vertex 5.250000e+000 3.125000e+000 4.515885e-016
         vertex 5.405575e+000 2.305489e-003 4.325361e-016
         vertex 4.783821e+000 2.073823e-002 5.086789e-016
      endloop
   endfacet
   facet normal -1.224647e-016 0.000000e+000 -1.000000e+000
      outer loop
         vertex 6.615924e+000 3.622156e+000 2.843111e-016
         vertex 8.310642e+000 9.844438e-001 7.676793e-017
         vertex 6.312500e+000 3.409696e+000 3.214698e-016
      endloop
   endfacet
   facet normal -1.224647e-016 0.000000e+000 -1.000000e+000
      outer loop
         vertex 6.312500e+000 3.409696e+000 3.214698e-016
         vertex 8.310642e+000 9.844438e-001 7.676793e-017
         vertex 7.784659e+000 6.523914e-001 1.411823e-016
      endloop
   endfacet
   facet normal -1.224647e-016 0.000000e+000 -1.000000e+000
      outer loop
         vertex 6.312500e+000 3.409696e+000 3.214698e-016
         vertex 7.784659e+000 6.523914e-001 1.411823e-016
         vertex 5.976793e+000 3.253153e+000 3.625821e-016
      endloop
   endfacet
   facet normal -1.224647e-016 0.000000e+000 -1.000000e+000
      outer loop
         vertex 5.976793e+000 3.253153e+000 3.625821e-016
         vertex 7.784659e+000 6.523914e-001 1.411823e-016
         vertex 7.223095e+000 3.848793e-001 2.099541e-016
      endloop
   endfacet
   facet normal -1.224647e-016 0.000000e+000 -1.000000e+000
      outer loop
         vertex 5.976793e+000 3.253153e+000 3.625821e-016
         vertex 7.223095e+000 3.848793e-001 2.099541e-016
         vertex 6.633832e+000 1.856633e-001 2.821179e-016
      endloop
   endfacet
   facet normal -1.224647e-016 0.000000e+000 -1.000000e+000
      outer loop
         vertex 7.246847e+000 5.976793e+000 2.070453e-016
         vertex 1.035312e+001 6.483151e+000 -1.733635e-016
         vertex 7.342717e+000 5.619002e+000 1.953047e-016
      endloop
   endfacet
   facet normal -1.224647e-016 0.000000e+000 -1.000000e+000
      outer loop
         vertex 7.342717e+000 5.619002e+000 1.953047e-016
         vertex 1.035312e+001 6.483151e+000 -1.733635e-016
         vertex 1.046315e+001 5.870934e+000 -1.868383e-016
      endloop
   endfacet
   facet normal -1.224647e-016 0.000000e+000 -1.000000e+000
      outer loop
         vertex 7.342717e+000 5.619002e+000 1.953047e-016
         vertex 1.046315e+001 5.870934e+000 -1.868383e-016
         vertex 7.375000e+000 5.250000e+000 1.913511e-016
      endloop
   endfacet
   facet normal -1.224647e-016 0.000000e+000 -1.000000e+000
      outer loop
         vertex 7.375000e+000 5.250000e+000 1.913511e-016
         vertex 1.046315e+001 5.870934e+000 -1.868383e-016
         vertex 1.050000e+001 5.250000e+000 -1.913511e-016
      endloop
   endfacet
   facet normal -1.224647e-016 0.000000e+000 -1.000000e+000
      outer loop
         vertex 7.375000e+000 5.250000e+000 1.913511e-016
         vertex 1.050000e+001 5.250000e+000 -1.913511e-016
         vertex 7.342717e+000 4.880997e+000 1.953047e-016
      endloop
   endfacet
   facet normal -1.224647e-016 0.000000e+000 -1.000000e+000
      outer loop
         vertex 6.877844e+000 6.615924e+000 2.522351e-016
         vertex 9.604380e+000 8.182896e+000 -8.166923e-017
         vertex 7.090304e+000 6.312500e+000 2.262163e-016
      endloop
   endfacet
   facet normal -1.224647e-016 0.000000e+000 -1.000000e+000
      outer loop
         vertex 7.090304e+000 6.312500e+000 2.262163e-016
         vertex 9.604380e+000 8.182896e+000 -8.166923e-017
         vertex 9.920699e+000 7.647304e+000 -1.204072e-016
      endloop
   endfacet
   facet normal -1.224647e-016 0.000000e+000 -1.000000e+000
      outer loop
         vertex 7.090304e+000 6.312500e+000 2.262163e-016
         vertex 9.920699e+000 7.647304e+000 -1.204072e-016
         vertex 7.246847e+000 5.976793e+000 2.070453e-016
      endloop
   endfacet
   facet normal -1.224647e-016 0.000000e+000 -1.000000e+000
      outer loop
         vertex 7.246847e+000 5.976793e+000 2.070453e-016
         vertex 9.920699e+000 7.647304e+000 -1.204072e-016
         vertex 1.017145e+001 7.078059e+000 -1.511157e-016
      endloop
   endfacet
   facet normal -1.224647e-016 0.000000e+000 -1.000000e+000
      outer loop
         vertex 7.246847e+000 5.976793e+000 2.070453e-016
         vertex 1.017145e+001 7.078059e+000 -1.511157e-016
         vertex 1.035312e+001 6.483151e+000 -1.733635e-016
      endloop
   endfacet
   facet normal -1.224647e-016 0.000000e+000 -1.000000e+000
      outer loop
         vertex 6.312500e+000 7.090304e+000 3.214698e-016
         vertex 8.310642e+000 9.515555e+000 7.676793e-017
         vertex 6.615924e+000 6.877844e+000 2.843111e-016
      endloop
   endfacet
   facet normal -1.224647e-016 0.000000e+000 -1.000000e+000
      outer loop
         vertex 6.615924e+000 6.877844e+000 2.843111e-016
         vertex 8.310642e+000 9.515555e+000 7.676793e-017
         vertex 8.793660e+000 9.123624e+000 1.761523e-017
      endloop
   endfacet
   facet normal -1.224647e-016 0.000000e+000 -1.000000e+000
      outer loop
         vertex 6.615924e+000 6.877844e+000 2.843111e-016
         vertex 8.793660e+000 9.123624e+000 1.761523e-017
         vertex 6.877844e+000 6.615924e+000 2.522351e-016
      endloop
   endfacet
   facet normal -1.224647e-016 0.000000e+000 -1.000000e+000
      outer loop
         vertex 6.877844e+000 6.615924e+000 2.522351e-016
         vertex 8.793660e+000 9.123624e+000 1.761523e-017
         vertex 9.226934e+000 8.677316e+000 -3.544545e-017
      endloop
   endfacet
   facet normal -1.224647e-016 0.000000e+000 -1.000000e+000
      outer loop
         vertex 6.877844e+000 6.615924e+000 2.522351e-016
         vertex 9.226934e+000 8.677316e+000 -3.544545e-017
         vertex 9.604380e+000 8.182896e+000 -8.166923e-017
      endloop
   endfacet
   facet normal -1.224647e-016 0.000000e+000 -1.000000e+000
      outer loop
         vertex 4.187500e+000 7.090304e+000 5.817072e-016
         vertex 2.992158e+000 9.989688e+000 7.280944e-016
         vertex 4.523207e+000 7.246847e+000 5.405950e-016
      endloop
   endfacet
   facet normal -1.224647e-016 0.000000e+000 -1.000000e+000
      outer loop
         vertex 4.523207e+000 7.246847e+000 5.405950e-016
         vertex 2.992158e+000 9.989688e+000 7.280944e-016
         vertex 3.568583e+000 1.022346e+001 6.575027e-016
      endloop
   endfacet
   facet normal -1.224647e-016 0.000000e+000 -1.000000e+000
      outer loop
         vertex 4.523207e+000 7.246847e+000 5.405950e-016
         vertex 3.568583e+000 1.022346e+001 6.575027e-016
         vertex 4.880997e+000 7.342717e+000 4.967783e-016
      endloop
   endfacet
   facet normal -1.224647e-016 0.000000e+000 -1.000000e+000
      outer loop
         vertex 7.090304e+000 4.187500e+000 2.262163e-016
         vertex 9.604380e+000 2.317105e+000 -8.166923e-017
         vertex 6.877844e+000 3.884076e+000 2.522351e-016
      endloop
   endfacet
   facet normal -1.224647e-016 0.000000e+000 -1.000000e+000
      outer loop
         vertex 6.877844e+000 3.884076e+000 2.522351e-016
         vertex 9.604380e+000 2.317105e+000 -8.166923e-017
         vertex 9.226934e+000 1.822684e+000 -3.544545e-017
      endloop
   endfacet
   facet normal -1.224647e-016 0.000000e+000 -1.000000e+000
      outer loop
         vertex 6.877844e+000 3.884076e+000 2.522351e-016
         vertex 9.226934e+000 1.822684e+000 -3.544545e-017
         vertex 6.615924e+000 3.622156e+000 2.843111e-016
      endloop
   endfacet
   facet normal -1.224647e-016 0.000000e+000 -1.000000e+000
      outer loop
         vertex 6.615924e+000 3.622156e+000 2.843111e-016
         vertex 9.226934e+000 1.822684e+000 -3.544545e-017
         vertex 8.793660e+000 1.376375e+000 1.761523e-017
      endloop
   endfacet
   facet normal -1.224647e-016 0.000000e+000 -1.000000e+000
      outer loop
         vertex 6.615924e+000 3.622156e+000 2.843111e-016
         vertex 8.793660e+000 1.376375e+000 1.761523e-017
         vertex 8.310642e+000 9.844438e-001 7.676793e-017
      endloop
   endfacet
   facet normal -1.224647e-016 0.000000e+000 -1.000000e+000
      outer loop
         vertex 1.050000e+001 5.250000e+000 -1.913511e-016
         vertex 1.046315e+001 4.629066e+000 -1.868383e-016
         vertex 7.342717e+000 4.880997e+000 1.953047e-016
      endloop
   endfacet
   facet normal -1.224647e-016 0.000000e+000 -1.000000e+000
      outer loop
         vertex 7.342717e+000 4.880997e+000 1.953047e-016
         vertex 1.046315e+001 4.629066e+000 -1.868383e-016
         vertex 1.035312e+001 4.016848e+000 -1.733635e-016
      endloop
   endfacet
   facet normal -1.224647e-016 0.000000e+000 -1.000000e+000
      outer loop
         vertex 7.342717e+000 4.880997e+000 1.953047e-016
         vertex 1.035312e+001 4.016848e+000 -1.733635e-016
         vertex 7.246847e+000 4.523207e+000 2.070453e-016
      endloop
   endfacet
   facet normal -1.224647e-016 0.000000e+000 -1.000000e+000
      outer loop
         vertex 7.246847e+000 4.523207e+000 2.070453e-016
         vertex 1.035312e+001 4.016848e+000 -1.733635e-016
         vertex 1.017145e+001 3.421941e+000 -1.511157e-016
      endloop
   endfacet
   facet normal -1.224647e-016 0.000000e+000 -1.000000e+000
      outer loop
         vertex 7.246847e+000 4.523207e+000 2.070453e-016
         vertex 1.017145e+001 3.421941e+000 -1.511157e-016
         vertex 7.090304e+000 4.187500e+000 2.262163e-016
      endloop
   endfacet
   facet normal -1.224647e-016 0.000000e+000 -1.000000e+000
      outer loop
         vertex 7.090304e+000 4.187500e+000 2.262163e-016
         vertex 1.017145e+001 3.421941e+000 -1.511157e-016
         vertex 9.920699e+000 2.852696e+000 -1.204072e-016
      endloop
   endfacet
   facet normal -1.224647e-016 0.000000e+000 -1.000000e+000
      outer loop
         vertex 7.090304e+000 4.187500e+000 2.262163e-016
         vertex 9.920699e+000 2.852696e+000 -1.204072e-016
         vertex 9.604380e+000 2.317105e+000 -8.166923e-017
      endloop
   endfacet
   facet normal -1.224647e-016 0.000000e+000 -1.000000e+000
      outer loop
         vertex 3.568583e+000 1.022346e+001 6.575027e-016
         vertex 4.168612e+000 1.038742e+001 5.840203e-016
         vertex 4.880997e+000 7.342717e+000 4.967783e-016
      endloop
   endfacet
   facet normal -1.224647e-016 0.000000e+000 -1.000000e+000
      outer loop
         vertex 4.880997e+000 7.342717e+000 4.967783e-016
         vertex 4.168612e+000 1.038742e+001 5.840203e-016
         vertex 4.783821e+000 1.047926e+001 5.086789e-016
      endloop
   endfacet
   facet normal -1.224647e-016 0.000000e+000 -1.000000e+000
      outer loop
         vertex 4.880997e+000 7.342717e+000 4.967783e-016
         vertex 4.783821e+000 1.047926e+001 5.086789e-016
         vertex 5.250000e+000 7.375000e+000 4.515885e-016
      endloop
   endfacet
   facet normal -1.224647e-016 0.000000e+000 -1.000000e+000
      outer loop
         vertex 5.250000e+000 7.375000e+000 4.515885e-016
         vertex 4.783821e+000 1.047926e+001 5.086789e-016
         vertex 5.405575e+000 1.049769e+001 4.325361e-016
      endloop
   endfacet
   facet normal -1.224647e-016 0.000000e+000 -1.000000e+000
      outer loop
         vertex 5.250000e+000 7.375000e+000 4.515885e-016
         vertex 5.405575e+000 1.049769e+001 4.325361e-016
         vertex 5.619002e+000 7.342717e+000 4.063988e-016
      endloop
   endfacet
   facet normal -1.224647e-016 0.000000e+000 -1.000000e+000
      outer loop
         vertex 8.278945e-002 6.178674e+000 1.084389e-015
         vertex 2.288949e-001 6.783298e+000 1.066497e-015
         vertex 3.253153e+000 5.976793e+000 6.961318e-016
      endloop
   endfacet
   facet normal -1.224647e-016 0.000000e+000 -1.000000e+000
      outer loop
         vertex 3.253153e+000 5.976793e+000 6.961318e-016
         vertex 2.288949e-001 6.783298e+000 1.066497e-015
         vertex 4.454856e-001 7.366398e+000 1.039972e-015
      endloop
   endfacet
   facet normal -1.224647e-016 0.000000e+000 -1.000000e+000
      outer loop
         vertex 3.253153e+000 5.976793e+000 6.961318e-016
         vertex 4.454856e-001 7.366398e+000 1.039972e-015
         vertex 3.409696e+000 6.312500e+000 6.769607e-016
      endloop
   endfacet
   facet normal -1.224647e-016 0.000000e+000 -1.000000e+000
      outer loop
         vertex 3.409696e+000 6.312500e+000 6.769607e-016
         vertex 4.454856e-001 7.366398e+000 1.039972e-015
         vertex 7.295208e-001 7.919788e+000 1.005188e-015
      endloop
   endfacet
   facet normal -1.224647e-016 0.000000e+000 -1.000000e+000
      outer loop
         vertex 3.409696e+000 6.312500e+000 6.769607e-016
         vertex 7.295208e-001 7.919788e+000 1.005188e-015
         vertex 3.622156e+000 6.615924e+000 6.509420e-016
      endloop
   endfacet
   facet normal -1.224647e-016 0.000000e+000 -1.000000e+000
      outer loop
         vertex 5.405575e+000 1.049769e+001 4.325361e-016
         vertex 6.025145e+000 1.044246e+001 3.566607e-016
         vertex 5.619002e+000 7.342717e+000 4.063988e-016
      endloop
   endfacet
   facet normal -1.224647e-016 0.000000e+000 -1.000000e+000
      outer loop
         vertex 5.619002e+000 7.342717e+000 4.063988e-016
         vertex 6.025145e+000 1.044246e+001 3.566607e-016
         vertex 6.633832e+000 1.031434e+001 2.821179e-016
      endloop
   endfacet
   facet normal -1.224647e-016 0.000000e+000 -1.000000e+000
      outer loop
         vertex 5.619002e+000 7.342717e+000 4.063988e-016
         vertex 6.633832e+000 1.031434e+001 2.821179e-016
         vertex 5.976793e+000 7.246847e+000 3.625821e-016
      endloop
   endfacet
   facet normal -1.224647e-016 0.000000e+000 -1.000000e+000
      outer loop
         vertex 5.976793e+000 7.246847e+000 3.625821e-016
         vertex 6.633832e+000 1.031434e+001 2.821179e-016
         vertex 7.223095e+000 1.011512e+001 2.099541e-016
      endloop
   endfacet
   facet normal -1.224647e-016 0.000000e+000 -1.000000e+000
      outer loop
         vertex 5.976793e+000 7.246847e+000 3.625821e-016
         vertex 7.223095e+000 1.011512e+001 2.099541e-016
         vertex 6.312500e+000 7.090304e+000 3.214698e-016
      endloop
   endfacet
   facet normal -1.224647e-016 0.000000e+000 -1.000000e+000
      outer loop
         vertex 6.312500e+000 7.090304e+000 3.214698e-016
         vertex 7.223095e+000 1.011512e+001 2.099541e-016
         vertex 7.784659e+000 9.847609e+000 1.411823e-016
      endloop
   endfacet
   facet normal -1.224647e-016 0.000000e+000 -1.000000e+000
      outer loop
         vertex 6.312500e+000 7.090304e+000 3.214698e-016
         vertex 7.784659e+000 9.847609e+000 1.411823e-016
         vertex 8.310642e+000 9.515555e+000 7.676793e-017
      endloop
   endfacet
   facet normal -1.224647e-016 0.000000e+000 -1.000000e+000
      outer loop
         vertex 7.295208e-001 7.919788e+000 1.005188e-015
         vertex 1.077014e+000 8.435701e+000 9.626319e-016
         vertex 3.622156e+000 6.615924e+000 6.509420e-016
      endloop
   endfacet
   facet normal -1.224647e-016 0.000000e+000 -1.000000e+000
      outer loop
         vertex 3.622156e+000 6.615924e+000 6.509420e-016
         vertex 1.077014e+000 8.435701e+000 9.626319e-016
         vertex 1.483087e+000 8.906893e+000 9.129023e-016
      endloop
   endfacet
   facet normal -1.224647e-016 0.000000e+000 -1.000000e+000
      outer loop
         vertex 3.622156e+000 6.615924e+000 6.509420e-016
         vertex 1.483087e+000 8.906893e+000 9.129023e-016
         vertex 3.884076e+000 6.877844e+000 6.188659e-016
      endloop
   endfacet
   facet normal -1.224647e-016 0.000000e+000 -1.000000e+000
      outer loop
         vertex 3.884076e+000 6.877844e+000 6.188659e-016
         vertex 1.483087e+000 8.906893e+000 9.129023e-016
         vertex 1.942039e+000 9.326751e+000 8.566969e-016
      endloop
   endfacet
   facet normal -1.224647e-016 0.000000e+000 -1.000000e+000
      outer loop
         vertex 3.884076e+000 6.877844e+000 6.188659e-016
         vertex 1.942039e+000 9.326751e+000 8.566969e-016
         vertex 4.187500e+000 7.090304e+000 5.817072e-016
      endloop
   endfacet
   facet normal -1.224647e-016 0.000000e+000 -1.000000e+000
      outer loop
         vertex 4.187500e+000 7.090304e+000 5.817072e-016
         vertex 1.942039e+000 9.326751e+000 8.566969e-016
         vertex 2.447427e+000 9.689380e+000 7.948047e-016
      endloop
   endfacet
   facet normal -1.224647e-016 0.000000e+000 -1.000000e+000
      outer loop
         vertex 4.187500e+000 7.090304e+000 5.817072e-016
         vertex 2.447427e+000 9.689380e+000 7.948047e-016
         vertex 2.992158e+000 9.989688e+000 7.280944e-016
      endloop
   endfacet
   facet normal 0.000000e+000 0.000000e+000 1.000000e+000
      outer loop
         vertex 6.312500e+000 3.409696e+000 1.400000e+001
         vertex 8.310642e+000 9.844438e-001 1.400000e+001
         vertex 6.615924e+000 3.622156e+000 1.400000e+001
      endloop
   endfacet
   facet normal 0.000000e+000 0.000000e+000 1.000000e+000
      outer loop
         vertex 6.615924e+000 3.622156e+000 1.400000e+001
         vertex 8.310642e+000 9.844438e-001 1.400000e+001
         vertex 8.793660e+000 1.376375e+000 1.400000e+001
      endloop
   endfacet
   facet normal 0.000000e+000 0.000000e+000 1.000000e+000
      outer loop
         vertex 6.615924e+000 3.622156e+000 1.400000e+001
         vertex 8.793660e+000 1.376375e+000 1.400000e+001
         vertex 6.877844e+000 3.884076e+000 1.400000e+001
      endloop
   endfacet
   facet normal 0.000000e+000 0.000000e+000 1.000000e+000
      outer loop
         vertex 5.619002e+000 3.157283e+000 1.400000e+001
         vertex 6.633832e+000 1.856633e-001 1.400000e+001
         vertex 5.976793e+000 3.253153e+000 1.400000e+001
      endloop
   endfacet
   facet normal 0.000000e+000 0.000000e+000 1.000000e+000
      outer loop
         vertex 5.976793e+000 3.253153e+000 1.400000e+001
         vertex 6.633832e+000 1.856633e-001 1.400000e+001
         vertex 7.223095e+000 3.848793e-001 1.400000e+001
      endloop
   endfacet
   facet normal 0.000000e+000 0.000000e+000 1.000000e+000
      outer loop
         vertex 5.976793e+000 3.253153e+000 1.400000e+001
         vertex 7.223095e+000 3.848793e-001 1.400000e+001
         vertex 6.312500e+000 3.409696e+000 1.400000e+001
      endloop
   endfacet
   facet normal 0.000000e+000 0.000000e+000 1.000000e+000
      outer loop
         vertex 6.312500e+000 3.409696e+000 1.400000e+001
         vertex 7.223095e+000 3.848793e-001 1.400000e+001
         vertex 7.784659e+000 6.523914e-001 1.400000e+001
      endloop
   endfacet
   facet normal 0.000000e+000 0.000000e+000 1.000000e+000
      outer loop
         vertex 6.312500e+000 3.409696e+000 1.400000e+001
         vertex 7.784659e+000 6.523914e-001 1.400000e+001
         vertex 8.310642e+000 9.844438e-001 1.400000e+001
      endloop
   endfacet
   facet normal 0.000000e+000 0.000000e+000 1.000000e+000
      outer loop
         vertex 7.246847e+000 4.523207e+000 1.400000e+001
         vertex 1.035312e+001 4.016848e+000 1.400000e+001
         vertex 7.342717e+000 4.880997e+000 1.400000e+001
      endloop
   endfacet
   facet normal 0.000000e+000 0.000000e+000 1.000000e+000
      outer loop
         vertex 7.342717e+000 4.880997e+000 1.400000e+001
         vertex 1.035312e+001 4.016848e+000 1.400000e+001
         vertex 1.046315e+001 4.629066e+000 1.400000e+001
      endloop
   endfacet
   facet normal 0.000000e+000 0.000000e+000 1.000000e+000
      outer loop
         vertex 7.342717e+000 4.880997e+000 1.400000e+001
         vertex 1.046315e+001 4.629066e+000 1.400000e+001
         vertex 7.375000e+000 5.250000e+000 1.400000e+001
      endloop
   endfacet
   facet normal 0.000000e+000 0.000000e+000 1.000000e+000
      outer loop
         vertex 7.375000e+000 5.250000e+000 1.400000e+001
         vertex 1.046315e+001 4.629066e+000 1.400000e+001
         vertex 1.050000e+001 5.250000e+000 1.400000e+001
      endloop
   endfacet
   facet normal 0.000000e+000 0.000000e+000 1.000000e+000
      outer loop
         vertex 7.375000e+000 5.250000e+000 1.400000e+001
         vertex 1.050000e+001 5.250000e+000 1.400000e+001
         vertex 7.342717e+000 5.619002e+000 1.400000e+001
      endloop
   endfacet
   facet normal 0.000000e+000 0.000000e+000 1.000000e+000
      outer loop
         vertex 4.187500e+000 3.409696e+000 1.400000e+001
         vertex 2.992158e+000 5.103112e-001 1.400000e+001
         vertex 4.523207e+000 3.253153e+000 1.400000e+001
      endloop
   endfacet
   facet normal 0.000000e+000 0.000000e+000 1.000000e+000
      outer loop
         vertex 4.523207e+000 3.253153e+000 1.400000e+001
         vertex 2.992158e+000 5.103112e-001 1.400000e+001
         vertex 3.568583e+000 2.765367e-001 1.400000e+001
      endloop
   endfacet
   facet normal 0.000000e+000 0.000000e+000 1.000000e+000
      outer loop
         vertex 4.523207e+000 3.253153e+000 1.400000e+001
         vertex 3.568583e+000 2.765367e-001 1.400000e+001
         vertex 4.880997e+000 3.157283e+000 1.400000e+001
      endloop
   endfacet
   facet normal 0.000000e+000 0.000000e+000 1.000000e+000
      outer loop
         vertex 3.622156e+000 3.884076e+000 1.400000e+001
         vertex 1.483087e+000 1.593107e+000 1.400000e+001
         vertex 3.884076e+000 3.622156e+000 1.400000e+001
      endloop
   endfacet
   facet normal 0.000000e+000 0.000000e+000 1.000000e+000
      outer loop
         vertex 3.884076e+000 3.622156e+000 1.400000e+001
         vertex 1.483087e+000 1.593107e+000 1.400000e+001
         vertex 1.942039e+000 1.173249e+000 1.400000e+001
      endloop
   endfacet
   facet normal 0.000000e+000 0.000000e+000 1.000000e+000
      outer loop
         vertex 3.884076e+000 3.622156e+000 1.400000e+001
         vertex 1.942039e+000 1.173249e+000 1.400000e+001
         vertex 4.187500e+000 3.409696e+000 1.400000e+001
      endloop
   endfacet
   facet normal 0.000000e+000 0.000000e+000 1.000000e+000
      outer loop
         vertex 4.187500e+000 3.409696e+000 1.400000e+001
         vertex 1.942039e+000 1.173249e+000 1.400000e+001
         vertex 2.447427e+000 8.106208e-001 1.400000e+001
      endloop
   endfacet
   facet normal 0.000000e+000 0.000000e+000 1.000000e+000
      outer loop
         vertex 4.187500e+000 3.409696e+000 1.400000e+001
         vertex 2.447427e+000 8.106208e-001 1.400000e+001
         vertex 2.992158e+000 5.103112e-001 1.400000e+001
      endloop
   endfacet
   facet normal 0.000000e+000 0.000000e+000 1.000000e+000
      outer loop
         vertex 1.050000e+001 5.250000e+000 1.400000e+001
         vertex 1.046315e+001 5.870934e+000 1.400000e+001
         vertex 7.342717e+000 5.619002e+000 1.400000e+001
      endloop
   endfacet
   facet normal 0.000000e+000 0.000000e+000 1.000000e+000
      outer loop
         vertex 7.342717e+000 5.619002e+000 1.400000e+001
         vertex 1.046315e+001 5.870934e+000 1.400000e+001
         vertex 1.035312e+001 6.483151e+000 1.400000e+001
      endloop
   endfacet
   facet normal 0.000000e+000 0.000000e+000 1.000000e+000
      outer loop
         vertex 7.342717e+000 5.619002e+000 1.400000e+001
         vertex 1.035312e+001 6.483151e+000 1.400000e+001
         vertex 7.246847e+000 5.976793e+000 1.400000e+001
      endloop
   endfacet
   facet normal 0.000000e+000 0.000000e+000 1.000000e+000
      outer loop
         vertex 7.246847e+000 5.976793e+000 1.400000e+001
         vertex 1.035312e+001 6.483151e+000 1.400000e+001
         vertex 1.017145e+001 7.078059e+000 1.400000e+001
      endloop
   endfacet
   facet normal 0.000000e+000 0.000000e+000 1.000000e+000
      outer loop
         vertex 7.246847e+000 5.976793e+000 1.400000e+001
         vertex 1.017145e+001 7.078059e+000 1.400000e+001
         vertex 7.090304e+000 6.312500e+000 1.400000e+001
      endloop
   endfacet
   facet normal 0.000000e+000 0.000000e+000 1.000000e+000
      outer loop
         vertex 8.793660e+000 1.376375e+000 1.400000e+001
         vertex 9.226934e+000 1.822684e+000 1.400000e+001
         vertex 6.877844e+000 3.884076e+000 1.400000e+001
      endloop
   endfacet
   facet normal 0.000000e+000 0.000000e+000 1.000000e+000
      outer loop
         vertex 6.877844e+000 3.884076e+000 1.400000e+001
         vertex 9.226934e+000 1.822684e+000 1.400000e+001
         vertex 9.604380e+000 2.317105e+000 1.400000e+001
      endloop
   endfacet
   facet normal 0.000000e+000 0.000000e+000 1.000000e+000
      outer loop
         vertex 6.877844e+000 3.884076e+000 1.400000e+001
         vertex 9.604380e+000 2.317105e+000 1.400000e+001
         vertex 7.090304e+000 4.187500e+000 1.400000e+001
      endloop
   endfacet
   facet normal 0.000000e+000 0.000000e+000 1.000000e+000
      outer loop
         vertex 7.090304e+000 4.187500e+000 1.400000e+001
         vertex 9.604380e+000 2.317105e+000 1.400000e+001
         vertex 9.920699e+000 2.852696e+000 1.400000e+001
      endloop
   endfacet
   facet normal 0.000000e+000 0.000000e+000 1.000000e+000
      outer loop
         vertex 7.090304e+000 4.187500e+000 1.400000e+001
         vertex 9.920699e+000 2.852696e+000 1.400000e+001
         vertex 7.246847e+000 4.523207e+000 1.400000e+001
      endloop
   endfacet
   facet normal 0.000000e+000 0.000000e+000 1.000000e+000
      outer loop
         vertex 7.246847e+000 4.523207e+000 1.400000e+001
         vertex 9.920699e+000 2.852696e+000 1.400000e+001
         vertex 1.017145e+001 3.421941e+000 1.400000e+001
      endloop
   endfacet
   facet normal 0.000000e+000 0.000000e+000 1.000000e+000
      outer loop
         vertex 7.246847e+000 4.523207e+000 1.400000e+001
         vertex 1.017145e+001 3.421941e+000 1.400000e+001
         vertex 1.035312e+001 4.016848e+000 1.400000e+001
      endloop
   endfacet
   facet normal 0.000000e+000 0.000000e+000 1.000000e+000
      outer loop
         vertex 3.568583e+000 2.765367e-001 1.400000e+001
         vertex 4.168612e+000 1.125783e-001 1.400000e+001
         vertex 4.880997e+000 3.157283e+000 1.400000e+001
      endloop
   endfacet
   facet normal 0.000000e+000 0.000000e+000 1.000000e+000
      outer loop
         vertex 4.880997e+000 3.157283e+000 1.400000e+001
         vertex 4.168612e+000 1.125783e-001 1.400000e+001
         vertex 4.783821e+000 2.073823e-002 1.400000e+001
      endloop
   endfacet
   facet normal 0.000000e+000 0.000000e+000 1.000000e+000
      outer loop
         vertex 4.880997e+000 3.157283e+000 1.400000e+001
         vertex 4.783821e+000 2.073823e-002 1.400000e+001
         vertex 5.250000e+000 3.125000e+000 1.400000e+001
      endloop
   endfacet
   facet normal 0.000000e+000 0.000000e+000 1.000000e+000
      outer loop
         vertex 5.250000e+000 3.125000e+000 1.400000e+001
         vertex 4.783821e+000 2.073823e-002 1.400000e+001
         vertex 5.405575e+000 2.305489e-003 1.400000e+001
      endloop
   endfacet
   facet normal 0.000000e+000 0.000000e+000 1.000000e+000
      outer loop
         vertex 5.250000e+000 3.125000e+000 1.400000e+001
         vertex 5.405575e+000 2.305489e-003 1.400000e+001
         vertex 5.619002e+000 3.157283e+000 1.400000e+001
      endloop
   endfacet
   facet normal 0.000000e+000 0.000000e+000 1.000000e+000
      outer loop
         vertex 5.619002e+000 3.157283e+000 1.400000e+001
         vertex 5.405575e+000 2.305489e-003 1.400000e+001
         vertex 6.025145e+000 5.753897e-002 1.400000e+001
      endloop
   endfacet
   facet normal 0.000000e+000 0.000000e+000 1.000000e+000
      outer loop
         vertex 5.619002e+000 3.157283e+000 1.400000e+001
         vertex 6.025145e+000 5.753897e-002 1.400000e+001
         vertex 6.633832e+000 1.856633e-001 1.400000e+001
      endloop
   endfacet
   facet normal 0.000000e+000 0.000000e+000 1.000000e+000
      outer loop
         vertex 3.157283e+000 5.619002e+000 1.400000e+001
         vertex 9.220559e-003 5.561013e+000 1.400000e+001
         vertex 3.125000e+000 5.250000e+000 1.400000e+001
      endloop
   endfacet
   facet normal 0.000000e+000 0.000000e+000 1.000000e+000
      outer loop
         vertex 3.125000e+000 5.250000e+000 1.400000e+001
         vertex 9.220559e-003 5.561013e+000 1.400000e+001
         vertex 9.220559e-003 4.938987e+000 1.400000e+001
      endloop
   endfacet
   facet normal 0.000000e+000 0.000000e+000 1.000000e+000
      outer loop
         vertex 3.125000e+000 5.250000e+000 1.400000e+001
         vertex 9.220559e-003 4.938987e+000 1.400000e+001
         vertex 3.157283e+000 4.880997e+000 1.400000e+001
      endloop
   endfacet
   facet normal 0.000000e+000 0.000000e+000 1.000000e+000
      outer loop
         vertex 3.157283e+000 4.880997e+000 1.400000e+001
         vertex 9.220559e-003 4.938987e+000 1.400000e+001
         vertex 8.278945e-002 4.321326e+000 1.400000e+001
      endloop
   endfacet
   facet normal 0.000000e+000 0.000000e+000 1.000000e+000
      outer loop
         vertex 3.157283e+000 4.880997e+000 1.400000e+001
         vertex 8.278945e-002 4.321326e+000 1.400000e+001
         vertex 3.253153e+000 4.523207e+000 1.400000e+001
      endloop
   endfacet
   facet normal 0.000000e+000 0.000000e+000 1.000000e+000
      outer loop
         vertex 8.278945e-002 4.321326e+000 1.400000e+001
         vertex 2.288949e-001 3.716702e+000 1.400000e+001
         vertex 3.253153e+000 4.523207e+000 1.400000e+001
      endloop
   endfacet
   facet normal 0.000000e+000 0.000000e+000 1.000000e+000
      outer loop
         vertex 3.253153e+000 4.523207e+000 1.400000e+001
         vertex 2.288949e-001 3.716702e+000 1.400000e+001
         vertex 4.454856e-001 3.133602e+000 1.400000e+001
      endloop
   endfacet
   facet normal 0.000000e+000 0.000000e+000 1.000000e+000
      outer loop
         vertex 3.253153e+000 4.523207e+000 1.400000e+001
         vertex 4.454856e-001 3.133602e+000 1.400000e+001
         vertex 3.409696e+000 4.187500e+000 1.400000e+001
      endloop
   endfacet
   facet normal 0.000000e+000 0.000000e+000 1.000000e+000
      outer loop
         vertex 3.409696e+000 4.187500e+000 1.400000e+001
         vertex 4.454856e-001 3.133602e+000 1.400000e+001
         vertex 7.295208e-001 2.580211e+000 1.400000e+001
      endloop
   endfacet
   facet normal 0.000000e+000 0.000000e+000 1.000000e+000
      outer loop
         vertex 3.409696e+000 4.187500e+000 1.400000e+001
         vertex 7.295208e-001 2.580211e+000 1.400000e+001
         vertex 3.622156e+000 3.884076e+000 1.400000e+001
      endloop
   endfacet
   facet normal 0.000000e+000 0.000000e+000 1.000000e+000
      outer loop
         vertex 3.622156e+000 3.884076e+000 1.400000e+001
         vertex 7.295208e-001 2.580211e+000 1.400000e+001
         vertex 1.077014e+000 2.064299e+000 1.400000e+001
      endloop
   endfacet
   facet normal 0.000000e+000 0.000000e+000 1.000000e+000
      outer loop
         vertex 3.622156e+000 3.884076e+000 1.400000e+001
         vertex 1.077014e+000 2.064299e+000 1.400000e+001
         vertex 1.483087e+000 1.593107e+000 1.400000e+001
      endloop
   endfacet
   facet normal 0.000000e+000 0.000000e+000 1.000000e+000
      outer loop
         vertex 3.409696e+000 6.312500e+000 1.400000e+001
         vertex 4.454856e-001 7.366398e+000 1.400000e+001
         vertex 3.253153e+000 5.976793e+000 1.400000e+001
      endloop
   endfacet
   facet normal 0.000000e+000 0.000000e+000 1.000000e+000
      outer loop
         vertex 3.253153e+000 5.976793e+000 1.400000e+001
         vertex 4.454856e-001 7.366398e+000 1.400000e+001
         vertex 2.288949e-001 6.783298e+000 1.400000e+001
      endloop
   endfacet
   facet normal 0.000000e+000 0.000000e+000 1.000000e+000
      outer loop
         vertex 3.253153e+000 5.976793e+000 1.400000e+001
         vertex 2.288949e-001 6.783298e+000 1.400000e+001
         vertex 3.157283e+000 5.619002e+000 1.400000e+001
      endloop
   endfacet
   facet normal 0.000000e+000 0.000000e+000 1.000000e+000
      outer loop
         vertex 3.157283e+000 5.619002e+000 1.400000e+001
         vertex 2.288949e-001 6.783298e+000 1.400000e+001
         vertex 8.278945e-002 6.178674e+000 1.400000e+001
      endloop
   endfacet
   facet normal 0.000000e+000 0.000000e+000 1.000000e+000
      outer loop
         vertex 3.157283e+000 5.619002e+000 1.400000e+001
         vertex 8.278945e-002 6.178674e+000 1.400000e+001
         vertex 9.220559e-003 5.561013e+000 1.400000e+001
      endloop
   endfacet
   facet normal 0.000000e+000 0.000000e+000 1.000000e+000
      outer loop
         vertex 5.976793e+000 7.246847e+000 1.400000e+001
         vertex 6.633832e+000 1.031434e+001 1.400000e+001
         vertex 5.619002e+000 7.342717e+000 1.400000e+001
      endloop
   endfacet
   facet normal 0.000000e+000 0.000000e+000 1.000000e+000
      outer loop
         vertex 5.619002e+000 7.342717e+000 1.400000e+001
         vertex 6.633832e+000 1.031434e+001 1.400000e+001
         vertex 6.025145e+000 1.044246e+001 1.400000e+001
      endloop
   endfacet
   facet normal 0.000000e+000 0.000000e+000 1.000000e+000
      outer loop
         vertex 5.619002e+000 7.342717e+000 1.400000e+001
         vertex 6.025145e+000 1.044246e+001 1.400000e+001
         vertex 5.250000e+000 7.375000e+000 1.400000e+001
      endloop
   endfacet
   facet normal 0.000000e+000 0.000000e+000 1.000000e+000
      outer loop
         vertex 6.615924e+000 6.877844e+000 1.400000e+001
         vertex 8.310642e+000 9.515555e+000 1.400000e+001
         vertex 6.312500e+000 7.090304e+000 1.400000e+001
      endloop
   endfacet
   facet normal 0.000000e+000 0.000000e+000 1.000000e+000
      outer loop
         vertex 6.312500e+000 7.090304e+000 1.400000e+001
         vertex 8.310642e+000 9.515555e+000 1.400000e+001
         vertex 7.784659e+000 9.847609e+000 1.400000e+001
      endloop
   endfacet
   facet normal 0.000000e+000 0.000000e+000 1.000000e+000
      outer loop
         vertex 6.312500e+000 7.090304e+000 1.400000e+001
         vertex 7.784659e+000 9.847609e+000 1.400000e+001
         vertex 5.976793e+000 7.246847e+000 1.400000e+001
      endloop
   endfacet
   facet normal 0.000000e+000 0.000000e+000 1.000000e+000
      outer loop
         vertex 5.976793e+000 7.246847e+000 1.400000e+001
         vertex 7.784659e+000 9.847609e+000 1.400000e+001
         vertex 7.223095e+000 1.011512e+001 1.400000e+001
      endloop
   endfacet
   facet normal 0.000000e+000 0.000000e+000 1.000000e+000
      outer loop
         vertex 5.976793e+000 7.246847e+000 1.400000e+001
         vertex 7.223095e+000 1.011512e+001 1.400000e+001
         vertex 6.633832e+000 1.031434e+001 1.400000e+001
      endloop
   endfacet
   facet normal 0.000000e+000 0.000000e+000 1.000000e+000
      outer loop
         vertex 1.017145e+001 7.078059e+000 1.400000e+001
         vertex 9.920699e+000 7.647304e+000 1.400000e+001
         vertex 7.090304e+000 6.312500e+000 1.400000e+001
      endloop
   endfacet
   facet normal 0.000000e+000 0.000000e+000 1.000000e+000
      outer loop
         vertex 7.090304e+000 6.312500e+000 1.400000e+001
         vertex 9.920699e+000 7.647304e+000 1.400000e+001
         vertex 9.604380e+000 8.182896e+000 1.400000e+001
      endloop
   endfacet
   facet normal 0.000000e+000 0.000000e+000 1.000000e+000
      outer loop
         vertex 7.090304e+000 6.312500e+000 1.400000e+001
         vertex 9.604380e+000 8.182896e+000 1.400000e+001
         vertex 6.877844e+000 6.615924e+000 1.400000e+001
      endloop
   endfacet
   facet normal 0.000000e+000 0.000000e+000 1.000000e+000
      outer loop
         vertex 6.877844e+000 6.615924e+000 1.400000e+001
         vertex 9.604380e+000 8.182896e+000 1.400000e+001
         vertex 9.226934e+000 8.677316e+000 1.400000e+001
      endloop
   endfacet
   facet normal 0.000000e+000 0.000000e+000 1.000000e+000
      outer loop
         vertex 6.877844e+000 6.615924e+000 1.400000e+001
         vertex 9.226934e+000 8.677316e+000 1.400000e+001
         vertex 6.615924e+000 6.877844e+000 1.400000e+001
      endloop
   endfacet
   facet normal 0.000000e+000 0.000000e+000 1.000000e+000
      outer loop
         vertex 6.615924e+000 6.877844e+000 1.400000e+001
         vertex 9.226934e+000 8.677316e+000 1.400000e+001
         vertex 8.793660e+000 9.123624e+000 1.400000e+001
      endloop
   endfacet
   facet normal 0.000000e+000 0.000000e+000 1.000000e+000
      outer loop
         vertex 6.615924e+000 6.877844e+000 1.400000e+001
         vertex 8.793660e+000 9.123624e+000 1.400000e+001
         vertex 8.310642e+000 9.515555e+000 1.400000e+001
      endloop
   endfacet
   facet normal 0.000000e+000 0.000000e+000 1.000000e+000
      outer loop
         vertex 3.884076e+000 6.877844e+000 1.400000e+001
         vertex 1.483087e+000 8.906893e+000 1.400000e+001
         vertex 3.622156e+000 6.615924e+000 1.400000e+001
      endloop
   endfacet
   facet normal 0.000000e+000 0.000000e+000 1.000000e+000
      outer loop
         vertex 3.622156e+000 6.615924e+000 1.400000e+001
         vertex 1.483087e+000 8.906893e+000 1.400000e+001
         vertex 1.077014e+000 8.435701e+000 1.400000e+001
      endloop
   endfacet
   facet normal 0.000000e+000 0.000000e+000 1.000000e+000
      outer loop
         vertex 3.622156e+000 6.615924e+000 1.400000e+001
         vertex 1.077014e+000 8.435701e+000 1.400000e+001
         vertex 3.409696e+000 6.312500e+000 1.400000e+001
      endloop
   endfacet
   facet normal 0.000000e+000 0.000000e+000 1.000000e+000
      outer loop
         vertex 3.409696e+000 6.312500e+000 1.400000e+001
         vertex 1.077014e+000 8.435701e+000 1.400000e+001
         vertex 7.295208e-001 7.919788e+000 1.400000e+001
      endloop
   endfacet
   facet normal 0.000000e+000 0.000000e+000 1.000000e+000
      outer loop
         vertex 3.409696e+000 6.312500e+000 1.400000e+001
         vertex 7.295208e-001 7.919788e+000 1.400000e+001
         vertex 4.454856e-001 7.366398e+000 1.400000e+001
      endloop
   endfacet
   facet normal 0.000000e+000 0.000000e+000 1.000000e+000
      outer loop
         vertex 6.025145e+000 1.044246e+001 1.400000e+001
         vertex 5.405575e+000 1.049769e+001 1.400000e+001
         vertex 5.250000e+000 7.375000e+000 1.400000e+001
      endloop
   endfacet
   facet normal 0.000000e+000 0.000000e+000 1.000000e+000
      outer loop
         vertex 5.250000e+000 7.375000e+000 1.400000e+001
         vertex 5.405575e+000 1.049769e+001 1.400000e+001
         vertex 4.783821e+000 1.047926e+001 1.400000e+001
      endloop
   endfacet
   facet normal 0.000000e+000 0.000000e+000 1.000000e+000
      outer loop
         vertex 5.250000e+000 7.375000e+000 1.400000e+001
         vertex 4.783821e+000 1.047926e+001 1.400000e+001
         vertex 4.880997e+000 7.342717e+000 1.400000e+001
      endloop
   endfacet
   facet normal 0.000000e+000 0.000000e+000 1.000000e+000
      outer loop
         vertex 4.880997e+000 7.342717e+000 1.400000e+001
         vertex 4.783821e+000 1.047926e+001 1.400000e+001
         vertex 4.168612e+000 1.038742e+001 1.400000e+001
      endloop
   endfacet
   facet normal 0.000000e+000 0.000000e+000 1.000000e+000
      outer loop
         vertex 4.880997e+000 7.342717e+000 1.400000e+001
         vertex 4.168612e+000 1.038742e+001 1.400000e+001
         vertex 4.523207e+000 7.246847e+000 1.400000e+001
      endloop
   endfacet
   facet normal 0.000000e+000 0.000000e+000 1.000000e+000
      outer loop
         vertex 4.168612e+000 1.038742e+001 1.400000e+001
         vertex 3.568583e+000 1.022346e+001 1.400000e+001
         vertex 4.523207e+000 7.246847e+000 1.400000e+001
      endloop
   endfacet
   facet normal 0.000000e+000 0.000000e+000 1.000000e+000
      outer loop
         vertex 4.523207e+000 7.246847e+000 1.400000e+001
         vertex 3.568583e+000 1.022346e+001 1.400000e+001
         vertex 2.992158e+000 9.989688e+000 1.400000e+001
      endloop
   endfacet
   facet normal 0.000000e+000 0.000000e+000 1.000000e+000
      outer loop
         vertex 4.523207e+000 7.246847e+000 1.400000e+001
         vertex 2.992158e+000 9.989688e+000 1.400000e+001
         vertex 4.187500e+000 7.090304e+000 1.400000e+001
      endloop
   endfacet
   facet normal 0.000000e+000 0.000000e+000 1.000000e+000
      outer loop
         vertex 4.187500e+000 7.090304e+000 1.400000e+001
         vertex 2.992158e+000 9.989688e+000 1.400000e+001
         vertex 2.447427e+000 9.689380e+000 1.400000e+001
      endloop
   endfacet
   facet normal 0.000000e+000 0.000000e+000 1.000000e+000
      outer loop
         vertex 4.187500e+000 7.090304e+000 1.400000e+001
         vertex 2.447427e+000 9.689380e+000 1.400000e+001
         vertex 3.884076e+000 6.877844e+000 1.400000e+001
      endloop
   endfacet
   facet normal 0.000000e+000 0.000000e+000 1.000000e+000
      outer loop
         vertex 3.884076e+000 6.877844e+000 1.400000e+001
         vertex 2.447427e+000 9.689380e+000 1.400000e+001
         vertex 1.942039e+000 9.326751e+000 1.400000e+001
      endloop
   endfacet
   facet normal 0.000000e+000 0.000000e+000 1.000000e+000
      outer loop
         vertex 3.884076e+000 6.877844e+000 1.400000e+001
         vertex 1.942039e+000 9.326751e+000 1.400000e+001
         vertex 1.483087e+000 8.906893e+000 1.400000e+001
      endloop
   endfacet
endsolid