solid PULLEY SPACER 1 wire anchor
   facet normal -9.983119e-001 -5.807913e-002 1.222580e-016
      outer loop
         vertex 7.375000e+000 5.250000e+000 0.000000e+000
         vertex 7.375000e+000 5.250000e+000 1.700000e+001
         vertex 7.342717e+000 5.619002e+000 3.953592e-018
      endloop
   endfacet
   facet normal -9.932307e-001 -1.161583e-001 1.216357e-016
      outer loop
         vertex 7.342717e+000 5.619002e+000 3.953592e-018
         vertex 7.375000e+000 5.250000e+000 1.700000e+001
         vertex 7.342717e+000 5.619002e+000 1.700000e+001
      endloop
   endfacet
   facet normal -9.730600e-001 -2.305519e-001 1.191655e-016
      outer loop
         vertex 7.342717e+000 5.619002e+000 3.953592e-018
         vertex 7.342717e+000 5.619002e+000 1.700000e+001
         vertex 7.246847e+000 5.976793e+000 1.569424e-017
      endloop
   endfacet
   facet normal -9.579706e-001 -2.868663e-001 1.173176e-016
      outer loop
         vertex 7.246847e+000 5.976793e+000 1.569424e-017
         vertex 7.342717e+000 5.619002e+000 1.700000e+001
         vertex 7.246847e+000 5.976793e+000 1.700000e+001
      endloop
   endfacet
   facet normal -9.182422e-001 -3.960194e-001 1.124522e-016
      outer loop
         vertex 7.246847e+000 5.976793e+000 1.569424e-017
         vertex 7.246847e+000 5.976793e+000 1.700000e+001
         vertex 7.090304e+000 6.312500e+000 3.486521e-017
      endloop
   endfacet
   facet normal -8.936031e-001 -4.488580e-001 1.094348e-016
      outer loop
         vertex 7.090304e+000 6.312500e+000 3.486521e-017
         vertex 7.246847e+000 5.976793e+000 1.700000e+001
         vertex 7.090304e+000 6.312500e+000 1.700000e+001
      endloop
   endfacet
   facet normal -8.355240e-001 -5.494540e-001 1.023222e-016
      outer loop
         vertex 7.090304e+000 6.312500e+000 3.486521e-017
         vertex 7.090304e+000 6.312500e+000 1.700000e+001
         vertex 6.877844e+000 6.615924e+000 6.088399e-017
      endloop
   endfacet
   facet normal -8.020838e-001 -5.972114e-001 9.822694e-017
      outer loop
         vertex 6.877844e+000 6.615924e+000 6.088399e-017
         vertex 7.090304e+000 6.312500e+000 1.700000e+001
         vertex 6.877844e+000 6.615924e+000 1.700000e+001
      endloop
   endfacet
   facet normal -7.274188e-001 -6.861938e-001 8.908310e-017
      outer loop
         vertex 6.877844e+000 6.615924e+000 6.088399e-017
         vertex 6.877844e+000 6.615924e+000 1.700000e+001
         vertex 6.615924e+000 6.877844e+000 9.296004e-017
      endloop
   endfacet
   facet normal -6.861938e-001 -7.274188e-001 8.403449e-017
      outer loop
         vertex 6.615924e+000 6.877844e+000 9.296004e-017
         vertex 6.877844e+000 6.615924e+000 1.700000e+001
         vertex 6.615924e+000 6.877844e+000 1.700000e+001
      endloop
   endfacet
   facet normal -5.972114e-001 -8.020838e-001 7.313730e-017
      outer loop
         vertex 6.615924e+000 6.877844e+000 9.296004e-017
         vertex 6.615924e+000 6.877844e+000 1.700000e+001
         vertex 6.312500e+000 7.090304e+000 1.301187e-016
      endloop
   endfacet
   facet normal -5.494540e-001 -8.355240e-001 6.728871e-017
      outer loop
         vertex 6.312500e+000 7.090304e+000 1.301187e-016
         vertex 6.615924e+000 6.877844e+000 1.700000e+001
         vertex 6.312500e+000 7.090304e+000 1.700000e+001
      endloop
   endfacet
   facet normal -4.488580e-001 -8.936031e-001 5.496925e-017
      outer loop
         vertex 6.312500e+000 7.090304e+000 1.301187e-016
         vertex 6.312500e+000 7.090304e+000 1.700000e+001
         vertex 5.976793e+000 7.246847e+000 1.712310e-016
      endloop
   endfacet
   facet normal -3.960194e-001 -9.182422e-001 4.849839e-017
      outer loop
         vertex 5.976793e+000 7.246847e+000 1.712310e-016
         vertex 6.312500e+000 7.090304e+000 1.700000e+001
         vertex 5.976793e+000 7.246847e+000 1.700000e+001
      endloop
   endfacet
   facet normal -2.868663e-001 -9.579706e-001 3.513099e-017
      outer loop
         vertex 5.976793e+000 7.246847e+000 1.712310e-016
         vertex 5.976793e+000 7.246847e+000 1.700000e+001
         vertex 5.619002e+000 7.342717e+000 2.150477e-016
      endloop
   endfacet
   facet normal -2.305519e-001 -9.730600e-001 2.823446e-017
      outer loop
         vertex 5.619002e+000 7.342717e+000 2.150477e-016
         vertex 5.976793e+000 7.246847e+000 1.700000e+001
         vertex 5.619002e+000 7.342717e+000 1.700000e+001
      endloop
   endfacet
   facet normal -1.161583e-001 -9.932307e-001 1.422529e-017
      outer loop
         vertex 5.619002e+000 7.342717e+000 2.150477e-016
         vertex 5.619002e+000 7.342717e+000 1.700000e+001
         vertex 5.250000e+000 7.375000e+000 2.602375e-016
      endloop
   endfacet
   facet normal -5.807913e-002 -9.983119e-001 7.112642e-018
      outer loop
         vertex 5.250000e+000 7.375000e+000 2.602375e-016
         vertex 5.619002e+000 7.342717e+000 1.700000e+001
         vertex 5.250000e+000 7.375000e+000 1.700000e+001
      endloop
   endfacet
   facet normal 5.807913e-002 -9.983119e-001 -7.112642e-018
      outer loop
         vertex 5.250000e+000 7.375000e+000 2.602375e-016
         vertex 5.250000e+000 7.375000e+000 1.700000e+001
         vertex 4.880997e+000 7.342717e+000 3.054272e-016
      endloop
   endfacet
   facet normal 1.161583e-001 -9.932307e-001 -1.422529e-017
      outer loop
         vertex 4.880997e+000 7.342717e+000 3.054272e-016
         vertex 5.250000e+000 7.375000e+000 1.700000e+001
         vertex 4.880997e+000 7.342717e+000 1.700000e+001
      endloop
   endfacet
   facet normal 2.305519e-001 -9.730600e-001 -2.823446e-017
      outer loop
         vertex 4.880997e+000 7.342717e+000 3.054272e-016
         vertex 4.880997e+000 7.342717e+000 1.700000e+001
         vertex 4.523207e+000 7.246847e+000 3.492439e-016
      endloop
   endfacet
   facet normal 2.868663e-001 -9.579706e-001 -3.513099e-017
      outer loop
         vertex 4.523207e+000 7.246847e+000 3.492439e-016
         vertex 4.880997e+000 7.342717e+000 1.700000e+001
         vertex 4.523207e+000 7.246847e+000 1.700000e+001
      endloop
   endfacet
   facet normal 3.960194e-001 -9.182422e-001 -4.849838e-017
      outer loop
         vertex 4.523207e+000 7.246847e+000 3.492439e-016
         vertex 4.523207e+000 7.246847e+000 1.700000e+001
         vertex 4.187500e+000 7.090304e+000 3.903562e-016
      endloop
   endfacet
   facet normal 4.488580e-001 -8.936031e-001 -5.496925e-017
      outer loop
         vertex 4.187500e+000 7.090304e+000 3.903562e-016
         vertex 4.523207e+000 7.246847e+000 1.700000e+001
         vertex 4.187500e+000 7.090304e+000 1.700000e+001
      endloop
   endfacet
   facet normal 5.494540e-001 -8.355240e-001 -6.728871e-017
      outer loop
         vertex 4.187500e+000 7.090304e+000 3.903562e-016
         vertex 4.187500e+000 7.090304e+000 1.700000e+001
         vertex 3.884076e+000 6.877844e+000 4.275149e-016
      endloop
   endfacet
   facet normal 5.972114e-001 -8.020838e-001 -7.313730e-017
      outer loop
         vertex 3.884076e+000 6.877844e+000 4.275149e-016
         vertex 4.187500e+000 7.090304e+000 1.700000e+001
         vertex 3.884076e+000 6.877844e+000 1.700000e+001
      endloop
   endfacet
   facet normal 6.861938e-001 -7.274188e-001 -8.403449e-017
      outer loop
         vertex 3.884076e+000 6.877844e+000 4.275149e-016
         vertex 3.884076e+000 6.877844e+000 1.700000e+001
         vertex 3.622156e+000 6.615924e+000 4.595909e-016
      endloop
   endfacet
   facet normal 7.274188e-001 -6.861938e-001 -8.908310e-017
      outer loop
         vertex 3.622156e+000 6.615924e+000 4.595909e-016
         vertex 3.884076e+000 6.877844e+000 1.700000e+001
         vertex 3.622156e+000 6.615924e+000 1.700000e+001
      endloop
   endfacet
   facet normal 8.020838e-001 -5.972114e-001 -9.822694e-017
      outer loop
         vertex 3.622156e+000 6.615924e+000 4.595909e-016
         vertex 3.622156e+000 6.615924e+000 1.700000e+001
         vertex 3.409696e+000 6.312500e+000 4.856097e-016
      endloop
   endfacet
   facet normal 8.355240e-001 -5.494540e-001 -1.023222e-016
      outer loop
         vertex 3.409696e+000 6.312500e+000 4.856097e-016
         vertex 3.622156e+000 6.615924e+000 1.700000e+001
         vertex 3.409696e+000 6.312500e+000 1.700000e+001
      endloop
   endfacet
   facet normal 8.936031e-001 -4.488580e-001 -1.094348e-016
      outer loop
         vertex 3.409696e+000 6.312500e+000 4.856097e-016
         vertex 3.409696e+000 6.312500e+000 1.700000e+001
         vertex 3.253153e+000 5.976793e+000 5.047807e-016
      endloop
   endfacet
   facet normal 9.182422e-001 -3.960194e-001 -1.124522e-016
      outer loop
         vertex 3.253153e+000 5.976793e+000 5.047807e-016
         vertex 3.409696e+000 6.312500e+000 1.700000e+001
         vertex 3.253153e+000 5.976793e+000 1.700000e+001
      endloop
   endfacet
   facet normal 9.579706e-001 -2.868663e-001 -1.173176e-016
      outer loop
         vertex 3.253153e+000 5.976793e+000 5.047807e-016
         vertex 3.253153e+000 5.976793e+000 1.700000e+001
         vertex 3.157283e+000 5.619002e+000 5.165213e-016
      endloop
   endfacet
   facet normal 9.730600e-001 -2.305519e-001 -1.191655e-016
      outer loop
         vertex 3.157283e+000 5.619002e+000 5.165213e-016
         vertex 3.253153e+000 5.976793e+000 1.700000e+001
         vertex 3.157283e+000 5.619002e+000 1.700000e+001
      endloop
   endfacet
   facet normal 9.932307e-001 -1.161583e-001 -1.216357e-016
      outer loop
         vertex 3.157283e+000 5.619002e+000 5.165213e-016
         vertex 3.157283e+000 5.619002e+000 1.700000e+001
         vertex 3.125000e+000 5.250000e+000 5.204749e-016
      endloop
   endfacet
   facet normal 9.983119e-001 -5.807913e-002 -1.222580e-016
      outer loop
         vertex 3.125000e+000 5.250000e+000 5.204749e-016
         vertex 3.157283e+000 5.619002e+000 1.700000e+001
         vertex 3.125000e+000 5.250000e+000 1.700000e+001
      endloop
   endfacet
   facet normal 9.983119e-001 5.807913e-002 -1.222580e-016
      outer loop
         vertex 3.125000e+000 5.250000e+000 5.204749e-016
         vertex 3.125000e+000 5.250000e+000 1.700000e+001
         vertex 3.157283e+000 4.880997e+000 5.165213e-016
      endloop
   endfacet
   facet normal 9.932307e-001 1.161583e-001 -1.216357e-016
      outer loop
         vertex 3.157283e+000 4.880997e+000 5.165213e-016
         vertex 3.125000e+000 5.250000e+000 1.700000e+001
         vertex 3.157283e+000 4.880997e+000 1.700000e+001
      endloop
   endfacet
   facet normal 9.730600e-001 2.305519e-001 -1.191655e-016
      outer loop
         vertex 3.157283e+000 4.880997e+000 5.165213e-016
         vertex 3.157283e+000 4.880997e+000 1.700000e+001
         vertex 3.253153e+000 4.523207e+000 5.047807e-016
      endloop
   endfacet
   facet normal 9.579706e-001 2.868663e-001 -1.173176e-016
      outer loop
         vertex 3.253153e+000 4.523207e+000 5.047807e-016
         vertex 3.157283e+000 4.880997e+000 1.700000e+001
         vertex 3.253153e+000 4.523207e+000 1.700000e+001
      endloop
   endfacet
   facet normal 9.182422e-001 3.960194e-001 -1.124522e-016
      outer loop
         vertex 3.253153e+000 4.523207e+000 5.047807e-016
         vertex 3.253153e+000 4.523207e+000 1.700000e+001
         vertex 3.409696e+000 4.187500e+000 4.856097e-016
      endloop
   endfacet
   facet normal 8.936031e-001 4.488580e-001 -1.094348e-016
      outer loop
         vertex 3.409696e+000 4.187500e+000 4.856097e-016
         vertex 3.253153e+000 4.523207e+000 1.700000e+001
         vertex 3.409696e+000 4.187500e+000 1.700000e+001
      endloop
   endfacet
   facet normal 8.355240e-001 5.494540e-001 -1.023222e-016
      outer loop
         vertex 3.409696e+000 4.187500e+000 4.856097e-016
         vertex 3.409696e+000 4.187500e+000 1.700000e+001
         vertex 3.622156e+000 3.884076e+000 4.595909e-016
      endloop
   endfacet
   facet normal 8.020838e-001 5.972114e-001 -9.822694e-017
      outer loop
         vertex 3.622156e+000 3.884076e+000 4.595909e-016
         vertex 3.409696e+000 4.187500e+000 1.700000e+001
         vertex 3.622156e+000 3.884076e+000 1.700000e+001
      endloop
   endfacet
   facet normal 7.274188e-001 6.861938e-001 -8.908310e-017
      outer loop
         vertex 3.622156e+000 3.884076e+000 4.595909e-016
         vertex 3.622156e+000 3.884076e+000 1.700000e+001
         vertex 3.884076e+000 3.622156e+000 4.275149e-016
      endloop
   endfacet
   facet normal 6.861938e-001 7.274188e-001 -8.403449e-017
      outer loop
         vertex 3.884076e+000 3.622156e+000 4.275149e-016
         vertex 3.622156e+000 3.884076e+000 1.700000e+001
         vertex 3.884076e+000 3.622156e+000 1.700000e+001
      endloop
   endfacet
   facet normal 5.972114e-001 8.020838e-001 -7.313730e-017
      outer loop
         vertex 3.884076e+000 3.622156e+000 4.275149e-016
         vertex 3.884076e+000 3.622156e+000 1.700000e+001
         vertex 4.187500e+000 3.409696e+000 3.903562e-016
      endloop
   endfacet
   facet normal 5.494540e-001 8.355240e-001 -6.728871e-017
      outer loop
         vertex 4.187500e+000 3.409696e+000 3.903562e-016
         vertex 3.884076e+000 3.622156e+000 1.700000e+001
         vertex 4.187500e+000 3.409696e+000 1.700000e+001
      endloop
   endfacet
   facet normal 4.488580e-001 8.936031e-001 -5.496925e-017
      outer loop
         vertex 4.187500e+000 3.409696e+000 3.903562e-016
         vertex 4.187500e+000 3.409696e+000 1.700000e+001
         vertex 4.523207e+000 3.253153e+000 3.492439e-016
      endloop
   endfacet
   facet normal 3.960194e-001 9.182422e-001 -4.849839e-017
      outer loop
         vertex 4.523207e+000 3.253153e+000 3.492439e-016
         vertex 4.187500e+000 3.409696e+000 1.700000e+001
         vertex 4.523207e+000 3.253153e+000 1.700000e+001
      endloop
   endfacet
   facet normal 2.868663e-001 9.579706e-001 -3.513099e-017
      outer loop
         vertex 4.523207e+000 3.253153e+000 3.492439e-016
         vertex 4.523207e+000 3.253153e+000 1.700000e+001
         vertex 4.880997e+000 3.157283e+000 3.054272e-016
      endloop
   endfacet
   facet normal 2.305519e-001 9.730600e-001 -2.823446e-017
      outer loop
         vertex 4.880997e+000 3.157283e+000 3.054272e-016
         vertex 4.523207e+000 3.253153e+000 1.700000e+001
         vertex 4.880997e+000 3.157283e+000 1.700000e+001
      endloop
   endfacet
   facet normal 1.161583e-001 9.932307e-001 -1.422529e-017
      outer loop
         vertex 4.880997e+000 3.157283e+000 3.054272e-016
         vertex 4.880997e+000 3.157283e+000 1.700000e+001
         vertex 5.250000e+000 3.125000e+000 2.602375e-016
      endloop
   endfacet
   facet normal 5.807913e-002 9.983119e-001 -7.112642e-018
      outer loop
         vertex 5.250000e+000 3.125000e+000 2.602375e-016
         vertex 4.880997e+000 3.157283e+000 1.700000e+001
         vertex 5.250000e+000 3.125000e+000 1.700000e+001
      endloop
   endfacet
   facet normal -5.807913e-002 9.983119e-001 7.112642e-018
      outer loop
         vertex 5.250000e+000 3.125000e+000 2.602375e-016
         vertex 5.250000e+000 3.125000e+000 1.700000e+001
         vertex 5.619002e+000 3.157283e+000 2.150477e-016
      endloop
   endfacet
   facet normal -1.161583e-001 9.932307e-001 1.422529e-017
      outer loop
         vertex 5.619002e+000 3.157283e+000 2.150477e-016
         vertex 5.250000e+000 3.125000e+000 1.700000e+001
         vertex 5.619002e+000 3.157283e+000 1.700000e+001
      endloop
   endfacet
   facet normal -2.305519e-001 9.730600e-001 2.823446e-017
      outer loop
         vertex 5.619002e+000 3.157283e+000 2.150477e-016
         vertex 5.619002e+000 3.157283e+000 1.700000e+001
         vertex 5.976793e+000 3.253153e+000 1.712310e-016
      endloop
   endfacet
   facet normal -2.868663e-001 9.579706e-001 3.513099e-017
      outer loop
         vertex 5.976793e+000 3.253153e+000 1.712310e-016
         vertex 5.619002e+000 3.157283e+000 1.700000e+001
         vertex 5.976793e+000 3.253153e+000 1.700000e+001
      endloop
   endfacet
   facet normal -3.960194e-001 9.182422e-001 4.849838e-017
      outer loop
         vertex 5.976793e+000 3.253153e+000 1.712310e-016
         vertex 5.976793e+000 3.253153e+000 1.700000e+001
         vertex 6.312500e+000 3.409696e+000 1.301187e-016
      endloop
   endfacet
   facet normal -4.488580e-001 8.936031e-001 5.496925e-017
      outer loop
         vertex 6.312500e+000 3.409696e+000 1.301187e-016
         vertex 5.976793e+000 3.253153e+000 1.700000e+001
         vertex 6.312500e+000 3.409696e+000 1.700000e+001
      endloop
   endfacet
   facet normal -5.494540e-001 8.355240e-001 6.728871e-017
      outer loop
         vertex 6.312500e+000 3.409696e+000 1.301187e-016
         vertex 6.312500e+000 3.409696e+000 1.700000e+001
         vertex 6.615924e+000 3.622156e+000 9.296004e-017
      endloop
   endfacet
   facet normal -5.972114e-001 8.020838e-001 7.313730e-017
      outer loop
         vertex 6.615924e+000 3.622156e+000 9.296004e-017
         vertex 6.312500e+000 3.409696e+000 1.700000e+001
         vertex 6.615924e+000 3.622156e+000 1.700000e+001
      endloop
   endfacet
   facet normal -6.861938e-001 7.274188e-001 8.403449e-017
      outer loop
         vertex 6.615924e+000 3.622156e+000 9.296004e-017
         vertex 6.615924e+000 3.622156e+000 1.700000e+001
         vertex 6.877844e+000 3.884076e+000 6.088399e-017
      endloop
   endfacet
   facet normal -7.274188e-001 6.861938e-001 8.908310e-017
      outer loop
         vertex 6.877844e+000 3.884076e+000 6.088399e-017
         vertex 6.615924e+000 3.622156e+000 1.700000e+001
         vertex 6.877844e+000 3.884076e+000 1.700000e+001
      endloop
   endfacet
   facet normal -8.020838e-001 5.972114e-001 9.822694e-017
      outer loop
         vertex 6.877844e+000 3.884076e+000 6.088399e-017
         vertex 6.877844e+000 3.884076e+000 1.700000e+001
         vertex 7.090304e+000 4.187500e+000 3.486521e-017
      endloop
   endfacet
   facet normal -8.355240e-001 5.494540e-001 1.023222e-016
      outer loop
         vertex 7.090304e+000 4.187500e+000 3.486521e-017
         vertex 6.877844e+000 3.884076e+000 1.700000e+001
         vertex 7.090304e+000 4.187500e+000 1.700000e+001
      endloop
   endfacet
   facet normal -8.936031e-001 4.488580e-001 1.094348e-016
      outer loop
         vertex 7.090304e+000 4.187500e+000 3.486521e-017
         vertex 7.090304e+000 4.187500e+000 1.700000e+001
         vertex 7.246847e+000 4.523207e+000 1.569424e-017
      endloop
   endfacet
   facet normal -9.182422e-001 3.960194e-001 1.124522e-016
      outer loop
         vertex 7.246847e+000 4.523207e+000 1.569424e-017
         vertex 7.090304e+000 4.187500e+000 1.700000e+001
         vertex 7.246847e+000 4.523207e+000 1.700000e+001
      endloop
   endfacet
   facet normal -9.579706e-001 2.868663e-001 1.173176e-016
      outer loop
         vertex 7.246847e+000 4.523207e+000 1.569424e-017
         vertex 7.246847e+000 4.523207e+000 1.700000e+001
         vertex 7.342717e+000 4.880997e+000 3.953592e-018
      endloop
   endfacet
   facet normal -9.730600e-001 2.305519e-001 1.191655e-016
      outer loop
         vertex 7.342717e+000 4.880997e+000 3.953592e-018
         vertex 7.246847e+000 4.523207e+000 1.700000e+001
         vertex 7.342717e+000 4.880997e+000 1.700000e+001
      endloop
   endfacet
   facet normal -9.932307e-001 1.161583e-001 1.216357e-016
      outer loop
         vertex 7.342717e+000 4.880997e+000 3.953592e-018
         vertex 7.342717e+000 4.880997e+000 1.700000e+001
         vertex 7.375000e+000 5.250000e+000 0.000000e+000
      endloop
   endfacet
   facet normal -9.983119e-001 5.807913e-002 1.222580e-016
      outer loop
         vertex 7.375000e+000 5.250000e+000 0.000000e+000
         vertex 7.342717e+000 4.880997e+000 1.700000e+001
         vertex 7.375000e+000 5.250000e+000 1.700000e+001
      endloop
   endfacet
   facet normal 9.966271e-001 8.206387e-002 -1.220516e-016
      outer loop
         vertex 1.050000e+001 5.250000e+000 1.700000e+001
         vertex 1.046021e+001 5.895164e+000 4.873154e-018
         vertex 1.046021e+001 5.895164e+000 1.700000e+001
      endloop
   endfacet
   facet normal 9.865423e-001 1.635057e-001 -1.208166e-016
      outer loop
         vertex 1.046021e+001 5.895164e+000 1.700000e+001
         vertex 1.046021e+001 5.895164e+000 4.873154e-018
         vertex 1.034143e+001 6.530547e+000 1.941874e-017
      endloop
   endfacet
   facet normal 9.789885e-001 2.039157e-001 -1.198915e-016
      outer loop
         vertex 1.046021e+001 5.895164e+000 1.700000e+001
         vertex 1.034143e+001 6.530547e+000 1.941874e-017
         vertex 1.034143e+001 6.530547e+000 1.700000e+001
      endloop
   endfacet
   facet normal 9.589720e-001 2.835010e-001 -1.174402e-016
      outer loop
         vertex 1.034143e+001 6.530547e+000 1.700000e+001
         vertex 1.034143e+001 6.530547e+000 1.941874e-017
         vertex 1.014548e+001 7.146519e+000 4.341628e-017
      endloop
   endfacet
   facet normal 9.465094e-001 3.226763e-001 -1.159140e-016
      outer loop
         vertex 1.034143e+001 6.530547e+000 1.700000e+001
         vertex 1.014548e+001 7.146519e+000 4.341628e-017
         vertex 1.014548e+001 7.146519e+000 1.700000e+001
      endloop
   endfacet
   facet normal 9.168645e-001 3.991986e-001 -1.122835e-016
      outer loop
         vertex 1.014548e+001 7.146519e+000 1.700000e+001
         vertex 1.014548e+001 7.146519e+000 4.341628e-017
         vertex 9.875315e+000 7.733741e+000 7.650196e-017
      endloop
   endfacet
   facet normal 8.996822e-001 4.365455e-001 -1.101793e-016
      outer loop
         vertex 1.014548e+001 7.146519e+000 1.700000e+001
         vertex 9.875315e+000 7.733741e+000 7.650196e-017
         vertex 9.875315e+000 7.733741e+000 1.700000e+001
      endloop
   endfacet
   facet normal 8.608583e-001 5.088447e-001 -1.054247e-016
      outer loop
         vertex 9.875315e+000 7.733741e+000 1.700000e+001
         vertex 9.875315e+000 7.733741e+000 7.650196e-017
         vertex 9.535033e+000 8.283313e+000 1.181743e-016
      endloop
   endfacet
   facet normal 8.392168e-001 5.437971e-001 -1.027744e-016
      outer loop
         vertex 9.875315e+000 7.733741e+000 1.700000e+001
         vertex 9.535033e+000 8.283313e+000 1.181743e-016
         vertex 9.535033e+000 8.283313e+000 1.700000e+001
      endloop
   endfacet
   facet normal 7.918024e-001 6.107774e-001 -9.696783e-017
      outer loop
         vertex 9.535033e+000 8.283313e+000 1.700000e+001
         vertex 9.535033e+000 8.283313e+000 1.181743e-016
         vertex 9.129796e+000 8.786901e+000 1.678015e-016
      endloop
   endfacet
   facet normal 7.660296e-001 6.428053e-001 -9.381158e-017
      outer loop
         vertex 9.535033e+000 8.283313e+000 1.700000e+001
         vertex 9.129796e+000 8.786901e+000 1.678015e-016
         vertex 9.129796e+000 8.786901e+000 1.700000e+001
      endloop
   endfacet
   facet normal 7.107435e-001 7.034513e-001 -8.704098e-017
      outer loop
         vertex 9.129796e+000 8.786901e+000 1.700000e+001
         vertex 9.129796e+000 8.786901e+000 1.678015e-016
         vertex 8.665746e+000 9.236876e+000 2.246313e-016
      endloop
   endfacet
   facet normal 6.812302e-001 7.320692e-001 -8.342664e-017
      outer loop
         vertex 9.129796e+000 8.786901e+000 1.700000e+001
         vertex 8.665746e+000 9.236876e+000 2.246313e-016
         vertex 8.665746e+000 9.236876e+000 1.700000e+001
      endloop
   endfacet
   facet normal 6.189105e-001 7.854615e-001 -7.579468e-017
      outer loop
         vertex 8.665746e+000 9.236876e+000 1.700000e+001
         vertex 8.665746e+000 9.236876e+000 2.246313e-016
         vertex 8.149917e+000 9.626412e+000 2.878023e-016
      endloop
   endfacet
   facet normal 5.861041e-001 8.102357e-001 -7.177706e-017
      outer loop
         vertex 8.665746e+000 9.236876e+000 1.700000e+001
         vertex 8.149917e+000 9.626412e+000 2.878023e-016
         vertex 8.149917e+000 9.626412e+000 1.700000e+001
      endloop
   endfacet
   facet normal 5.176955e-001 8.555650e-001 -6.339941e-017
      outer loop
         vertex 8.149917e+000 9.626412e+000 1.700000e+001
         vertex 8.149917e+000 9.626412e+000 2.878023e-016
         vertex 7.590126e+000 9.949608e+000 3.563567e-016
      endloop
   endfacet
   facet normal 4.820932e-001 8.761199e-001 -5.903939e-017
      outer loop
         vertex 8.149917e+000 9.626412e+000 1.700000e+001
         vertex 7.590126e+000 9.949608e+000 3.563567e-016
         vertex 7.590126e+000 9.949608e+000 1.700000e+001
      endloop
   endfacet
   facet normal 4.086327e-001 9.126989e-001 -5.004307e-017
      outer loop
         vertex 7.590126e+000 9.949608e+000 1.700000e+001
         vertex 7.590126e+000 9.949608e+000 3.563567e-016
         vertex 6.994863e+000 1.020156e+001 4.292555e-016
      endloop
   endfacet
   facet normal 3.707744e-001 9.287230e-001 -4.540676e-017
      outer loop
         vertex 7.590126e+000 9.949608e+000 1.700000e+001
         vertex 6.994863e+000 1.020156e+001 4.292555e-016
         vertex 6.994863e+000 1.020156e+001 1.700000e+001
      endloop
   endfacet
   facet normal 2.933754e-001 9.559973e-001 -3.592813e-017
      outer loop
         vertex 6.994863e+000 1.020156e+001 1.700000e+001
         vertex 6.994863e+000 1.020156e+001 4.292555e-016
         vertex 6.373148e+000 1.037845e+001 5.053935e-016
      endloop
   endfacet
   facet normal 2.538349e-001 9.672475e-001 -3.108581e-017
      outer loop
         vertex 6.994863e+000 1.020156e+001 1.700000e+001
         vertex 6.373148e+000 1.037845e+001 5.053935e-016
         vertex 6.373148e+000 1.037845e+001 1.700000e+001
      endloop
   endfacet
   facet normal 1.736709e-001 9.848037e-001 -2.126856e-017
      outer loop
         vertex 6.373148e+000 1.037845e+001 1.700000e+001
         vertex 6.373148e+000 1.037845e+001 5.053935e-016
         vertex 5.734409e+000 1.047760e+001 5.836166e-016
      endloop
   endfacet
   facet normal 1.330476e-001 9.911097e-001 -1.629363e-017
      outer loop
         vertex 6.373148e+000 1.037845e+001 1.700000e+001
         vertex 5.734409e+000 1.047760e+001 5.836166e-016
         vertex 5.734409e+000 1.047760e+001 1.700000e+001
      endloop
   endfacet
   facet normal 5.133376e-002 9.986815e-001 -6.286572e-018
      outer loop
         vertex 5.734409e+000 1.047760e+001 1.700000e+001
         vertex 5.734409e+000 1.047760e+001 5.836166e-016
         vertex 5.088326e+000 1.049751e+001 6.627389e-016
      endloop
   endfacet
   facet normal 1.024335e-002 9.999475e-001 -1.254448e-018
      outer loop
         vertex 5.734409e+000 1.047760e+001 1.700000e+001
         vertex 5.088326e+000 1.049751e+001 6.627389e-016
         vertex 5.088326e+000 1.049751e+001 1.700000e+001
      endloop
   endfacet
   facet normal -7.178160e-002 9.974204e-001 8.790710e-018
      outer loop
         vertex 5.088326e+000 1.049751e+001 1.700000e+001
         vertex 5.088326e+000 1.049751e+001 6.627389e-016
         vertex 4.444694e+000 1.043787e+001 7.415611e-016
      endloop
   endfacet
   facet normal -1.127161e-001 9.936273e-001 1.380375e-017
      outer loop
         vertex 5.088326e+000 1.049751e+001 1.700000e+001
         vertex 4.444694e+000 1.043787e+001 7.415611e-016
         vertex 4.444694e+000 1.043787e+001 1.700000e+001
      endloop
   endfacet
   facet normal -1.938088e-001 9.810393e-001 2.373473e-017
      outer loop
         vertex 4.444694e+000 1.043787e+001 1.700000e+001
         vertex 4.444694e+000 1.043787e+001 7.415611e-016
         vertex 3.813269e+000 1.029958e+001 8.188883e-016
      endloop
   endfacet
   facet normal -2.339669e-001 9.722446e-001 2.865269e-017
      outer loop
         vertex 4.444694e+000 1.043787e+001 1.700000e+001
         vertex 3.813269e+000 1.029958e+001 8.188883e-016
         vertex 3.813269e+000 1.029958e+001 1.700000e+001
      endloop
   endfacet
   facet normal -3.128981e-001 9.497867e-001 3.831896e-017
      outer loop
         vertex 3.813269e+000 1.029958e+001 1.700000e+001
         vertex 3.813269e+000 1.029958e+001 8.188883e-016
         vertex 3.203624e+000 1.008475e+001 8.935483e-016
      endloop
   endfacet
   facet normal -3.516711e-001 9.361236e-001 4.306729e-017
      outer loop
         vertex 3.813269e+000 1.029958e+001 1.700000e+001
         vertex 3.203624e+000 1.008475e+001 8.935483e-016
         vertex 3.203624e+000 1.008475e+001 1.700000e+001
      endloop
   endfacet
   facet normal -4.272442e-001 9.041363e-001 5.232231e-017
      outer loop
         vertex 3.203624e+000 1.008475e+001 1.700000e+001
         vertex 3.203624e+000 1.008475e+001 8.935483e-016
         vertex 2.625000e+000 9.796634e+000 9.644094e-016
      endloop
   endfacet
   facet normal -4.640442e-001 8.858120e-001 5.682903e-017
      outer loop
         vertex 3.203624e+000 1.008475e+001 1.700000e+001
         vertex 2.625000e+000 9.796634e+000 9.644094e-016
         vertex 2.625000e+000 9.796634e+000 1.700000e+001
      endloop
   endfacet
   facet normal -5.351137e-001 8.447801e-001 6.553252e-017
      outer loop
         vertex 2.625000e+000 9.796634e+000 1.700000e+001
         vertex 2.625000e+000 9.796634e+000 9.644094e-016
         vertex 2.086168e+000 9.439590e+000 1.030397e-015
      endloop
   endfacet
   facet normal -5.693830e-001 8.220724e-001 6.972931e-017
      outer loop
         vertex 2.625000e+000 9.796634e+000 1.700000e+001
         vertex 2.086168e+000 9.439590e+000 1.030397e-015
         vertex 2.086168e+000 9.439590e+000 1.700000e+001
      endloop
   endfacet
   facet normal -6.348713e-001 7.726179e-001 7.774931e-017
      outer loop
         vertex 2.086168e+000 9.439590e+000 1.700000e+001
         vertex 2.086168e+000 9.439590e+000 1.030397e-015
         vertex 1.595297e+000 9.019037e+000 1.090512e-015
      endloop
   endfacet
   facet normal -6.660904e-001 7.458710e-001 8.157256e-017
      outer loop
         vertex 2.086168e+000 9.439590e+000 1.700000e+001
         vertex 1.595297e+000 9.019037e+000 1.090512e-015
         vertex 1.595297e+000 9.019037e+000 1.700000e+001
      endloop
   endfacet
   facet normal -7.250050e-001 6.887436e-001 8.878752e-017
      outer loop
         vertex 1.595297e+000 9.019037e+000 1.700000e+001
         vertex 1.595297e+000 9.019037e+000 1.090512e-015
         vertex 1.159827e+000 8.541350e+000 1.143841e-015
      endloop
   endfacet
   facet normal -7.527006e-001 6.583630e-001 9.217923e-017
      outer loop
         vertex 1.595297e+000 9.019037e+000 1.700000e+001
         vertex 1.159827e+000 8.541350e+000 1.143841e-015
         vertex 1.159827e+000 8.541350e+000 1.700000e+001
      endloop
   endfacet
   facet normal -8.041484e-001 5.944287e-001 9.847977e-017
      outer loop
         vertex 1.159827e+000 8.541350e+000 1.700000e+001
         vertex 1.159827e+000 8.541350e+000 1.143841e-015
         vertex 7.863599e-001 8.013769e+000 1.189578e-015
      endloop
   endfacet
   facet normal -8.279006e-001 5.608749e-001 1.013886e-016
      outer loop
         vertex 1.159827e+000 8.541350e+000 1.700000e+001
         vertex 7.863599e-001 8.013769e+000 1.189578e-015
         vertex 7.863599e-001 8.013769e+000 1.700000e+001
      endloop
   endfacet
   facet normal -8.711016e-001 4.911028e-001 1.066792e-016
      outer loop
         vertex 7.863599e-001 8.013769e+000 1.700000e+001
         vertex 7.863599e-001 8.013769e+000 1.189578e-015
         vertex 4.805573e-001 7.444292e+000 1.227028e-015
      endloop
   endfacet
   facet normal -8.905505e-001 4.548844e-001 1.090610e-016
      outer loop
         vertex 7.863599e-001 8.013769e+000 1.700000e+001
         vertex 4.805573e-001 7.444292e+000 1.227028e-015
         vertex 4.805573e-001 7.444292e+000 1.700000e+001
      endloop
   endfacet
   facet normal -9.248499e-001 3.803322e-001 1.132614e-016
      outer loop
         vertex 4.805573e-001 7.444292e+000 1.700000e+001
         vertex 4.805573e-001 7.444292e+000 1.227028e-015
         vertex 2.470543e-001 6.841551e+000 1.255624e-015
      endloop
   endfacet
   facet normal -9.397005e-001 3.419985e-001 1.150801e-016
      outer loop
         vertex 4.805573e-001 7.444292e+000 1.700000e+001
         vertex 2.470543e-001 6.841551e+000 1.255624e-015
         vertex 2.470543e-001 6.841551e+000 1.700000e+001
      endloop
   endfacet
   facet normal -9.645784e-001 2.637963e-001 1.181268e-016
      outer loop
         vertex 2.470543e-001 6.841551e+000 1.700000e+001
         vertex 2.470543e-001 6.841551e+000 1.255624e-015
         vertex 8.939113e-002 6.214685e+000 1.274932e-015
      endloop
   endfacet
   facet normal -9.746057e-001 2.239280e-001 1.193548e-016
      outer loop
         vertex 2.470543e-001 6.841551e+000 1.700000e+001
         vertex 8.939113e-002 6.214685e+000 1.274932e-015
         vertex 8.939113e-002 6.214685e+000 1.700000e+001
      endloop
   endfacet
   facet normal -9.896849e-001 1.432615e-001 1.212014e-016
      outer loop
         vertex 8.939113e-002 6.214685e+000 1.700000e+001
         vertex 8.939113e-002 6.214685e+000 1.274932e-015
         vertex 9.957235e-003 5.573195e+000 1.284660e-015
      endloop
   endfacet
   facet normal -9.947368e-001 1.024632e-001 1.218201e-016
      outer loop
         vertex 8.939113e-002 6.214685e+000 1.700000e+001
         vertex 9.957235e-003 5.573195e+000 1.284660e-015
         vertex 9.957235e-003 5.573195e+000 1.700000e+001
      endloop
   endfacet
   facet normal -9.997887e-001 2.055495e-002 1.224388e-016
      outer loop
         vertex 9.957235e-003 5.573195e+000 1.700000e+001
         vertex 9.957235e-003 5.573195e+000 1.284660e-015
         vertex 9.957235e-003 4.926805e+000 1.284660e-015
      endloop
   endfacet
   facet normal -9.997887e-001 -2.055495e-002 1.224388e-016
      outer loop
         vertex 9.957235e-003 5.573195e+000 1.700000e+001
         vertex 9.957235e-003 4.926805e+000 1.284660e-015
         vertex 9.957235e-003 4.926805e+000 1.700000e+001
      endloop
   endfacet
   facet normal -9.947368e-001 -1.024632e-001 1.218201e-016
      outer loop
         vertex 9.957235e-003 4.926805e+000 1.700000e+001
         vertex 9.957235e-003 4.926805e+000 1.284660e-015
         vertex 8.939113e-002 4.285315e+000 1.274932e-015
      endloop
   endfacet
   facet normal -9.896849e-001 -1.432615e-001 1.212014e-016
      outer loop
         vertex 9.957235e-003 4.926805e+000 1.700000e+001
         vertex 8.939113e-002 4.285315e+000 1.274932e-015
         vertex 8.939113e-002 4.285315e+000 1.700000e+001
      endloop
   endfacet
   facet normal -9.746057e-001 -2.239280e-001 1.193548e-016
      outer loop
         vertex 8.939113e-002 4.285315e+000 1.700000e+001
         vertex 8.939113e-002 4.285315e+000 1.274932e-015
         vertex 2.470543e-001 3.658448e+000 1.255624e-015
      endloop
   endfacet
   facet normal -9.645784e-001 -2.637963e-001 1.181268e-016
      outer loop
         vertex 8.939113e-002 4.285315e+000 1.700000e+001
         vertex 2.470543e-001 3.658448e+000 1.255624e-015
         vertex 2.470543e-001 3.658448e+000 1.700000e+001
      endloop
   endfacet
   facet normal -9.397005e-001 -3.419985e-001 1.150801e-016
      outer loop
         vertex 2.470543e-001 3.658448e+000 1.700000e+001
         vertex 2.470543e-001 3.658448e+000 1.255624e-015
         vertex 4.805573e-001 3.055708e+000 1.227028e-015
      endloop
   endfacet
   facet normal -9.248499e-001 -3.803322e-001 1.132614e-016
      outer loop
         vertex 2.470543e-001 3.658448e+000 1.700000e+001
         vertex 4.805573e-001 3.055708e+000 1.227028e-015
         vertex 4.805573e-001 3.055708e+000 1.700000e+001
      endloop
   endfacet
   facet normal -8.905505e-001 -4.548844e-001 1.090610e-016
      outer loop
         vertex 4.805573e-001 3.055708e+000 1.700000e+001
         vertex 4.805573e-001 3.055708e+000 1.227028e-015
         vertex 7.863599e-001 2.486231e+000 1.189578e-015
      endloop
   endfacet
   facet normal -8.711016e-001 -4.911028e-001 1.066792e-016
      outer loop
         vertex 4.805573e-001 3.055708e+000 1.700000e+001
         vertex 7.863599e-001 2.486231e+000 1.189578e-015
         vertex 7.863599e-001 2.486231e+000 1.700000e+001
      endloop
   endfacet
   facet normal -8.279006e-001 -5.608749e-001 1.013886e-016
      outer loop
         vertex 7.863599e-001 2.486231e+000 1.700000e+001
         vertex 7.863599e-001 2.486231e+000 1.189578e-015
         vertex 1.159827e+000 1.958650e+000 1.143841e-015
      endloop
   endfacet
   facet normal -8.041484e-001 -5.944287e-001 9.847977e-017
      outer loop
         vertex 7.863599e-001 2.486231e+000 1.700000e+001
         vertex 1.159827e+000 1.958650e+000 1.143841e-015
         vertex 1.159827e+000 1.958650e+000 1.700000e+001
      endloop
   endfacet
   facet normal -7.527006e-001 -6.583630e-001 9.217923e-017
      outer loop
         vertex 1.159827e+000 1.958650e+000 1.700000e+001
         vertex 1.159827e+000 1.958650e+000 1.143841e-015
         vertex 1.595297e+000 1.480962e+000 1.090512e-015
      endloop
   endfacet
   facet normal -7.250050e-001 -6.887436e-001 8.878751e-017
      outer loop
         vertex 1.159827e+000 1.958650e+000 1.700000e+001
         vertex 1.595297e+000 1.480962e+000 1.090512e-015
         vertex 1.595297e+000 1.480962e+000 1.700000e+001
      endloop
   endfacet
   facet normal -6.660904e-001 -7.458710e-001 8.157255e-017
      outer loop
         vertex 1.595297e+000 1.480962e+000 1.700000e+001
         vertex 1.595297e+000 1.480962e+000 1.090512e-015
         vertex 2.086168e+000 1.060409e+000 1.030397e-015
      endloop
   endfacet
   facet normal -6.348713e-001 -7.726179e-001 7.774931e-017
      outer loop
         vertex 1.595297e+000 1.480962e+000 1.700000e+001
         vertex 2.086168e+000 1.060409e+000 1.030397e-015
         vertex 2.086168e+000 1.060409e+000 1.700000e+001
      endloop
   endfacet
   facet normal -5.693830e-001 -8.220724e-001 6.972931e-017
      outer loop
         vertex 2.086168e+000 1.060409e+000 1.700000e+001
         vertex 2.086168e+000 1.060409e+000 1.030397e-015
         vertex 2.625000e+000 7.033665e-001 9.644094e-016
      endloop
   endfacet
   facet normal -5.351137e-001 -8.447801e-001 6.553252e-017
      outer loop
         vertex 2.086168e+000 1.060409e+000 1.700000e+001
         vertex 2.625000e+000 7.033665e-001 9.644094e-016
         vertex 2.625000e+000 7.033665e-001 1.700000e+001
      endloop
   endfacet
   facet normal -4.640442e-001 -8.858120e-001 5.682903e-017
      outer loop
         vertex 2.625000e+000 7.033665e-001 1.700000e+001
         vertex 2.625000e+000 7.033665e-001 9.644094e-016
         vertex 3.203624e+000 4.152460e-001 8.935483e-016
      endloop
   endfacet
   facet normal -4.272442e-001 -9.041363e-001 5.232232e-017
      outer loop
         vertex 2.625000e+000 7.033665e-001 1.700000e+001
         vertex 3.203624e+000 4.152460e-001 8.935483e-016
         vertex 3.203624e+000 4.152460e-001 1.700000e+001
      endloop
   endfacet
   facet normal -3.516711e-001 -9.361236e-001 4.306729e-017
      outer loop
         vertex 3.203624e+000 4.152460e-001 1.700000e+001
         vertex 3.203624e+000 4.152460e-001 8.935483e-016
         vertex 3.813269e+000 2.004155e-001 8.188883e-016
      endloop
   endfacet
   facet normal -3.128981e-001 -9.497867e-001 3.831896e-017
      outer loop
         vertex 3.203624e+000 4.152460e-001 1.700000e+001
         vertex 3.813269e+000 2.004155e-001 8.188883e-016
         vertex 3.813269e+000 2.004155e-001 1.700000e+001
      endloop
   endfacet
   facet normal -2.339669e-001 -9.722446e-001 2.865269e-017
      outer loop
         vertex 3.813269e+000 2.004155e-001 1.700000e+001
         vertex 3.813269e+000 2.004155e-001 8.188883e-016
         vertex 4.444694e+000 6.213132e-002 7.415611e-016
      endloop
   endfacet
   facet normal -1.938088e-001 -9.810393e-001 2.373473e-017
      outer loop
         vertex 3.813269e+000 2.004155e-001 1.700000e+001
         vertex 4.444694e+000 6.213132e-002 7.415611e-016
         vertex 4.444694e+000 6.213132e-002 1.700000e+001
      endloop
   endfacet
   facet normal -1.127161e-001 -9.936273e-001 1.380375e-017
      outer loop
         vertex 4.444694e+000 6.213132e-002 1.700000e+001
         vertex 4.444694e+000 6.213132e-002 7.415611e-016
         vertex 5.088326e+000 2.489891e-003 6.627389e-016
      endloop
   endfacet
   facet normal -7.178159e-002 -9.974204e-001 8.790710e-018
      outer loop
         vertex 4.444694e+000 6.213132e-002 1.700000e+001
         vertex 5.088326e+000 2.489891e-003 6.627389e-016
         vertex 5.088326e+000 2.489891e-003 1.700000e+001
      endloop
   endfacet
   facet normal 1.024335e-002 -9.999475e-001 -1.254448e-018
      outer loop
         vertex 5.088326e+000 2.489891e-003 1.700000e+001
         vertex 5.088326e+000 2.489891e-003 6.627389e-016
         vertex 5.734409e+000 2.239551e-002 5.836166e-016
      endloop
   endfacet
   facet normal 5.133376e-002 -9.986815e-001 -6.286572e-018
      outer loop
         vertex 5.088326e+000 2.489891e-003 1.700000e+001
         vertex 5.734409e+000 2.239551e-002 5.836166e-016
         vertex 5.734409e+000 2.239551e-002 1.700000e+001
      endloop
   endfacet
   facet normal 1.330476e-001 -9.911097e-001 -1.629363e-017
      outer loop
         vertex 5.734409e+000 2.239551e-002 1.700000e+001
         vertex 5.734409e+000 2.239551e-002 5.836166e-016
         vertex 6.373148e+000 1.215464e-001 5.053935e-016
      endloop
   endfacet
   facet normal 1.736710e-001 -9.848037e-001 -2.126856e-017
      outer loop
         vertex 5.734409e+000 2.239551e-002 1.700000e+001
         vertex 6.373148e+000 1.215464e-001 5.053935e-016
         vertex 6.373148e+000 1.215464e-001 1.700000e+001
      endloop
   endfacet
   facet normal 2.538349e-001 -9.672475e-001 -3.108581e-017
      outer loop
         vertex 6.373148e+000 1.215464e-001 1.700000e+001
         vertex 6.373148e+000 1.215464e-001 5.053935e-016
         vertex 6.994863e+000 2.984391e-001 4.292555e-016
      endloop
   endfacet
   facet normal 2.933754e-001 -9.559973e-001 -3.592813e-017
      outer loop
         vertex 6.373148e+000 1.215464e-001 1.700000e+001
         vertex 6.994863e+000 2.984391e-001 4.292555e-016
         vertex 6.994863e+000 2.984391e-001 1.700000e+001
      endloop
   endfacet
   facet normal 3.707744e-001 -9.287230e-001 -4.540676e-017
      outer loop
         vertex 6.994863e+000 2.984391e-001 1.700000e+001
         vertex 6.994863e+000 2.984391e-001 4.292555e-016
         vertex 7.590126e+000 5.503926e-001 3.563567e-016
      endloop
   endfacet
   facet normal 4.086327e-001 -9.126989e-001 -5.004307e-017
      outer loop
         vertex 6.994863e+000 2.984391e-001 1.700000e+001
         vertex 7.590126e+000 5.503926e-001 3.563567e-016
         vertex 7.590126e+000 5.503926e-001 1.700000e+001
      endloop
   endfacet
   facet normal 4.820932e-001 -8.761199e-001 -5.903939e-017
      outer loop
         vertex 7.590126e+000 5.503926e-001 1.700000e+001
         vertex 7.590126e+000 5.503926e-001 3.563567e-016
         vertex 8.149917e+000 8.735875e-001 2.878023e-016
      endloop
   endfacet
   facet normal 5.176954e-001 -8.555650e-001 -6.339941e-017
      outer loop
         vertex 7.590126e+000 5.503926e-001 1.700000e+001
         vertex 8.149917e+000 8.735875e-001 2.878023e-016
         vertex 8.149917e+000 8.735875e-001 1.700000e+001
      endloop
   endfacet
   facet normal 5.861042e-001 -8.102357e-001 -7.177706e-017
      outer loop
         vertex 8.149917e+000 8.735875e-001 1.700000e+001
         vertex 8.149917e+000 8.735875e-001 2.878023e-016
         vertex 8.665746e+000 1.263124e+000 2.246313e-016
      endloop
   endfacet
   facet normal 6.189105e-001 -7.854615e-001 -7.579468e-017
      outer loop
         vertex 8.149917e+000 8.735875e-001 1.700000e+001
         vertex 8.665746e+000 1.263124e+000 2.246313e-016
         vertex 8.665746e+000 1.263124e+000 1.700000e+001
      endloop
   endfacet
   facet normal 6.812302e-001 -7.320692e-001 -8.342664e-017
      outer loop
         vertex 8.665746e+000 1.263124e+000 1.700000e+001
         vertex 8.665746e+000 1.263124e+000 2.246313e-016
         vertex 9.129796e+000 1.713098e+000 1.678015e-016
      endloop
   endfacet
   facet normal 7.107435e-001 -7.034512e-001 -8.704099e-017
      outer loop
         vertex 8.665746e+000 1.263124e+000 1.700000e+001
         vertex 9.129796e+000 1.713098e+000 1.678015e-016
         vertex 9.129796e+000 1.713098e+000 1.700000e+001
      endloop
   endfacet
   facet normal 7.660296e-001 -6.428053e-001 -9.381157e-017
      outer loop
         vertex 9.129796e+000 1.713098e+000 1.700000e+001
         vertex 9.129796e+000 1.713098e+000 1.678015e-016
         vertex 9.535033e+000 2.216687e+000 1.181743e-016
      endloop
   endfacet
   facet normal 7.918024e-001 -6.107774e-001 -9.696783e-017
      outer loop
         vertex 9.129796e+000 1.713098e+000 1.700000e+001
         vertex 9.535033e+000 2.216687e+000 1.181743e-016
         vertex 9.535033e+000 2.216687e+000 1.700000e+001
      endloop
   endfacet
   facet normal 8.392168e-001 -5.437971e-001 -1.027744e-016
      outer loop
         vertex 9.535033e+000 2.216687e+000 1.700000e+001
         vertex 9.535033e+000 2.216687e+000 1.181743e-016
         vertex 9.875315e+000 2.766259e+000 7.650196e-017
      endloop
   endfacet
   facet normal 8.608583e-001 -5.088447e-001 -1.054247e-016
      outer loop
         vertex 9.535033e+000 2.216687e+000 1.700000e+001
         vertex 9.875315e+000 2.766259e+000 7.650196e-017
         vertex 9.875315e+000 2.766259e+000 1.700000e+001
      endloop
   endfacet
   facet normal 8.996822e-001 -4.365455e-001 -1.101793e-016
      outer loop
         vertex 9.875315e+000 2.766259e+000 1.700000e+001
         vertex 9.875315e+000 2.766259e+000 7.650196e-017
         vertex 1.014548e+001 3.353481e+000 4.341628e-017
      endloop
   endfacet
   facet normal 9.168645e-001 -3.991986e-001 -1.122835e-016
      outer loop
         vertex 9.875315e+000 2.766259e+000 1.700000e+001
         vertex 1.014548e+001 3.353481e+000 4.341628e-017
         vertex 1.014548e+001 3.353481e+000 1.700000e+001
      endloop
   endfacet
   facet normal 9.465094e-001 -3.226763e-001 -1.159140e-016
      outer loop
         vertex 1.014548e+001 3.353481e+000 1.700000e+001
         vertex 1.014548e+001 3.353481e+000 4.341628e-017
         vertex 1.034143e+001 3.969453e+000 1.941874e-017
      endloop
   endfacet
   facet normal 9.589720e-001 -2.835010e-001 -1.174402e-016
      outer loop
         vertex 1.014548e+001 3.353481e+000 1.700000e+001
         vertex 1.034143e+001 3.969453e+000 1.941874e-017
         vertex 1.034143e+001 3.969453e+000 1.700000e+001
      endloop
   endfacet
   facet normal 9.789885e-001 -2.039157e-001 -1.198915e-016
      outer loop
         vertex 1.034143e+001 3.969453e+000 1.700000e+001
         vertex 1.034143e+001 3.969453e+000 1.941874e-017
         vertex 1.046021e+001 4.604836e+000 4.873154e-018
      endloop
   endfacet
   facet normal 9.865423e-001 -1.635057e-001 -1.208166e-016
      outer loop
         vertex 1.034143e+001 3.969453e+000 1.700000e+001
         vertex 1.046021e+001 4.604836e+000 4.873154e-018
         vertex 1.046021e+001 4.604836e+000 1.700000e+001
      endloop
   endfacet
   facet normal 9.966271e-001 -8.206387e-002 -1.220516e-016
      outer loop
         vertex 1.046021e+001 4.604836e+000 1.700000e+001
         vertex 1.046021e+001 4.604836e+000 4.873154e-018
         vertex 1.050000e+001 5.250000e+000 9.629650e-032
      endloop
   endfacet
   facet normal 9.991578e-001 -4.103193e-002 -1.223615e-016
      outer loop
         vertex 1.046021e+001 4.604836e+000 1.700000e+001
         vertex 1.050000e+001 5.250000e+000 9.629650e-032
         vertex 1.050000e+001 5.250000e+000 1.700000e+001
      endloop
   endfacet
   facet normal 9.991578e-001 4.103193e-002 -1.223616e-016
      outer loop
         vertex 1.050000e+001 5.250000e+000 1.700000e+001
         vertex 1.050000e+001 5.250000e+000 9.629650e-032
         vertex 1.046021e+001 5.895164e+000 4.873154e-018
      endloop
   endfacet
   facet normal -1.224647e-016 0.000000e+000 -1.000000e+000
      outer loop
         vertex 3.157283e+000 4.880997e+000 7.078724e-016
         vertex 9.957235e-003 4.926805e+000 1.093309e-015
         vertex 3.125000e+000 5.250000e+000 7.118259e-016
      endloop
   endfacet
   facet normal -1.224647e-016 0.000000e+000 -1.000000e+000
      outer loop
         vertex 3.125000e+000 5.250000e+000 7.118259e-016
         vertex 9.957235e-003 4.926805e+000 1.093309e-015
         vertex 9.957235e-003 5.573195e+000 1.093309e-015
      endloop
   endfacet
   facet normal -1.224647e-016 0.000000e+000 -1.000000e+000
      outer loop
         vertex 3.125000e+000 5.250000e+000 7.118259e-016
         vertex 9.957235e-003 5.573195e+000 1.093309e-015
         vertex 3.157283e+000 5.619002e+000 7.078724e-016
      endloop
   endfacet
   facet normal -1.224647e-016 0.000000e+000 -1.000000e+000
      outer loop
         vertex 3.157283e+000 5.619002e+000 7.078724e-016
         vertex 9.957235e-003 5.573195e+000 1.093309e-015
         vertex 8.939113e-002 6.214685e+000 1.083581e-015
      endloop
   endfacet
   facet normal -1.224647e-016 0.000000e+000 -1.000000e+000
      outer loop
         vertex 3.157283e+000 5.619002e+000 7.078724e-016
         vertex 8.939113e-002 6.214685e+000 1.083581e-015
         vertex 3.253153e+000 5.976793e+000 6.961318e-016
      endloop
   endfacet
   facet normal -1.224647e-016 0.000000e+000 -1.000000e+000
      outer loop
         vertex 3.409696e+000 4.187500e+000 6.769607e-016
         vertex 4.805573e-001 3.055708e+000 1.035677e-015
         vertex 3.253153e+000 4.523207e+000 6.961318e-016
      endloop
   endfacet
   facet normal -1.224647e-016 0.000000e+000 -1.000000e+000
      outer loop
         vertex 3.253153e+000 4.523207e+000 6.961318e-016
         vertex 4.805573e-001 3.055708e+000 1.035677e-015
         vertex 2.470543e-001 3.658448e+000 1.064273e-015
      endloop
   endfacet
   facet normal -1.224647e-016 0.000000e+000 -1.000000e+000
      outer loop
         vertex 3.253153e+000 4.523207e+000 6.961318e-016
         vertex 2.470543e-001 3.658448e+000 1.064273e-015
         vertex 3.157283e+000 4.880997e+000 7.078724e-016
      endloop
   endfacet
   facet normal -1.224647e-016 0.000000e+000 -1.000000e+000
      outer loop
         vertex 3.157283e+000 4.880997e+000 7.078724e-016
         vertex 2.470543e-001 3.658448e+000 1.064273e-015
         vertex 8.939113e-002 4.285315e+000 1.083581e-015
      endloop
   endfacet
   facet normal -1.224647e-016 0.000000e+000 -1.000000e+000
      outer loop
         vertex 3.157283e+000 4.880997e+000 7.078724e-016
         vertex 8.939113e-002 4.285315e+000 1.083581e-015
         vertex 9.957235e-003 4.926805e+000 1.093309e-015
      endloop
   endfacet
   facet normal -1.224647e-016 0.000000e+000 -1.000000e+000
      outer loop
         vertex 4.880997e+000 3.157283e+000 4.967783e-016
         vertex 3.813269e+000 2.004155e-001 6.275373e-016
         vertex 4.523207e+000 3.253153e+000 5.405950e-016
      endloop
   endfacet
   facet normal -1.224647e-016 0.000000e+000 -1.000000e+000
      outer loop
         vertex 4.523207e+000 3.253153e+000 5.405950e-016
         vertex 3.813269e+000 2.004155e-001 6.275373e-016
         vertex 3.203624e+000 4.152460e-001 7.021973e-016
      endloop
   endfacet
   facet normal -1.224647e-016 0.000000e+000 -1.000000e+000
      outer loop
         vertex 4.523207e+000 3.253153e+000 5.405950e-016
         vertex 3.203624e+000 4.152460e-001 7.021973e-016
         vertex 4.187500e+000 3.409696e+000 5.817072e-016
      endloop
   endfacet
   facet normal -1.224647e-016 0.000000e+000 -1.000000e+000
      outer loop
         vertex 4.187500e+000 3.409696e+000 5.817072e-016
         vertex 3.203624e+000 4.152460e-001 7.021973e-016
         vertex 2.625000e+000 7.033665e-001 7.730583e-016
      endloop
   endfacet
   facet normal -1.224647e-016 0.000000e+000 -1.000000e+000
      outer loop
         vertex 4.187500e+000 3.409696e+000 5.817072e-016
         vertex 2.625000e+000 7.033665e-001 7.730583e-016
         vertex 3.884076e+000 3.622156e+000 6.188659e-016
      endloop
   endfacet
   facet normal -1.224647e-016 0.000000e+000 -1.000000e+000
      outer loop
         vertex 5.619002e+000 3.157283e+000 4.063988e-016
         vertex 5.734409e+000 2.239551e-002 3.922655e-016
         vertex 5.250000e+000 3.125000e+000 4.515885e-016
      endloop
   endfacet
   facet normal -1.224647e-016 0.000000e+000 -1.000000e+000
      outer loop
         vertex 5.250000e+000 3.125000e+000 4.515885e-016
         vertex 5.734409e+000 2.239551e-002 3.922655e-016
         vertex 5.088326e+000 2.489891e-003 4.713879e-016
      endloop
   endfacet
   facet normal -1.224647e-016 0.000000e+000 -1.000000e+000
      outer loop
         vertex 5.250000e+000 3.125000e+000 4.515885e-016
         vertex 5.088326e+000 2.489891e-003 4.713879e-016
         vertex 4.880997e+000 3.157283e+000 4.967783e-016
      endloop
   endfacet
   facet normal -1.224647e-016 0.000000e+000 -1.000000e+000
      outer loop
         vertex 4.880997e+000 3.157283e+000 4.967783e-016
         vertex 5.088326e+000 2.489891e-003 4.713879e-016
         vertex 4.444694e+000 6.213132e-002 5.502101e-016
      endloop
   endfacet
   facet normal -1.224647e-016 0.000000e+000 -1.000000e+000
      outer loop
         vertex 4.880997e+000 3.157283e+000 4.967783e-016
         vertex 4.444694e+000 6.213132e-002 5.502101e-016
         vertex 3.813269e+000 2.004155e-001 6.275373e-016
      endloop
   endfacet
   facet normal -1.224647e-016 0.000000e+000 -1.000000e+000
      outer loop
         vertex 2.625000e+000 7.033665e-001 7.730583e-016
         vertex 2.086168e+000 1.060409e+000 8.390462e-016
         vertex 3.884076e+000 3.622156e+000 6.188659e-016
      endloop
   endfacet
   facet normal -1.224647e-016 0.000000e+000 -1.000000e+000
      outer loop
         vertex 3.884076e+000 3.622156e+000 6.188659e-016
         vertex 2.086168e+000 1.060409e+000 8.390462e-016
         vertex 1.595297e+000 1.480962e+000 8.991605e-016
      endloop
   endfacet
   facet normal -1.224647e-016 0.000000e+000 -1.000000e+000
      outer loop
         vertex 3.884076e+000 3.622156e+000 6.188659e-016
         vertex 1.595297e+000 1.480962e+000 8.991605e-016
         vertex 3.622156e+000 3.884076e+000 6.509420e-016
      endloop
   endfacet
   facet normal -1.224647e-016 0.000000e+000 -1.000000e+000
      outer loop
         vertex 3.622156e+000 3.884076e+000 6.509420e-016
         vertex 1.595297e+000 1.480962e+000 8.991605e-016
         vertex 1.159827e+000 1.958650e+000 9.524902e-016
      endloop
   endfacet
   facet normal -1.224647e-016 0.000000e+000 -1.000000e+000
      outer loop
         vertex 3.622156e+000 3.884076e+000 6.509420e-016
         vertex 1.159827e+000 1.958650e+000 9.524902e-016
         vertex 3.409696e+000 4.187500e+000 6.769607e-016
      endloop
   endfacet
   facet normal -1.224647e-016 0.000000e+000 -1.000000e+000
      outer loop
         vertex 3.409696e+000 4.187500e+000 6.769607e-016
         vertex 1.159827e+000 1.958650e+000 9.524902e-016
         vertex 7.863599e-001 2.486231e+000 9.982267e-016
      endloop
   endfacet
   facet normal -1.224647e-016 0.000000e+000 -1.000000e+000
      outer loop
         vertex 3.409696e+000 4.187500e+000 6.769607e-016
         vertex 7.863599e-001 2.486231e+000 9.982267e-016
         vertex 4.805573e-001 3.055708e+000 1.035677e-015
      endloop
   endfacet
   facet normal -1.224647e-016 0.000000e+000 -1.000000e+000
      outer loop
         vertex 6.615924e+000 3.622156e+000 2.843111e-016
         vertex 8.149917e+000 8.735875e-001 9.645121e-017
         vertex 6.312500e+000 3.409696e+000 3.214698e-016
      endloop
   endfacet
   facet normal -1.224647e-016 0.000000e+000 -1.000000e+000
      outer loop
         vertex 6.312500e+000 3.409696e+000 3.214698e-016
         vertex 8.149917e+000 8.735875e-001 9.645121e-017
         vertex 7.590126e+000 5.503926e-001 1.650057e-016
      endloop
   endfacet
   facet normal -1.224647e-016 0.000000e+000 -1.000000e+000
      outer loop
         vertex 6.312500e+000 3.409696e+000 3.214698e-016
         vertex 7.590126e+000 5.503926e-001 1.650057e-016
         vertex 5.976793e+000 3.253153e+000 3.625821e-016
      endloop
   endfacet
   facet normal -1.224647e-016 0.000000e+000 -1.000000e+000
      outer loop
         vertex 5.976793e+000 3.253153e+000 3.625821e-016
         vertex 7.590126e+000 5.503926e-001 1.650057e-016
         vertex 6.994863e+000 2.984391e-001 2.379044e-016
      endloop
   endfacet
   facet normal -1.224647e-016 0.000000e+000 -1.000000e+000
      outer loop
         vertex 5.976793e+000 3.253153e+000 3.625821e-016
         vertex 6.994863e+000 2.984391e-001 2.379044e-016
         vertex 5.619002e+000 3.157283e+000 4.063988e-016
      endloop
   endfacet
   facet normal -1.224647e-016 0.000000e+000 -1.000000e+000
      outer loop
         vertex 5.619002e+000 3.157283e+000 4.063988e-016
         vertex 6.994863e+000 2.984391e-001 2.379044e-016
         vertex 6.373148e+000 1.215464e-001 3.140424e-016
      endloop
   endfacet
   facet normal -1.224647e-016 0.000000e+000 -1.000000e+000
      outer loop
         vertex 5.619002e+000 3.157283e+000 4.063988e-016
         vertex 6.373148e+000 1.215464e-001 3.140424e-016
         vertex 5.734409e+000 2.239551e-002 3.922655e-016
      endloop
   endfacet
   facet normal -1.224647e-016 0.000000e+000 -1.000000e+000
      outer loop
         vertex 7.246847e+000 5.976793e+000 2.070453e-016
         vertex 1.034143e+001 6.530547e+000 -1.719323e-016
         vertex 7.342717e+000 5.619002e+000 1.953047e-016
      endloop
   endfacet
   facet normal -1.224647e-016 0.000000e+000 -1.000000e+000
      outer loop
         vertex 7.342717e+000 5.619002e+000 1.953047e-016
         vertex 1.034143e+001 6.530547e+000 -1.719323e-016
         vertex 1.046021e+001 5.895164e+000 -1.864779e-016
      endloop
   endfacet
   facet normal -1.224647e-016 0.000000e+000 -1.000000e+000
      outer loop
         vertex 7.342717e+000 5.619002e+000 1.953047e-016
         vertex 1.046021e+001 5.895164e+000 -1.864779e-016
         vertex 7.375000e+000 5.250000e+000 1.913511e-016
      endloop
   endfacet
   facet normal -1.224647e-016 0.000000e+000 -1.000000e+000
      outer loop
         vertex 7.375000e+000 5.250000e+000 1.913511e-016
         vertex 1.046021e+001 5.895164e+000 -1.864779e-016
         vertex 1.050000e+001 5.250000e+000 -1.913511e-016
      endloop
   endfacet
   facet normal -1.224647e-016 0.000000e+000 -1.000000e+000
      outer loop
         vertex 7.375000e+000 5.250000e+000 1.913511e-016
         vertex 1.050000e+001 5.250000e+000 -1.913511e-016
         vertex 7.342717e+000 4.880997e+000 1.953047e-016
      endloop
   endfacet
   facet normal -1.224647e-016 0.000000e+000 -1.000000e+000
      outer loop
         vertex 7.090304e+000 4.187500e+000 2.262163e-016
         vertex 9.535033e+000 2.216687e+000 -7.317678e-017
         vertex 6.877844e+000 3.884076e+000 2.522351e-016
      endloop
   endfacet
   facet normal -1.224647e-016 0.000000e+000 -1.000000e+000
      outer loop
         vertex 6.877844e+000 3.884076e+000 2.522351e-016
         vertex 9.535033e+000 2.216687e+000 -7.317678e-017
         vertex 9.129796e+000 1.713098e+000 -2.354957e-017
      endloop
   endfacet
   facet normal -1.224647e-016 0.000000e+000 -1.000000e+000
      outer loop
         vertex 6.877844e+000 3.884076e+000 2.522351e-016
         vertex 9.129796e+000 1.713098e+000 -2.354957e-017
         vertex 6.615924e+000 3.622156e+000 2.843111e-016
      endloop
   endfacet
   facet normal -1.224647e-016 0.000000e+000 -1.000000e+000
      outer loop
         vertex 6.615924e+000 3.622156e+000 2.843111e-016
         vertex 9.129796e+000 1.713098e+000 -2.354957e-017
         vertex 8.665746e+000 1.263124e+000 3.328026e-017
      endloop
   endfacet
   facet normal -1.224647e-016 0.000000e+000 -1.000000e+000
      outer loop
         vertex 6.615924e+000 3.622156e+000 2.843111e-016
         vertex 8.665746e+000 1.263124e+000 3.328026e-017
         vertex 8.149917e+000 8.735875e-001 9.645121e-017
      endloop
   endfacet
   facet normal -1.224647e-016 0.000000e+000 -1.000000e+000
      outer loop
         vertex 6.877844e+000 6.615924e+000 2.522351e-016
         vertex 9.535033e+000 8.283313e+000 -7.317678e-017
         vertex 7.090304e+000 6.312500e+000 2.262163e-016
      endloop
   endfacet
   facet normal -1.224647e-016 0.000000e+000 -1.000000e+000
      outer loop
         vertex 7.090304e+000 6.312500e+000 2.262163e-016
         vertex 9.535033e+000 8.283313e+000 -7.317678e-017
         vertex 9.875315e+000 7.733741e+000 -1.148491e-016
      endloop
   endfacet
   facet normal -1.224647e-016 0.000000e+000 -1.000000e+000
      outer loop
         vertex 7.090304e+000 6.312500e+000 2.262163e-016
         vertex 9.875315e+000 7.733741e+000 -1.148491e-016
         vertex 7.246847e+000 5.976793e+000 2.070453e-016
      endloop
   endfacet
   facet normal -1.224647e-016 0.000000e+000 -1.000000e+000
      outer loop
         vertex 7.246847e+000 5.976793e+000 2.070453e-016
         vertex 9.875315e+000 7.733741e+000 -1.148491e-016
         vertex 1.014548e+001 7.146519e+000 -1.479348e-016
      endloop
   endfacet
   facet normal -1.224647e-016 0.000000e+000 -1.000000e+000
      outer loop
         vertex 7.246847e+000 5.976793e+000 2.070453e-016
         vertex 1.014548e+001 7.146519e+000 -1.479348e-016
         vertex 1.034143e+001 6.530547e+000 -1.719323e-016
      endloop
   endfacet
   facet normal -1.224647e-016 0.000000e+000 -1.000000e+000
      outer loop
         vertex 1.050000e+001 5.250000e+000 -1.913511e-016
         vertex 1.046021e+001 4.604836e+000 -1.864779e-016
         vertex 7.342717e+000 4.880997e+000 1.953047e-016
      endloop
   endfacet
   facet normal -1.224647e-016 0.000000e+000 -1.000000e+000
      outer loop
         vertex 7.342717e+000 4.880997e+000 1.953047e-016
         vertex 1.046021e+001 4.604836e+000 -1.864779e-016
         vertex 1.034143e+001 3.969453e+000 -1.719323e-016
      endloop
   endfacet
   facet normal -1.224647e-016 0.000000e+000 -1.000000e+000
      outer loop
         vertex 7.342717e+000 4.880997e+000 1.953047e-016
         vertex 1.034143e+001 3.969453e+000 -1.719323e-016
         vertex 7.246847e+000 4.523207e+000 2.070453e-016
      endloop
   endfacet
   facet normal -1.224647e-016 0.000000e+000 -1.000000e+000
      outer loop
         vertex 7.246847e+000 4.523207e+000 2.070453e-016
         vertex 1.034143e+001 3.969453e+000 -1.719323e-016
         vertex 1.014548e+001 3.353481e+000 -1.479348e-016
      endloop
   endfacet
   facet normal -1.224647e-016 0.000000e+000 -1.000000e+000
      outer loop
         vertex 7.246847e+000 4.523207e+000 2.070453e-016
         vertex 1.014548e+001 3.353481e+000 -1.479348e-016
         vertex 7.090304e+000 4.187500e+000 2.262163e-016
      endloop
   endfacet
   facet normal -1.224647e-016 0.000000e+000 -1.000000e+000
      outer loop
         vertex 7.090304e+000 4.187500e+000 2.262163e-016
         vertex 1.014548e+001 3.353481e+000 -1.479348e-016
         vertex 9.875315e+000 2.766259e+000 -1.148491e-016
      endloop
   endfacet
   facet normal -1.224647e-016 0.000000e+000 -1.000000e+000
      outer loop
         vertex 7.090304e+000 4.187500e+000 2.262163e-016
         vertex 9.875315e+000 2.766259e+000 -1.148491e-016
         vertex 9.535033e+000 2.216687e+000 -7.317678e-017
      endloop
   endfacet
   facet normal -1.224647e-016 0.000000e+000 -1.000000e+000
      outer loop
         vertex 5.250000e+000 7.375000e+000 4.515885e-016
         vertex 5.734409e+000 1.047760e+001 3.922655e-016
         vertex 5.619002e+000 7.342717e+000 4.063988e-016
      endloop
   endfacet
   facet normal -1.224647e-016 0.000000e+000 -1.000000e+000
      outer loop
         vertex 5.619002e+000 7.342717e+000 4.063988e-016
         vertex 5.734409e+000 1.047760e+001 3.922655e-016
         vertex 6.373148e+000 1.037845e+001 3.140424e-016
      endloop
   endfacet
   facet normal -1.224647e-016 0.000000e+000 -1.000000e+000
      outer loop
         vertex 5.619002e+000 7.342717e+000 4.063988e-016
         vertex 6.373148e+000 1.037845e+001 3.140424e-016
         vertex 5.976793e+000 7.246847e+000 3.625821e-016
      endloop
   endfacet
   facet normal -1.224647e-016 0.000000e+000 -1.000000e+000
      outer loop
         vertex 4.523207e+000 7.246847e+000 5.405950e-016
         vertex 3.813269e+000 1.029958e+001 6.275373e-016
         vertex 4.880997e+000 7.342717e+000 4.967783e-016
      endloop
   endfacet
   facet normal -1.224647e-016 0.000000e+000 -1.000000e+000
      outer loop
         vertex 4.880997e+000 7.342717e+000 4.967783e-016
         vertex 3.813269e+000 1.029958e+001 6.275373e-016
         vertex 4.444694e+000 1.043787e+001 5.502101e-016
      endloop
   endfacet
   facet normal -1.224647e-016 0.000000e+000 -1.000000e+000
      outer loop
         vertex 4.880997e+000 7.342717e+000 4.967783e-016
         vertex 4.444694e+000 1.043787e+001 5.502101e-016
         vertex 5.250000e+000 7.375000e+000 4.515885e-016
      endloop
   endfacet
   facet normal -1.224647e-016 0.000000e+000 -1.000000e+000
      outer loop
         vertex 5.250000e+000 7.375000e+000 4.515885e-016
         vertex 4.444694e+000 1.043787e+001 5.502101e-016
         vertex 5.088326e+000 1.049751e+001 4.713879e-016
      endloop
   endfacet
   facet normal -1.224647e-016 0.000000e+000 -1.000000e+000
      outer loop
         vertex 5.250000e+000 7.375000e+000 4.515885e-016
         vertex 5.088326e+000 1.049751e+001 4.713879e-016
         vertex 5.734409e+000 1.047760e+001 3.922655e-016
      endloop
   endfacet
   facet normal -1.224647e-016 0.000000e+000 -1.000000e+000
      outer loop
         vertex 3.622156e+000 6.615924e+000 6.509420e-016
         vertex 1.595297e+000 9.019037e+000 8.991605e-016
         vertex 3.884076e+000 6.877844e+000 6.188659e-016
      endloop
   endfacet
   facet normal -1.224647e-016 0.000000e+000 -1.000000e+000
      outer loop
         vertex 3.884076e+000 6.877844e+000 6.188659e-016
         vertex 1.595297e+000 9.019037e+000 8.991605e-016
         vertex 2.086168e+000 9.439590e+000 8.390462e-016
      endloop
   endfacet
   facet normal -1.224647e-016 0.000000e+000 -1.000000e+000
      outer loop
         vertex 3.884076e+000 6.877844e+000 6.188659e-016
         vertex 2.086168e+000 9.439590e+000 8.390462e-016
         vertex 4.187500e+000 7.090304e+000 5.817072e-016
      endloop
   endfacet
   facet normal -1.224647e-016 0.000000e+000 -1.000000e+000
      outer loop
         vertex 4.187500e+000 7.090304e+000 5.817072e-016
         vertex 2.086168e+000 9.439590e+000 8.390462e-016
         vertex 2.625000e+000 9.796634e+000 7.730583e-016
      endloop
   endfacet
   facet normal -1.224647e-016 0.000000e+000 -1.000000e+000
      outer loop
         vertex 4.187500e+000 7.090304e+000 5.817072e-016
         vertex 2.625000e+000 9.796634e+000 7.730583e-016
         vertex 4.523207e+000 7.246847e+000 5.405950e-016
      endloop
   endfacet
   facet normal -1.224647e-016 0.000000e+000 -1.000000e+000
      outer loop
         vertex 4.523207e+000 7.246847e+000 5.405950e-016
         vertex 2.625000e+000 9.796634e+000 7.730583e-016
         vertex 3.203624e+000 1.008475e+001 7.021973e-016
      endloop
   endfacet
   facet normal -1.224647e-016 0.000000e+000 -1.000000e+000
      outer loop
         vertex 4.523207e+000 7.246847e+000 5.405950e-016
         vertex 3.203624e+000 1.008475e+001 7.021973e-016
         vertex 3.813269e+000 1.029958e+001 6.275373e-016
      endloop
   endfacet
   facet normal -1.224647e-016 0.000000e+000 -1.000000e+000
      outer loop
         vertex 8.939113e-002 6.214685e+000 1.083581e-015
         vertex 2.470543e-001 6.841551e+000 1.064273e-015
         vertex 3.253153e+000 5.976793e+000 6.961318e-016
      endloop
   endfacet
   facet normal -1.224647e-016 0.000000e+000 -1.000000e+000
      outer loop
         vertex 3.253153e+000 5.976793e+000 6.961318e-016
         vertex 2.470543e-001 6.841551e+000 1.064273e-015
         vertex 4.805573e-001 7.444292e+000 1.035677e-015
      endloop
   endfacet
   facet normal -1.224647e-016 0.000000e+000 -1.000000e+000
      outer loop
         vertex 3.253153e+000 5.976793e+000 6.961318e-016
         vertex 4.805573e-001 7.444292e+000 1.035677e-015
         vertex 3.409696e+000 6.312500e+000 6.769607e-016
      endloop
   endfacet
   facet normal -1.224647e-016 0.000000e+000 -1.000000e+000
      outer loop
         vertex 3.409696e+000 6.312500e+000 6.769607e-016
         vertex 4.805573e-001 7.444292e+000 1.035677e-015
         vertex 7.863599e-001 8.013769e+000 9.982267e-016
      endloop
   endfacet
   facet normal -1.224647e-016 0.000000e+000 -1.000000e+000
      outer loop
         vertex 3.409696e+000 6.312500e+000 6.769607e-016
         vertex 7.863599e-001 8.013769e+000 9.982267e-016
         vertex 3.622156e+000 6.615924e+000 6.509420e-016
      endloop
   endfacet
   facet normal -1.224647e-016 0.000000e+000 -1.000000e+000
      outer loop
         vertex 3.622156e+000 6.615924e+000 6.509420e-016
         vertex 7.863599e-001 8.013769e+000 9.982267e-016
         vertex 1.159827e+000 8.541350e+000 9.524902e-016
      endloop
   endfacet
   facet normal -1.224647e-016 0.000000e+000 -1.000000e+000
      outer loop
         vertex 3.622156e+000 6.615924e+000 6.509420e-016
         vertex 1.159827e+000 8.541350e+000 9.524902e-016
         vertex 1.595297e+000 9.019037e+000 8.991605e-016
      endloop
   endfacet
   facet normal -1.224647e-016 0.000000e+000 -1.000000e+000
      outer loop
         vertex 6.373148e+000 1.037845e+001 3.140424e-016
         vertex 6.994863e+000 1.020156e+001 2.379044e-016
         vertex 5.976793e+000 7.246847e+000 3.625821e-016
      endloop
   endfacet
   facet normal -1.224647e-016 0.000000e+000 -1.000000e+000
      outer loop
         vertex 5.976793e+000 7.246847e+000 3.625821e-016
         vertex 6.994863e+000 1.020156e+001 2.379044e-016
         vertex 7.590126e+000 9.949608e+000 1.650057e-016
      endloop
   endfacet
   facet normal -1.224647e-016 0.000000e+000 -1.000000e+000
      outer loop
         vertex 5.976793e+000 7.246847e+000 3.625821e-016
         vertex 7.590126e+000 9.949608e+000 1.650057e-016
         vertex 6.312500e+000 7.090304e+000 3.214698e-016
      endloop
   endfacet
   facet normal -1.224647e-016 0.000000e+000 -1.000000e+000
      outer loop
         vertex 6.312500e+000 7.090304e+000 3.214698e-016
         vertex 7.590126e+000 9.949608e+000 1.650057e-016
         vertex 8.149917e+000 9.626412e+000 9.645121e-017
      endloop
   endfacet
   facet normal -1.224647e-016 0.000000e+000 -1.000000e+000
      outer loop
         vertex 6.312500e+000 7.090304e+000 3.214698e-016
         vertex 8.149917e+000 9.626412e+000 9.645121e-017
         vertex 6.615924e+000 6.877844e+000 2.843111e-016
      endloop
   endfacet
   facet normal -1.224647e-016 0.000000e+000 -1.000000e+000
      outer loop
         vertex 6.615924e+000 6.877844e+000 2.843111e-016
         vertex 8.149917e+000 9.626412e+000 9.645121e-017
         vertex 8.665746e+000 9.236876e+000 3.328026e-017
      endloop
   endfacet
   facet normal -1.224647e-016 0.000000e+000 -1.000000e+000
      outer loop
         vertex 6.615924e+000 6.877844e+000 2.843111e-016
         vertex 8.665746e+000 9.236876e+000 3.328026e-017
         vertex 6.877844e+000 6.615924e+000 2.522351e-016
      endloop
   endfacet
   facet normal -1.224647e-016 0.000000e+000 -1.000000e+000
      outer loop
         vertex 6.877844e+000 6.615924e+000 2.522351e-016
         vertex 8.665746e+000 9.236876e+000 3.328026e-017
         vertex 9.129796e+000 8.786901e+000 -2.354957e-017
      endloop
   endfacet
   facet normal -1.224647e-016 0.000000e+000 -1.000000e+000
      outer loop
         vertex 6.877844e+000 6.615924e+000 2.522351e-016
         vertex 9.129796e+000 8.786901e+000 -2.354957e-017
         vertex 9.535033e+000 8.283313e+000 -7.317678e-017
      endloop
   endfacet
   facet normal 0.000000e+000 0.000000e+000 1.000000e+000
      outer loop
         vertex 5.250000e+000 3.125000e+000 1.700000e+001
         vertex 5.734409e+000 2.239551e-002 1.700000e+001
         vertex 5.619002e+000 3.157283e+000 1.700000e+001
      endloop
   endfacet
   facet normal 0.000000e+000 0.000000e+000 1.000000e+000
      outer loop
         vertex 5.619002e+000 3.157283e+000 1.700000e+001
         vertex 5.734409e+000 2.239551e-002 1.700000e+001
         vertex 6.373148e+000 1.215464e-001 1.700000e+001
      endloop
   endfacet
   facet normal 0.000000e+000 0.000000e+000 1.000000e+000
      outer loop
         vertex 5.619002e+000 3.157283e+000 1.700000e+001
         vertex 6.373148e+000 1.215464e-001 1.700000e+001
         vertex 5.976793e+000 3.253153e+000 1.700000e+001
      endloop
   endfacet
   facet normal 0.000000e+000 0.000000e+000 1.000000e+000
      outer loop
         vertex 5.976793e+000 3.253153e+000 1.700000e+001
         vertex 6.373148e+000 1.215464e-001 1.700000e+001
         vertex 6.994863e+000 2.984391e-001 1.700000e+001
      endloop
   endfacet
   facet normal 0.000000e+000 0.000000e+000 1.000000e+000
      outer loop
         vertex 5.976793e+000 3.253153e+000 1.700000e+001
         vertex 6.994863e+000 2.984391e-001 1.700000e+001
         vertex 6.312500e+000 3.409696e+000 1.700000e+001
      endloop
   endfacet
   facet normal 0.000000e+000 0.000000e+000 1.000000e+000
      outer loop
         vertex 3.622156e+000 3.884076e+000 1.700000e+001
         vertex 1.595297e+000 1.480962e+000 1.700000e+001
         vertex 3.884076e+000 3.622156e+000 1.700000e+001
      endloop
   endfacet
   facet normal 0.000000e+000 0.000000e+000 1.000000e+000
      outer loop
         vertex 3.884076e+000 3.622156e+000 1.700000e+001
         vertex 1.595297e+000 1.480962e+000 1.700000e+001
         vertex 2.086168e+000 1.060409e+000 1.700000e+001
      endloop
   endfacet
   facet normal 0.000000e+000 0.000000e+000 1.000000e+000
      outer loop
         vertex 3.884076e+000 3.622156e+000 1.700000e+001
         vertex 2.086168e+000 1.060409e+000 1.700000e+001
         vertex 4.187500e+000 3.409696e+000 1.700000e+001
      endloop
   endfacet
   facet normal 0.000000e+000 0.000000e+000 1.000000e+000
      outer loop
         vertex 4.187500e+000 3.409696e+000 1.700000e+001
         vertex 2.086168e+000 1.060409e+000 1.700000e+001
         vertex 2.625000e+000 7.033665e-001 1.700000e+001
      endloop
   endfacet
   facet normal 0.000000e+000 0.000000e+000 1.000000e+000
      outer loop
         vertex 4.187500e+000 3.409696e+000 1.700000e+001
         vertex 2.625000e+000 7.033665e-001 1.700000e+001
         vertex 4.523207e+000 3.253153e+000 1.700000e+001
      endloop
   endfacet
   facet normal 0.000000e+000 0.000000e+000 1.000000e+000
      outer loop
         vertex 7.246847e+000 4.523207e+000 1.700000e+001
         vertex 1.034143e+001 3.969453e+000 1.700000e+001
         vertex 7.342717e+000 4.880997e+000 1.700000e+001
      endloop
   endfacet
   facet normal 0.000000e+000 0.000000e+000 1.000000e+000
      outer loop
         vertex 7.342717e+000 4.880997e+000 1.700000e+001
         vertex 1.034143e+001 3.969453e+000 1.700000e+001
         vertex 1.046021e+001 4.604836e+000 1.700000e+001
      endloop
   endfacet
   facet normal 0.000000e+000 0.000000e+000 1.000000e+000
      outer loop
         vertex 7.342717e+000 4.880997e+000 1.700000e+001
         vertex 1.046021e+001 4.604836e+000 1.700000e+001
         vertex 7.375000e+000 5.250000e+000 1.700000e+001
      endloop
   endfacet
   facet normal 0.000000e+000 0.000000e+000 1.000000e+000
      outer loop
         vertex 7.375000e+000 5.250000e+000 1.700000e+001
         vertex 1.046021e+001 4.604836e+000 1.700000e+001
         vertex 1.050000e+001 5.250000e+000 1.700000e+001
      endloop
   endfacet
   facet normal 0.000000e+000 0.000000e+000 1.000000e+000
      outer loop
         vertex 7.375000e+000 5.250000e+000 1.700000e+001
         vertex 1.050000e+001 5.250000e+000 1.700000e+001
         vertex 7.342717e+000 5.619002e+000 1.700000e+001
      endloop
   endfacet
   facet normal 0.000000e+000 0.000000e+000 1.000000e+000
      outer loop
         vertex 6.994863e+000 2.984391e-001 1.700000e+001
         vertex 7.590126e+000 5.503926e-001 1.700000e+001
         vertex 6.312500e+000 3.409696e+000 1.700000e+001
      endloop
   endfacet
   facet normal 0.000000e+000 0.000000e+000 1.000000e+000
      outer loop
         vertex 6.312500e+000 3.409696e+000 1.700000e+001
         vertex 7.590126e+000 5.503926e-001 1.700000e+001
         vertex 8.149917e+000 8.735875e-001 1.700000e+001
      endloop
   endfacet
   facet normal 0.000000e+000 0.000000e+000 1.000000e+000
      outer loop
         vertex 6.312500e+000 3.409696e+000 1.700000e+001
         vertex 8.149917e+000 8.735875e-001 1.700000e+001
         vertex 6.615924e+000 3.622156e+000 1.700000e+001
      endloop
   endfacet
   facet normal 0.000000e+000 0.000000e+000 1.000000e+000
      outer loop
         vertex 6.615924e+000 3.622156e+000 1.700000e+001
         vertex 8.149917e+000 8.735875e-001 1.700000e+001
         vertex 8.665746e+000 1.263124e+000 1.700000e+001
      endloop
   endfacet
   facet normal 0.000000e+000 0.000000e+000 1.000000e+000
      outer loop
         vertex 6.615924e+000 3.622156e+000 1.700000e+001
         vertex 8.665746e+000 1.263124e+000 1.700000e+001
         vertex 6.877844e+000 3.884076e+000 1.700000e+001
      endloop
   endfacet
   facet normal 0.000000e+000 0.000000e+000 1.000000e+000
      outer loop
         vertex 2.625000e+000 7.033665e-001 1.700000e+001
         vertex 3.203624e+000 4.152460e-001 1.700000e+001
         vertex 4.523207e+000 3.253153e+000 1.700000e+001
      endloop
   endfacet
   facet normal 0.000000e+000 0.000000e+000 1.000000e+000
      outer loop
         vertex 4.523207e+000 3.253153e+000 1.700000e+001
         vertex 3.203624e+000 4.152460e-001 1.700000e+001
         vertex 3.813269e+000 2.004155e-001 1.700000e+001
      endloop
   endfacet
   facet normal 0.000000e+000 0.000000e+000 1.000000e+000
      outer loop
         vertex 4.523207e+000 3.253153e+000 1.700000e+001
         vertex 3.813269e+000 2.004155e-001 1.700000e+001
         vertex 4.880997e+000 3.157283e+000 1.700000e+001
      endloop
   endfacet
   facet normal 0.000000e+000 0.000000e+000 1.000000e+000
      outer loop
         vertex 4.880997e+000 3.157283e+000 1.700000e+001
         vertex 3.813269e+000 2.004155e-001 1.700000e+001
         vertex 4.444694e+000 6.213132e-002 1.700000e+001
      endloop
   endfacet
   facet normal 0.000000e+000 0.000000e+000 1.000000e+000
      outer loop
         vertex 4.880997e+000 3.157283e+000 1.700000e+001
         vertex 4.444694e+000 6.213132e-002 1.700000e+001
         vertex 5.250000e+000 3.125000e+000 1.700000e+001
      endloop
   endfacet
   facet normal 0.000000e+000 0.000000e+000 1.000000e+000
      outer loop
         vertex 5.250000e+000 3.125000e+000 1.700000e+001
         vertex 4.444694e+000 6.213132e-002 1.700000e+001
         vertex 5.088326e+000 2.489891e-003 1.700000e+001
      endloop
   endfacet
   facet normal 0.000000e+000 0.000000e+000 1.000000e+000
      outer loop
         vertex 5.250000e+000 3.125000e+000 1.700000e+001
         vertex 5.088326e+000 2.489891e-003 1.700000e+001
         vertex 5.734409e+000 2.239551e-002 1.700000e+001
      endloop
   endfacet
   facet normal 0.000000e+000 0.000000e+000 1.000000e+000
      outer loop
         vertex 8.665746e+000 1.263124e+000 1.700000e+001
         vertex 9.129796e+000 1.713098e+000 1.700000e+001
         vertex 6.877844e+000 3.884076e+000 1.700000e+001
      endloop
   endfacet
   facet normal 0.000000e+000 0.000000e+000 1.000000e+000
      outer loop
         vertex 6.877844e+000 3.884076e+000 1.700000e+001
         vertex 9.129796e+000 1.713098e+000 1.700000e+001
         vertex 9.535033e+000 2.216687e+000 1.700000e+001
      endloop
   endfacet
   facet normal 0.000000e+000 0.000000e+000 1.000000e+000
      outer loop
         vertex 6.877844e+000 3.884076e+000 1.700000e+001
         vertex 9.535033e+000 2.216687e+000 1.700000e+001
         vertex 7.090304e+000 4.187500e+000 1.700000e+001
      endloop
   endfacet
   facet normal 0.000000e+000 0.000000e+000 1.000000e+000
      outer loop
         vertex 7.090304e+000 4.187500e+000 1.700000e+001
         vertex 9.535033e+000 2.216687e+000 1.700000e+001
         vertex 9.875315e+000 2.766259e+000 1.700000e+001
      endloop
   endfacet
   facet normal 0.000000e+000 0.000000e+000 1.000000e+000
      outer loop
         vertex 7.090304e+000 4.187500e+000 1.700000e+001
         vertex 9.875315e+000 2.766259e+000 1.700000e+001
         vertex 7.246847e+000 4.523207e+000 1.700000e+001
      endloop
   endfacet
   facet normal 0.000000e+000 0.000000e+000 1.000000e+000
      outer loop
         vertex 7.246847e+000 4.523207e+000 1.700000e+001
         vertex 9.875315e+000 2.766259e+000 1.700000e+001
         vertex 1.014548e+001 3.353481e+000 1.700000e+001
      endloop
   endfacet
   facet normal 0.000000e+000 0.000000e+000 1.000000e+000
      outer loop
         vertex 7.246847e+000 4.523207e+000 1.700000e+001
         vertex 1.014548e+001 3.353481e+000 1.700000e+001
         vertex 1.034143e+001 3.969453e+000 1.700000e+001
      endloop
   endfacet
   facet normal 0.000000e+000 0.000000e+000 1.000000e+000
      outer loop
         vertex 3.253153e+000 4.523207e+000 1.700000e+001
         vertex 4.805573e-001 3.055708e+000 1.700000e+001
         vertex 3.409696e+000 4.187500e+000 1.700000e+001
      endloop
   endfacet
   facet normal 0.000000e+000 0.000000e+000 1.000000e+000
      outer loop
         vertex 3.409696e+000 4.187500e+000 1.700000e+001
         vertex 4.805573e-001 3.055708e+000 1.700000e+001
         vertex 7.863599e-001 2.486231e+000 1.700000e+001
      endloop
   endfacet
   facet normal 0.000000e+000 0.000000e+000 1.000000e+000
      outer loop
         vertex 3.409696e+000 4.187500e+000 1.700000e+001
         vertex 7.863599e-001 2.486231e+000 1.700000e+001
         vertex 3.622156e+000 3.884076e+000 1.700000e+001
      endloop
   endfacet
   facet normal 0.000000e+000 0.000000e+000 1.000000e+000
      outer loop
         vertex 3.622156e+000 3.884076e+000 1.700000e+001
         vertex 7.863599e-001 2.486231e+000 1.700000e+001
         vertex 1.159827e+000 1.958650e+000 1.700000e+001
      endloop
   endfacet
   facet normal 0.000000e+000 0.000000e+000 1.000000e+000
      outer loop
         vertex 3.622156e+000 3.884076e+000 1.700000e+001
         vertex 1.159827e+000 1.958650e+000 1.700000e+001
         vertex 1.595297e+000 1.480962e+000 1.700000e+001
      endloop
   endfacet
   facet normal 0.000000e+000 0.000000e+000 1.000000e+000
      outer loop
         vertex 3.125000e+000 5.250000e+000 1.700000e+001
         vertex 9.957235e-003 4.926805e+000 1.700000e+001
         vertex 3.157283e+000 4.880997e+000 1.700000e+001
      endloop
   endfacet
   facet normal 0.000000e+000 0.000000e+000 1.000000e+000
      outer loop
         vertex 3.157283e+000 4.880997e+000 1.700000e+001
         vertex 9.957235e-003 4.926805e+000 1.700000e+001
         vertex 8.939113e-002 4.285315e+000 1.700000e+001
      endloop
   endfacet
   facet normal 0.000000e+000 0.000000e+000 1.000000e+000
      outer loop
         vertex 3.157283e+000 4.880997e+000 1.700000e+001
         vertex 8.939113e-002 4.285315e+000 1.700000e+001
         vertex 3.253153e+000 4.523207e+000 1.700000e+001
      endloop
   endfacet
   facet normal 0.000000e+000 0.000000e+000 1.000000e+000
      outer loop
         vertex 3.253153e+000 4.523207e+000 1.700000e+001
         vertex 8.939113e-002 4.285315e+000 1.700000e+001
         vertex 2.470543e-001 3.658448e+000 1.700000e+001
      endloop
   endfacet
   facet normal 0.000000e+000 0.000000e+000 1.000000e+000
      outer loop
         vertex 3.253153e+000 4.523207e+000 1.700000e+001
         vertex 2.470543e-001 3.658448e+000 1.700000e+001
         vertex 4.805573e-001 3.055708e+000 1.700000e+001
      endloop
   endfacet
   facet normal 0.000000e+000 0.000000e+000 1.000000e+000
      outer loop
         vertex 3.409696e+000 6.312500e+000 1.700000e+001
         vertex 4.805573e-001 7.444292e+000 1.700000e+001
         vertex 3.253153e+000 5.976793e+000 1.700000e+001
      endloop
   endfacet
   facet normal 0.000000e+000 0.000000e+000 1.000000e+000
      outer loop
         vertex 3.253153e+000 5.976793e+000 1.700000e+001
         vertex 4.805573e-001 7.444292e+000 1.700000e+001
         vertex 2.470543e-001 6.841551e+000 1.700000e+001
      endloop
   endfacet
   facet normal 0.000000e+000 0.000000e+000 1.000000e+000
      outer loop
         vertex 3.253153e+000 5.976793e+000 1.700000e+001
         vertex 2.470543e-001 6.841551e+000 1.700000e+001
         vertex 3.157283e+000 5.619002e+000 1.700000e+001
      endloop
   endfacet
   facet normal 0.000000e+000 0.000000e+000 1.000000e+000
      outer loop
         vertex 3.157283e+000 5.619002e+000 1.700000e+001
         vertex 2.470543e-001 6.841551e+000 1.700000e+001
         vertex 8.939113e-002 6.214685e+000 1.700000e+001
      endloop
   endfacet
   facet normal 0.000000e+000 0.000000e+000 1.000000e+000
      outer loop
         vertex 3.157283e+000 5.619002e+000 1.700000e+001
         vertex 8.939113e-002 6.214685e+000 1.700000e+001
         vertex 3.125000e+000 5.250000e+000 1.700000e+001
      endloop
   endfacet
   facet normal 0.000000e+000 0.000000e+000 1.000000e+000
      outer loop
         vertex 3.125000e+000 5.250000e+000 1.700000e+001
         vertex 8.939113e-002 6.214685e+000 1.700000e+001
         vertex 9.957235e-003 5.573195e+000 1.700000e+001
      endloop
   endfacet
   facet normal 0.000000e+000 0.000000e+000 1.000000e+000
      outer loop
         vertex 3.125000e+000 5.250000e+000 1.700000e+001
         vertex 9.957235e-003 5.573195e+000 1.700000e+001
         vertex 9.957235e-003 4.926805e+000 1.700000e+001
      endloop
   endfacet
   facet normal 0.000000e+000 0.000000e+000 1.000000e+000
      outer loop
         vertex 5.619002e+000 7.342717e+000 1.700000e+001
         vertex 5.734409e+000 1.047760e+001 1.700000e+001
         vertex 5.250000e+000 7.375000e+000 1.700000e+001
      endloop
   endfacet
   facet normal 0.000000e+000 0.000000e+000 1.000000e+000
      outer loop
         vertex 5.250000e+000 7.375000e+000 1.700000e+001
         vertex 5.734409e+000 1.047760e+001 1.700000e+001
         vertex 5.088326e+000 1.049751e+001 1.700000e+001
      endloop
   endfacet
   facet normal 0.000000e+000 0.000000e+000 1.000000e+000
      outer loop
         vertex 5.250000e+000 7.375000e+000 1.700000e+001
         vertex 5.088326e+000 1.049751e+001 1.700000e+001
         vertex 4.880997e+000 7.342717e+000 1.700000e+001
      endloop
   endfacet
   facet normal 0.000000e+000 0.000000e+000 1.000000e+000
      outer loop
         vertex 7.090304e+000 6.312500e+000 1.700000e+001
         vertex 9.535033e+000 8.283313e+000 1.700000e+001
         vertex 6.877844e+000 6.615924e+000 1.700000e+001
      endloop
   endfacet
   facet normal 0.000000e+000 0.000000e+000 1.000000e+000
      outer loop
         vertex 6.877844e+000 6.615924e+000 1.700000e+001
         vertex 9.535033e+000 8.283313e+000 1.700000e+001
         vertex 9.129796e+000 8.786901e+000 1.700000e+001
      endloop
   endfacet
   facet normal 0.000000e+000 0.000000e+000 1.000000e+000
      outer loop
         vertex 6.877844e+000 6.615924e+000 1.700000e+001
         vertex 9.129796e+000 8.786901e+000 1.700000e+001
         vertex 6.615924e+000 6.877844e+000 1.700000e+001
      endloop
   endfacet
   facet normal 0.000000e+000 0.000000e+000 1.000000e+000
      outer loop
         vertex 6.615924e+000 6.877844e+000 1.700000e+001
         vertex 9.129796e+000 8.786901e+000 1.700000e+001
         vertex 8.665746e+000 9.236876e+000 1.700000e+001
      endloop
   endfacet
   facet normal 0.000000e+000 0.000000e+000 1.000000e+000
      outer loop
         vertex 6.615924e+000 6.877844e+000 1.700000e+001
         vertex 8.665746e+000 9.236876e+000 1.700000e+001
         vertex 6.312500e+000 7.090304e+000 1.700000e+001
      endloop
   endfacet
   facet normal 0.000000e+000 0.000000e+000 1.000000e+000
      outer loop
         vertex 1.050000e+001 5.250000e+000 1.700000e+001
         vertex 1.046021e+001 5.895164e+000 1.700000e+001
         vertex 7.342717e+000 5.619002e+000 1.700000e+001
      endloop
   endfacet
   facet normal 0.000000e+000 0.000000e+000 1.000000e+000
      outer loop
         vertex 7.342717e+000 5.619002e+000 1.700000e+001
         vertex 1.046021e+001 5.895164e+000 1.700000e+001
         vertex 1.034143e+001 6.530547e+000 1.700000e+001
      endloop
   endfacet
   facet normal 0.000000e+000 0.000000e+000 1.000000e+000
      outer loop
         vertex 7.342717e+000 5.619002e+000 1.700000e+001
         vertex 1.034143e+001 6.530547e+000 1.700000e+001
         vertex 7.246847e+000 5.976793e+000 1.700000e+001
      endloop
   endfacet
   facet normal 0.000000e+000 0.000000e+000 1.000000e+000
      outer loop
         vertex 7.246847e+000 5.976793e+000 1.700000e+001
         vertex 1.034143e+001 6.530547e+000 1.700000e+001
         vertex 1.014548e+001 7.146519e+000 1.700000e+001
      endloop
   endfacet
   facet normal 0.000000e+000 0.000000e+000 1.000000e+000
      outer loop
         vertex 7.246847e+000 5.976793e+000 1.700000e+001
         vertex 1.014548e+001 7.146519e+000 1.700000e+001
         vertex 7.090304e+000 6.312500e+000 1.700000e+001
      endloop
   endfacet
   facet normal 0.000000e+000 0.000000e+000 1.000000e+000
      outer loop
         vertex 7.090304e+000 6.312500e+000 1.700000e+001
         vertex 1.014548e+001 7.146519e+000 1.700000e+001
         vertex 9.875315e+000 7.733741e+000 1.700000e+001
      endloop
   endfacet
   facet normal 0.000000e+000 0.000000e+000 1.000000e+000
      outer loop
         vertex 7.090304e+000 6.312500e+000 1.700000e+001
         vertex 9.875315e+000 7.733741e+000 1.700000e+001
         vertex 9.535033e+000 8.283313e+000 1.700000e+001
      endloop
   endfacet
   facet normal 0.000000e+000 0.000000e+000 1.000000e+000
      outer loop
         vertex 3.884076e+000 6.877844e+000 1.700000e+001
         vertex 1.595297e+000 9.019037e+000 1.700000e+001
         vertex 3.622156e+000 6.615924e+000 1.700000e+001
      endloop
   endfacet
   facet normal 0.000000e+000 0.000000e+000 1.000000e+000
      outer loop
         vertex 3.622156e+000 6.615924e+000 1.700000e+001
         vertex 1.595297e+000 9.019037e+000 1.700000e+001
         vertex 1.159827e+000 8.541350e+000 1.700000e+001
      endloop
   endfacet
   facet normal 0.000000e+000 0.000000e+000 1.000000e+000
      outer loop
         vertex 3.622156e+000 6.615924e+000 1.700000e+001
         vertex 1.159827e+000 8.541350e+000 1.700000e+001
         vertex 3.409696e+000 6.312500e+000 1.700000e+001
      endloop
   endfacet
   facet normal 0.000000e+000 0.000000e+000 1.000000e+000
      outer loop
         vertex 3.409696e+000 6.312500e+000 1.700000e+001
         vertex 1.159827e+000 8.541350e+000 1.700000e+001
         vertex 7.863599e-001 8.013769e+000 1.700000e+001
      endloop
   endfacet
   facet normal 0.000000e+000 0.000000e+000 1.000000e+000
      outer loop
         vertex 3.409696e+000 6.312500e+000 1.700000e+001
         vertex 7.863599e-001 8.013769e+000 1.700000e+001
         vertex 4.805573e-001 7.444292e+000 1.700000e+001
      endloop
   endfacet
   facet normal 0.000000e+000 0.000000e+000 1.000000e+000
      outer loop
         vertex 5.088326e+000 1.049751e+001 1.700000e+001
         vertex 4.444694e+000 1.043787e+001 1.700000e+001
         vertex 4.880997e+000 7.342717e+000 1.700000e+001
      endloop
   endfacet
   facet normal 0.000000e+000 0.000000e+000 1.000000e+000
      outer loop
         vertex 4.880997e+000 7.342717e+000 1.700000e+001
         vertex 4.444694e+000 1.043787e+001 1.700000e+001
         vertex 3.813269e+000 1.029958e+001 1.700000e+001
      endloop
   endfacet
   facet normal 0.000000e+000 0.000000e+000 1.000000e+000
      outer loop
         vertex 4.880997e+000 7.342717e+000 1.700000e+001
         vertex 3.813269e+000 1.029958e+001 1.700000e+001
         vertex 4.523207e+000 7.246847e+000 1.700000e+001
      endloop
   endfacet
   facet normal 0.000000e+000 0.000000e+000 1.000000e+000
      outer loop
         vertex 4.523207e+000 7.246847e+000 1.700000e+001
         vertex 3.813269e+000 1.029958e+001 1.700000e+001
         vertex 3.203624e+000 1.008475e+001 1.700000e+001
      endloop
   endfacet
   facet normal 0.000000e+000 0.000000e+000 1.000000e+000
      outer loop
         vertex 4.523207e+000 7.246847e+000 1.700000e+001
         vertex 3.203624e+000 1.008475e+001 1.700000e+001
         vertex 4.187500e+000 7.090304e+000 1.700000e+001
      endloop
   endfacet
   facet normal 0.000000e+000 0.000000e+000 1.000000e+000
      outer loop
         vertex 4.187500e+000 7.090304e+000 1.700000e+001
         vertex 3.203624e+000 1.008475e+001 1.700000e+001
         vertex 2.625000e+000 9.796634e+000 1.700000e+001
      endloop
   endfacet
   facet normal 0.000000e+000 0.000000e+000 1.000000e+000
      outer loop
         vertex 4.187500e+000 7.090304e+000 1.700000e+001
         vertex 2.625000e+000 9.796634e+000 1.700000e+001
         vertex 3.884076e+000 6.877844e+000 1.700000e+001
      endloop
   endfacet
   facet normal 0.000000e+000 0.000000e+000 1.000000e+000
      outer loop
         vertex 3.884076e+000 6.877844e+000 1.700000e+001
         vertex 2.625000e+000 9.796634e+000 1.700000e+001
         vertex 2.086168e+000 9.439590e+000 1.700000e+001
      endloop
   endfacet
   facet normal 0.000000e+000 0.000000e+000 1.000000e+000
      outer loop
         vertex 3.884076e+000 6.877844e+000 1.700000e+001
         vertex 2.086168e+000 9.439590e+000 1.700000e+001
         vertex 1.595297e+000 9.019037e+000 1.700000e+001
      endloop
   endfacet
   facet normal 0.000000e+000 0.000000e+000 1.000000e+000
      outer loop
         vertex 8.665746e+000 9.236876e+000 1.700000e+001
         vertex 8.149917e+000 9.626412e+000 1.700000e+001
         vertex 6.312500e+000 7.090304e+000 1.700000e+001
      endloop
   endfacet
   facet normal 0.000000e+000 0.000000e+000 1.000000e+000
      outer loop
         vertex 6.312500e+000 7.090304e+000 1.700000e+001
         vertex 8.149917e+000 9.626412e+000 1.700000e+001
         vertex 7.590126e+000 9.949608e+000 1.700000e+001
      endloop
   endfacet
   facet normal 0.000000e+000 0.000000e+000 1.000000e+000
      outer loop
         vertex 6.312500e+000 7.090304e+000 1.700000e+001
         vertex 7.590126e+000 9.949608e+000 1.700000e+001
         vertex 5.976793e+000 7.246847e+000 1.700000e+001
      endloop
   endfacet
   facet normal 0.000000e+000 0.000000e+000 1.000000e+000
      outer loop
         vertex 5.976793e+000 7.246847e+000 1.700000e+001
         vertex 7.590126e+000 9.949608e+000 1.700000e+001
         vertex 6.994863e+000 1.020156e+001 1.700000e+001
      endloop
   endfacet
   facet normal 0.000000e+000 0.000000e+000 1.000000e+000
      outer loop
         vertex 5.976793e+000 7.246847e+000 1.700000e+001
         vertex 6.994863e+000 1.020156e+001 1.700000e+001
         vertex 5.619002e+000 7.342717e+000 1.700000e+001
      endloop
   endfacet
   facet normal 0.000000e+000 0.000000e+000 1.000000e+000
      outer loop
         vertex 5.619002e+000 7.342717e+000 1.700000e+001
         vertex 6.994863e+000 1.020156e+001 1.700000e+001
         vertex 6.373148e+000 1.037845e+001 1.700000e+001
      endloop
   endfacet
   facet normal 0.000000e+000 0.000000e+000 1.000000e+000
      outer loop
         vertex 5.619002e+000 7.342717e+000 1.700000e+001
         vertex 6.373148e+000 1.037845e+001 1.700000e+001
         vertex 5.734409e+000 1.047760e+001 1.700000e+001
      endloop
   endfacet
endsolid